<?xml version="1.0" encoding="utf-8"?>
<!-- Generator: Adobe Illustrator 16.0.0, SVG Export Plug-In . SVG Version: 6.00 Build 0)  -->
<!DOCTYPE svg PUBLIC "-//W3C//DTD SVG 1.1//EN" "http://www.w3.org/Graphics/SVG/1.1/DTD/svg11.dtd">
<svg version="1.1" id="Layer_1" xmlns="http://www.w3.org/2000/svg" xmlns:xlink="http://www.w3.org/1999/xlink" x="0px" y="0px"
	 width="70px" height="70px" viewBox="0 0 70 70" enable-background="new 0 0 70 70" xml:space="preserve">
<g>
	<g>
		<path fill="#B5E2EB" d="M53.499,4.309c-0.653,0.377-1.021,1.063-1.019,1.767c-0.002,0.345,0.088,0.696,0.271,1.017L52.914,7
			l-0.161,0.093c0.378,0.652,1.062,1.018,1.767,1.018c0.347,0,0.695-0.088,1.018-0.273c0.652-0.377,1.02-1.063,1.02-1.767
			c0-0.344-0.089-0.695-0.273-1.016c-0.377-0.654-1.062-1.021-1.768-1.02C54.17,4.036,53.818,4.124,53.499,4.309z"/>
		<path fill="#B5E2EB" d="M55.961,5.241c0.15,0.263,0.225,0.549,0.225,0.831c0,0.577-0.299,1.137-0.834,1.445
			c-0.264,0.153-0.55,0.225-0.832,0.225c-0.576,0-1.137-0.299-1.444-0.833l0,0c-0.152-0.264-0.224-0.55-0.224-0.832
			c0-0.577,0.297-1.137,0.832-1.446c0.265-0.152,0.551-0.225,0.832-0.225C55.091,4.406,55.652,4.705,55.961,5.241z"/>
	</g>
	<g>
		<path fill="#B5E2EB" d="M55.295,15.241c-0.703,0-1.388,0.366-1.766,1.019l0.16,0.093l-0.16-0.093
			c-0.187,0.321-0.273,0.673-0.273,1.019c0,0.704,0.366,1.388,1.02,1.765c0.32,0.186,0.673,0.274,1.019,0.274
			c0.703,0,1.388-0.365,1.767-1.018c0.184-0.321,0.272-0.673,0.271-1.019c0.002-0.704-0.364-1.389-1.017-1.769
			C55.992,15.329,55.643,15.241,55.295,15.241z"/>
		<path fill="#B5E2EB" d="M56.961,17.282c0,0.283-0.07,0.569-0.225,0.833c-0.309,0.534-0.867,0.833-1.443,0.833
			c-0.284,0-0.568-0.071-0.832-0.224c-0.537-0.309-0.833-0.868-0.835-1.444c0-0.283,0.073-0.57,0.226-0.834l0,0
			c0.309-0.536,0.867-0.834,1.443-0.834c0.283,0,0.568,0.072,0.832,0.223C56.662,16.145,56.961,16.704,56.961,17.282z"/>
	</g>
	<g>
		<circle fill="#B5E2EB" cx="67.082" cy="20.986" r="2.038"/>
		<circle fill="#B5E2EB" cx="67.081" cy="20.986" r="1.667"/>
	</g>
	<g>
		<path fill="#B5E2EB" d="M53.582,41.083c0.348,0,0.697-0.089,1.02-0.274c0.651-0.375,1.019-1.062,1.018-1.766
			c0.001-0.345-0.088-0.695-0.271-1.018c-0.379-0.652-1.062-1.021-1.768-1.02c-0.346,0-0.695,0.088-1.018,0.273
			c-0.652,0.375-1.02,1.062-1.017,1.767c-0.003,0.345,0.088,0.696,0.271,1.017l0.16-0.092l-0.16,0.094
			C52.193,40.717,52.879,41.083,53.582,41.083z"/>
		<path fill="#B5E2EB" d="M51.915,39.047c0-0.578,0.299-1.139,0.834-1.445c0.263-0.152,0.548-0.225,0.83-0.225
			c0.577,0,1.137,0.299,1.446,0.834c0.15,0.264,0.223,0.55,0.223,0.832c0,0.577-0.298,1.137-0.833,1.443
			c-0.263,0.154-0.55,0.226-0.833,0.226c-0.575,0-1.135-0.298-1.443-0.833l0,0C51.984,39.615,51.915,39.329,51.915,39.047z"/>
	</g>
	<g>
		<path fill="#B5E2EB" d="M64.412,32.904c1.125,0,2.036-0.915,2.037-2.038c0-1.126-0.912-2.037-2.037-2.037
			c-1.121,0-2.034,0.911-2.034,2.037C62.379,31.989,63.291,32.904,64.412,32.904z"/>
		<circle fill="#B5E2EB" cx="64.412" cy="30.866" r="1.667"/>
	</g>
	<g>
		<path fill="#B5E2EB" d="M62.6,11.202c-0.002,0.345,0.088,0.696,0.271,1.017c0.377,0.653,1.061,1.021,1.763,1.021
			c0.347,0,0.697-0.088,1.017-0.273c0.652-0.378,1.02-1.063,1.019-1.768c0.001-0.345-0.088-0.696-0.272-1.017
			c-0.377-0.653-1.062-1.019-1.767-1.019c-0.346,0-0.696,0.089-1.014,0.274C62.964,9.813,62.598,10.499,62.6,11.202z"/>
		<path fill="#B5E2EB" d="M64.629,9.532c0.576,0,1.139,0.299,1.446,0.834c0.151,0.263,0.223,0.549,0.223,0.832
			c0,0.577-0.299,1.137-0.834,1.446c-0.262,0.152-0.547,0.223-0.83,0.223c-0.577,0-1.135-0.298-1.442-0.834
			c-0.15-0.263-0.223-0.548-0.223-0.831c0-0.577,0.299-1.137,0.83-1.446C64.061,9.604,64.348,9.533,64.629,9.532z"/>
	</g>
	<g>
		<path fill="#B5E2EB" d="M53.52,25.215c-0.347,0-0.697,0.088-1.018,0.274c-0.652,0.377-1.02,1.062-1.018,1.766
			c-0.002,0.346,0.088,0.697,0.272,1.017c0.377,0.653,1.062,1.02,1.767,1.02c0.347,0,0.697-0.088,1.017-0.273
			c0.653-0.378,1.021-1.064,1.019-1.768c0.002-0.345-0.088-0.696-0.272-1.017C54.908,25.581,54.223,25.215,53.52,25.215z"/>
		<path fill="#B5E2EB" d="M54.355,28.697c-0.265,0.152-0.549,0.223-0.832,0.223c-0.576,0-1.137-0.298-1.446-0.834
			c-0.151-0.263-0.222-0.548-0.222-0.832c0-0.577,0.297-1.137,0.832-1.445c0.264-0.152,0.549-0.224,0.83-0.225
			c0.576,0.001,1.139,0.3,1.446,0.834c0.152,0.263,0.224,0.549,0.224,0.832C55.188,27.828,54.889,28.388,54.355,28.697z"/>
	</g>
	<g>
		<path fill="#B5E2EB" d="M45.766,35.372c1.125,0,2.037-0.914,2.037-2.036c0-1.127-0.912-2.038-2.037-2.038
			s-2.037,0.911-2.037,2.038C43.729,34.458,44.641,35.372,45.766,35.372z"/>
		<path fill="#B5E2EB" d="M44.098,33.336c0.002-0.922,0.746-1.666,1.668-1.668c0.92,0.002,1.666,0.746,1.668,1.668
			c-0.002,0.917-0.748,1.664-1.668,1.666C44.844,35,44.1,34.253,44.098,33.336z"/>
	</g>
	<g>
		<circle fill="#B5E2EB" cx="44.857" cy="45.374" r="2.037"/>
		<circle fill="#B5E2EB" cx="44.857" cy="45.374" r="1.667"/>
	</g>
	<g>
		<path fill="#B5E2EB" d="M60.777,67.423c0.32,0.185,0.672,0.272,1.016,0.272c0.705,0,1.391-0.366,1.766-1.021
			c0.186-0.318,0.273-0.67,0.272-1.016c0.001-0.703-0.364-1.389-1.017-1.766c-0.32-0.187-0.672-0.273-1.019-0.273
			c-0.704,0-1.39,0.365-1.769,1.018v0.002c-0.185,0.319-0.271,0.67-0.271,1.016C59.757,66.359,60.122,67.044,60.777,67.423z"/>
		<path fill="#B5E2EB" d="M60.352,64.824v-0.002V64.824c0.309-0.535,0.867-0.834,1.445-0.834c0.282,0,0.568,0.072,0.833,0.225
			c0.535,0.309,0.832,0.868,0.832,1.444c0,0.282-0.071,0.567-0.224,0.831c-0.309,0.535-0.868,0.835-1.445,0.835
			c-0.281,0-0.566-0.072-0.83-0.224c-0.537-0.311-0.835-0.869-0.835-1.447C60.128,65.372,60.199,65.088,60.352,64.824z"/>
	</g>
	<g>
		<path fill="#B5E2EB" d="M55.502,48.24c-0.318-0.186-0.672-0.273-1.018-0.273c-0.705,0-1.391,0.366-1.768,1.021l0,0
			c-0.186,0.318-0.273,0.672-0.273,1.016c0,0.704,0.365,1.391,1.021,1.766c0.321,0.188,0.672,0.276,1.02,0.276
			c0.703,0,1.388-0.366,1.765-1.021c0.185-0.32,0.272-0.672,0.272-1.019C56.521,49.303,56.154,48.618,55.502,48.24z"/>
		<path fill="#B5E2EB" d="M55.928,50.839c-0.31,0.535-0.867,0.834-1.443,0.835c-0.283,0-0.57-0.072-0.834-0.227
			c-0.537-0.309-0.836-0.868-0.836-1.444c0-0.282,0.072-0.567,0.225-0.83l-0.16-0.093l0.16,0.092
			c0.309-0.536,0.868-0.835,1.445-0.835c0.283,0,0.568,0.072,0.834,0.224c0.535,0.311,0.832,0.869,0.832,1.446
			C56.15,50.289,56.079,50.576,55.928,50.839z"/>
	</g>
	<g>
		<path fill="#B5E2EB" d="M66.758,54.327c0.001-0.345-0.089-0.695-0.273-1.017c-0.377-0.653-1.062-1.021-1.767-1.021
			c-0.345,0-0.694,0.09-1.015,0.275c-0.65,0.377-1.018,1.062-1.016,1.767c-0.002,0.345,0.088,0.696,0.271,1.019
			c0.376,0.651,1.059,1.019,1.762,1.019c0.348,0,0.697-0.089,1.018-0.274C66.393,55.716,66.759,55.032,66.758,54.327z"/>
		<path fill="#B5E2EB" d="M64.721,55.997c-0.576-0.001-1.133-0.299-1.439-0.834c-0.151-0.263-0.223-0.55-0.223-0.832
			c0-0.577,0.297-1.138,0.83-1.446c0.262-0.15,0.547-0.225,0.829-0.225c0.576,0,1.138,0.3,1.446,0.837
			c0.152,0.263,0.225,0.548,0.225,0.83c0,0.577-0.3,1.137-0.834,1.444C65.291,55.925,65.004,55.997,64.721,55.997z"/>
	</g>
	<g>
		<path fill="#B5E2EB" d="M51.176,60.6c0,0.346,0.088,0.695,0.272,1.017c0.377,0.653,1.063,1.021,1.767,1.02
			c0.346,0.001,0.697-0.088,1.018-0.271c0.651-0.38,1.019-1.064,1.018-1.769c0.001-0.346-0.088-0.695-0.271-1.017
			c-0.379-0.652-1.062-1.021-1.768-1.019c-0.345-0.002-0.695,0.088-1.018,0.272C51.541,59.21,51.176,59.895,51.176,60.6z"/>
		<path fill="#B5E2EB" d="M53.21,58.93c0.577,0,1.138,0.299,1.446,0.834c0.15,0.264,0.223,0.549,0.223,0.83
			c0,0.578-0.299,1.139-0.833,1.447c-0.263,0.152-0.547,0.225-0.831,0.225c-0.576,0-1.138-0.3-1.445-0.834
			c-0.151-0.265-0.224-0.551-0.224-0.832c0-0.576,0.3-1.138,0.834-1.445C52.643,59.002,52.928,58.93,53.21,58.93z"/>
	</g>
	<g>
		<path fill="#B5E2EB" d="M47.82,66.062c0-1.127-0.911-2.039-2.036-2.039s-2.037,0.912-2.037,2.039c0,1.123,0.912,2.035,2.037,2.037
			C46.909,68.098,47.82,67.186,47.82,66.062z"/>
		<circle fill="#B5E2EB" cx="45.784" cy="66.062" r="1.667"/>
	</g>
	<g>
		<path fill="#B5E2EB" d="M64.018,45.035c0.346,0,0.694-0.088,1.017-0.273c0.651-0.378,1.021-1.062,1.017-1.766
			c0.004-0.348-0.088-0.696-0.271-1.02c-0.377-0.651-1.062-1.019-1.766-1.019c-0.345,0-0.695,0.088-1.014,0.274
			c-0.652,0.377-1.02,1.062-1.02,1.767c0,0.345,0.088,0.696,0.273,1.017C62.631,44.67,63.316,45.035,64.018,45.035z"/>
		<path fill="#B5E2EB" d="M62.573,43.83c-0.15-0.264-0.224-0.549-0.224-0.83c0-0.577,0.299-1.139,0.834-1.445
			c0.262-0.152,0.547-0.226,0.828-0.226c0.575,0,1.137,0.301,1.444,0.834c0.151,0.264,0.224,0.55,0.224,0.833
			c0,0.576-0.3,1.136-0.834,1.445c-0.263,0.15-0.547,0.223-0.828,0.224C63.441,44.664,62.883,44.366,62.573,43.83z"/>
	</g>
	<g>
		<path fill="#B5E2EB" d="M34.45,2.463c-0.186,0.321-0.273,0.672-0.273,1.017c0,0.704,0.365,1.389,1.019,1.768
			c0.32,0.185,0.671,0.273,1.018,0.273c0.703,0,1.388-0.366,1.767-1.02c0.185-0.32,0.271-0.671,0.271-1.017
			c0-0.704-0.363-1.389-1.02-1.767c-0.319-0.185-0.67-0.273-1.016-0.273C35.514,1.444,34.827,1.81,34.45,2.463z"/>
		<path fill="#B5E2EB" d="M37.881,3.484c0,0.283-0.07,0.569-0.223,0.831c-0.311,0.536-0.87,0.835-1.445,0.835
			c-0.283,0-0.568-0.072-0.833-0.223c-0.534-0.31-0.832-0.87-0.833-1.447c0.001-0.283,0.071-0.569,0.224-0.831
			c0.309-0.535,0.87-0.833,1.446-0.834c0.282,0.001,0.567,0.072,0.831,0.224C37.583,2.347,37.881,2.907,37.881,3.484z"/>
	</g>
	<g>
		<path fill="#B5E2EB" d="M34.672,17.682c0.347,0,0.697-0.089,1.02-0.274c0.651-0.377,1.019-1.062,1.019-1.767
			c0-0.345-0.089-0.697-0.274-1.017l-0.16,0.092l0.16-0.093c-0.375-0.652-1.062-1.018-1.765-1.018c-0.346,0-0.698,0.088-1.018,0.274
			c-0.653,0.377-1.019,1.062-1.019,1.766c0,0.345,0.088,0.696,0.272,1.017C33.284,17.315,33.969,17.682,34.672,17.682z"/>
		<path fill="#B5E2EB" d="M33.838,14.2c0.262-0.153,0.548-0.224,0.832-0.224c0.576,0,1.137,0.299,1.443,0.833l0,0
			c0.152,0.263,0.224,0.549,0.226,0.832c-0.002,0.577-0.301,1.137-0.835,1.446c-0.263,0.152-0.549,0.224-0.832,0.224
			c-0.576,0-1.136-0.299-1.444-0.834c-0.152-0.263-0.224-0.549-0.224-0.832C33.004,15.069,33.302,14.509,33.838,14.2z"/>
	</g>
	<g>
		<path fill="#B5E2EB" d="M14.142,7.779c0.32,0.185,0.672,0.273,1.017,0.273c0.703,0,1.39-0.366,1.767-1.02l-0.161-0.093
			l0.161,0.093c0.185-0.321,0.273-0.672,0.273-1.017c0-0.704-0.365-1.39-1.018-1.767c-0.322-0.185-0.673-0.273-1.02-0.273
			c-0.704,0-1.389,0.366-1.766,1.021c-0.184,0.32-0.272,0.671-0.272,1.016C13.122,6.715,13.488,7.401,14.142,7.779z"/>
		<path fill="#B5E2EB" d="M13.716,5.179c0.308-0.536,0.868-0.834,1.445-0.835c0.283,0,0.57,0.072,0.833,0.225
			c0.535,0.309,0.834,0.869,0.834,1.446c0,0.282-0.072,0.568-0.224,0.832l0,0c-0.308,0.535-0.869,0.834-1.445,0.834
			c-0.283,0-0.569-0.071-0.831-0.223c-0.536-0.309-0.834-0.87-0.835-1.447C13.493,5.728,13.565,5.442,13.716,5.179z"/>
	</g>
	<g>
		<path fill="#B5E2EB" d="M16.581,15.524c0,0.346,0.088,0.696,0.272,1.016c0.378,0.654,1.064,1.02,1.768,1.02
			c0.345,0,0.697-0.088,1.017-0.273c0.652-0.378,1.018-1.063,1.018-1.767c0-0.346-0.088-0.696-0.274-1.018
			c-0.377-0.652-1.062-1.019-1.766-1.019c-0.345,0-0.696,0.088-1.017,0.273C16.946,14.135,16.581,14.821,16.581,15.524z"/>
		<path fill="#B5E2EB" d="M18.615,13.854c0.576,0,1.137,0.299,1.446,0.834c0.152,0.263,0.223,0.549,0.224,0.832
			c-0.001,0.577-0.3,1.137-0.834,1.447c-0.262,0.151-0.548,0.223-0.831,0.223c-0.577,0-1.137-0.298-1.445-0.834
			c-0.152-0.262-0.224-0.548-0.224-0.831c0-0.577,0.299-1.137,0.834-1.446C18.047,13.927,18.333,13.854,18.615,13.854z"/>
	</g>
	<g>
		<circle fill="#B5E2EB" cx="27.153" cy="22.221" r="2.037"/>
		<path fill="#B5E2EB" d="M27.153,23.889c-0.922-0.002-1.665-0.75-1.667-1.667c0-0.922,0.744-1.667,1.667-1.667
			c0.92,0.001,1.666,0.746,1.667,1.667C28.819,23.139,28.073,23.887,27.153,23.889z"/>
	</g>
	<g>
		<circle fill="#B5E2EB" cx="9.337" cy="20.986" r="2.037"/>
		<circle fill="#B5E2EB" cx="9.337" cy="20.986" r="1.667"/>
	</g>
	<g>
		<path fill="#B5E2EB" d="M34.122,38.581c0,0.703,0.364,1.388,1.019,1.767c0.319,0.186,0.671,0.272,1.017,0.272
			c0.703,0.001,1.39-0.365,1.766-1.019l0,0c0.186-0.32,0.274-0.674,0.274-1.02c0-0.704-0.366-1.389-1.021-1.766h0.001
			c-0.32-0.186-0.671-0.274-1.018-0.274c-0.704,0-1.389,0.366-1.766,1.021l0,0C34.21,37.885,34.122,38.234,34.122,38.581z"/>
		<path fill="#B5E2EB" d="M34.715,37.751L34.715,37.751c0.31-0.538,0.868-0.837,1.445-0.837c0.281,0,0.568,0.072,0.832,0.225
			l0.002,0.002c0.531,0.309,0.831,0.866,0.832,1.442c-0.001,0.284-0.071,0.569-0.225,0.834l0,0l0,0
			c-0.309,0.534-0.867,0.833-1.444,0.833c-0.283,0-0.569-0.072-0.832-0.225c-0.535-0.31-0.833-0.868-0.833-1.444
			C34.492,38.299,34.563,38.014,34.715,37.751z"/>
	</g>
	<g>
		<path fill="#B5E2EB" d="M15.001,37.656c-0.185,0.32-0.273,0.672-0.273,1.017c0,0.704,0.365,1.392,1.019,1.769
			c0.32,0.185,0.671,0.271,1.016,0.271c0.704,0,1.389-0.365,1.766-1.02c0.186-0.319,0.274-0.672,0.274-1.018
			c0-0.703-0.366-1.389-1.019-1.767c-0.32-0.185-0.672-0.273-1.017-0.273C16.064,36.637,15.378,37.003,15.001,37.656z"/>
		<path fill="#B5E2EB" d="M16.768,37.009c0.283,0,0.568,0.07,0.831,0.224c0.534,0.31,0.833,0.869,0.834,1.444
			c-0.001,0.284-0.072,0.569-0.224,0.832c-0.308,0.536-0.87,0.834-1.446,0.834c-0.282,0-0.568-0.071-0.83-0.224
			c-0.535-0.309-0.834-0.868-0.834-1.446c0-0.282,0.072-0.567,0.224-0.831C15.63,37.307,16.191,37.009,16.768,37.009z"/>
	</g>
	<g>
		<path fill="#B5E2EB" d="M27.647,33.336c0-1.127-0.913-2.038-2.038-2.038c-1.127,0.002-2.035,0.912-2.038,2.038
			c0,1.122,0.91,2.036,2.038,2.036C26.734,35.372,27.647,34.458,27.647,33.336z"/>
		<path fill="#B5E2EB" d="M23.942,33.336c0-0.922,0.744-1.668,1.667-1.668c0.92,0.002,1.666,0.746,1.667,1.668
			c-0.002,0.917-0.747,1.664-1.667,1.666C24.687,35,23.944,34.253,23.942,33.336z"/>
	</g>
	<g>
		<circle fill="#B5E2EB" cx="6.668" cy="30.866" r="2.037"/>
		<circle fill="#B5E2EB" cx="6.668" cy="30.866" r="1.667"/>
	</g>
	<g>
		<path fill="#B5E2EB" d="M17.385,29.292c0.346,0,0.696-0.088,1.017-0.273c0.653-0.378,1.018-1.064,1.018-1.768
			c0-0.345-0.088-0.696-0.273-1.017c-0.378-0.653-1.063-1.019-1.766-1.019c-0.346,0-0.696,0.088-1.017,0.274
			c-0.653,0.377-1.019,1.062-1.019,1.766c0,0.346,0.088,0.697,0.273,1.017C15.997,28.925,16.682,29.292,17.385,29.292z"/>
		<path fill="#B5E2EB" d="M15.715,27.255c0.001-0.577,0.299-1.137,0.834-1.445c0.263-0.152,0.548-0.224,0.831-0.225
			c0.576,0.001,1.136,0.3,1.445,0.834c0.152,0.263,0.223,0.549,0.224,0.832c-0.001,0.577-0.299,1.137-0.834,1.446
			c-0.262,0.152-0.548,0.223-0.831,0.223c-0.576,0-1.136-0.298-1.445-0.834C15.788,27.824,15.716,27.538,15.715,27.255z"/>
	</g>
	<g>
		<path fill="#B5E2EB" d="M4.849,11.202c0,0.345,0.088,0.696,0.273,1.017c0.378,0.653,1.063,1.021,1.766,1.021
			c0.346,0,0.696-0.088,1.016-0.273c0.654-0.378,1.02-1.063,1.02-1.768c0-0.345-0.088-0.696-0.273-1.017
			C8.273,9.528,7.588,9.162,6.885,9.162c-0.346,0-0.697,0.089-1.017,0.274C5.214,9.813,4.849,10.499,4.849,11.202z"/>
		<path fill="#B5E2EB" d="M6.885,9.532c0.576,0,1.136,0.299,1.445,0.834c0.152,0.263,0.223,0.549,0.223,0.832
			c0,0.577-0.298,1.137-0.833,1.446c-0.262,0.152-0.548,0.223-0.831,0.223c-0.576,0-1.136-0.298-1.446-0.834
			c-0.151-0.263-0.222-0.548-0.223-0.831c0.001-0.577,0.299-1.137,0.834-1.446C6.316,9.604,6.601,9.533,6.885,9.532z"/>
	</g>
	<g>
		<path fill="#B5E2EB" d="M25.915,7.12c-0.652,0.377-1.018,1.063-1.018,1.767c0,0.345,0.088,0.696,0.273,1.016
			c0.377,0.653,1.063,1.02,1.767,1.02c0.345,0,0.696-0.088,1.016-0.273c0.653-0.377,1.019-1.062,1.019-1.765
			c0-0.346-0.088-0.698-0.273-1.02c-0.377-0.652-1.062-1.018-1.765-1.018C26.586,6.847,26.235,6.935,25.915,7.12L25.915,7.12z"/>
		<path fill="#B5E2EB" d="M26.933,7.217c0.576,0,1.136,0.299,1.444,0.834c0.152,0.263,0.224,0.55,0.224,0.833
			c0,0.575-0.298,1.135-0.834,1.444c-0.262,0.151-0.548,0.223-0.83,0.223c-0.577,0-1.138-0.298-1.446-0.834
			c-0.152-0.262-0.224-0.548-0.224-0.831c0-0.577,0.299-1.137,0.834-1.446H26.1C26.363,7.289,26.649,7.218,26.933,7.217z"/>
	</g>
	<g>
		<path fill="#B5E2EB" d="M27.168,41.852c-0.653,0.377-1.018,1.062-1.018,1.767c0,0.345,0.088,0.696,0.273,1.017
			c0.377,0.653,1.063,1.02,1.767,1.02c0.345,0,0.697-0.088,1.016-0.272h0.001c0.652-0.378,1.018-1.063,1.018-1.767
			c0-0.346-0.088-0.697-0.274-1.018c-0.376-0.654-1.062-1.021-1.766-1.021C27.84,41.576,27.489,41.665,27.168,41.852z"/>
		<path fill="#B5E2EB" d="M29.631,42.781c0.152,0.263,0.223,0.549,0.224,0.832c-0.001,0.576-0.3,1.137-0.834,1.445l0,0
			c-0.262,0.15-0.548,0.224-0.831,0.224c-0.576,0-1.137-0.3-1.445-0.834c-0.152-0.263-0.224-0.55-0.224-0.831
			c0-0.577,0.299-1.139,0.834-1.445c0.262-0.152,0.548-0.225,0.831-0.225C28.761,41.947,29.323,42.246,29.631,42.781z"/>
	</g>
	<g>
		<circle fill="#B5E2EB" cx="35.887" cy="28.703" r="2.037"/>
		<path fill="#B5E2EB" d="M35.887,30.371c-0.921-0.002-1.666-0.75-1.668-1.667c0.002-0.921,0.747-1.666,1.668-1.667
			c0.92,0.001,1.665,0.746,1.666,1.667C37.552,29.621,36.807,30.369,35.887,30.371z"/>
	</g>
	<g>
		<path fill="#B5E2EB" d="M44.529,13.084c0.347,0,0.697-0.088,1.017-0.273c0.654-0.378,1.021-1.064,1.021-1.768
			c0-0.346-0.088-0.696-0.272-1.017c-0.378-0.652-1.063-1.019-1.769-1.019c-0.346,0-0.695,0.089-1.018,0.274
			c-0.652,0.377-1.02,1.062-1.02,1.767c0,0.346,0.089,0.696,0.273,1.017C43.141,12.718,43.826,13.084,44.529,13.084z"/>
		<path fill="#B5E2EB" d="M43.693,9.602c0.265-0.152,0.551-0.224,0.832-0.225c0.576,0,1.138,0.3,1.447,0.835
			c0.15,0.262,0.223,0.548,0.223,0.831c0,0.577-0.297,1.137-0.836,1.447c-0.262,0.151-0.547,0.223-0.83,0.223
			c-0.575,0-1.137-0.299-1.445-0.835c-0.152-0.262-0.223-0.548-0.225-0.831C42.861,10.471,43.16,9.911,43.693,9.602z"/>
	</g>
	<g>
		<path fill="#B5E2EB" d="M43.275,24.566c1.129,0,2.037-0.914,2.037-2.037c0-1.125-0.908-2.038-2.037-2.038
			c-1.125,0-2.037,0.912-2.037,2.038C41.238,23.653,42.15,24.566,43.275,24.566z"/>
		<circle fill="#B5E2EB" cx="43.275" cy="22.529" r="1.667"/>
	</g>
	<g>
		<path fill="#B5E2EB" d="M26.521,66.15c0-0.346-0.088-0.695-0.273-1.017c-0.377-0.653-1.063-1.019-1.768-1.018
			c-0.345-0.001-0.696,0.088-1.016,0.272c-0.652,0.377-1.018,1.062-1.018,1.766c0,0.346,0.088,0.697,0.273,1.018
			c0.377,0.653,1.063,1.02,1.768,1.02c0.345,0,0.696-0.088,1.016-0.271C26.154,67.54,26.521,66.855,26.521,66.15z"/>
		<path fill="#B5E2EB" d="M24.486,67.82c-0.577,0-1.138-0.299-1.446-0.834c-0.152-0.262-0.223-0.549-0.224-0.83
			c0.001-0.576,0.299-1.139,0.834-1.446c0.262-0.151,0.548-0.224,0.83-0.224c0.577,0,1.138,0.3,1.446,0.834
			c0.152,0.263,0.223,0.549,0.224,0.83c-0.001,0.578-0.299,1.138-0.834,1.447C25.054,67.751,24.768,67.82,24.486,67.82z"/>
	</g>
	<g>
		<path fill="#B5E2EB" d="M4.046,67.695c0.704,0,1.389-0.366,1.766-1.021c0.184-0.318,0.272-0.67,0.272-1.016
			c0-0.703-0.364-1.389-1.018-1.766c-0.321-0.187-0.672-0.273-1.019-0.273c-0.703,0-1.39,0.365-1.766,1.018v0.002
			c-0.184,0.319-0.272,0.67-0.272,1.016c-0.001,0.705,0.365,1.39,1.02,1.769l0,0C3.349,67.607,3.7,67.695,4.046,67.695z"/>
		<path fill="#B5E2EB" d="M2.38,65.654c0-0.282,0.072-0.566,0.222-0.83v-0.002v0.002c0.309-0.535,0.868-0.834,1.445-0.834
			c0.284,0,0.571,0.072,0.834,0.225c0.535,0.309,0.833,0.868,0.833,1.444c0,0.282-0.071,0.567-0.223,0.831
			c-0.309,0.535-0.869,0.835-1.445,0.835c-0.283,0-0.568-0.072-0.833-0.224l0,0C2.678,66.792,2.38,66.232,2.38,65.654z"/>
	</g>
	<g>
		<path fill="#B5E2EB" d="M37.271,50.003c0-0.344-0.088-0.696-0.273-1.017l0,0c-0.378-0.653-1.062-1.021-1.767-1.021
			c-0.347,0-0.696,0.089-1.017,0.273c-0.654,0.378-1.018,1.062-1.018,1.767c0,0.346,0.088,0.697,0.272,1.02
			c0.377,0.651,1.062,1.02,1.766,1.02c0.346,0,0.698-0.09,1.018-0.275H36.25C36.904,51.393,37.271,50.707,37.271,50.003z"/>
		<path fill="#B5E2EB" d="M36.066,51.447L36.066,51.447c-0.265,0.154-0.551,0.227-0.833,0.227c-0.576-0.001-1.136-0.3-1.444-0.835
			c-0.152-0.263-0.223-0.55-0.223-0.832c0-0.577,0.298-1.137,0.833-1.446c0.263-0.15,0.549-0.224,0.831-0.224
			c0.577,0,1.137,0.299,1.446,0.835l0.16-0.092l-0.16,0.093c0.151,0.263,0.223,0.548,0.223,0.83
			C36.898,50.581,36.602,51.143,36.066,51.447z"/>
	</g>
	<polygon fill="#B5E2EB" points="23.844,54.547 23.844,54.547 23.845,54.546 	"/>
	<g>
		<path fill="#B5E2EB" d="M26.628,53.799c-0.322-0.186-0.673-0.273-1.019-0.273c-0.703,0-1.389,0.367-1.765,1.021
			c-0.184,0.319-0.274,0.671-0.274,1.018c0,0.703,0.367,1.388,1.021,1.764H24.59c0.321,0.188,0.672,0.275,1.018,0.275
			c0.704,0,1.388-0.367,1.765-1.021c0.185-0.319,0.273-0.673,0.273-1.017C27.647,54.861,27.282,54.177,26.628,53.799z"/>
		<path fill="#B5E2EB" d="M27.053,56.398c-0.308,0.535-0.868,0.832-1.444,0.834c-0.283,0-0.568-0.072-0.832-0.227l0,0
			c-0.536-0.308-0.835-0.865-0.835-1.441c0-0.283,0.072-0.569,0.225-0.834v-0.002c0.308-0.533,0.866-0.834,1.443-0.834
			c0.283,0,0.57,0.072,0.833,0.226c0.535,0.31,0.834,0.868,0.834,1.446C27.277,55.85,27.205,56.135,27.053,56.398z"/>
	</g>
	<g>
		<path fill="#B5E2EB" d="M14.788,49.234c0,0.346,0.088,0.697,0.273,1.019c0.377,0.654,1.063,1.021,1.767,1.019
			c0.345,0.002,0.696-0.088,1.016-0.271c0.652-0.378,1.019-1.062,1.019-1.768c0-0.346-0.088-0.695-0.273-1.018l0,0
			c-0.377-0.654-1.063-1.021-1.766-1.021c-0.346,0-0.697,0.09-1.017,0.274C15.154,47.848,14.788,48.529,14.788,49.234z"/>
		<path fill="#B5E2EB" d="M15.993,47.789c0.262-0.15,0.548-0.225,0.831-0.225c0.577,0,1.137,0.3,1.445,0.836l0.16-0.094l-0.16,0.094
			c0.152,0.264,0.223,0.549,0.224,0.832c-0.001,0.576-0.299,1.137-0.834,1.445c-0.262,0.152-0.548,0.223-0.83,0.223
			c-0.577,0-1.138-0.297-1.446-0.834c-0.152-0.262-0.223-0.551-0.224-0.832C15.159,48.659,15.458,48.1,15.993,47.789z"/>
	</g>
	<g>
		<path fill="#B5E2EB" d="M5.957,52.564c-0.652,0.377-1.018,1.062-1.018,1.767c0,0.345,0.088,0.696,0.273,1.019
			c0.377,0.651,1.062,1.019,1.765,1.019c0.346,0,0.697-0.089,1.019-0.274l0,0c0.653-0.377,1.018-1.061,1.018-1.766
			c0-0.346-0.088-0.695-0.273-1.018c-0.377-0.652-1.062-1.021-1.766-1.021C6.629,52.289,6.276,52.379,5.957,52.564z"/>
		<path fill="#B5E2EB" d="M8.419,53.497c0.152,0.263,0.224,0.548,0.224,0.83c0,0.577-0.299,1.137-0.833,1.444H7.809
			c-0.263,0.152-0.549,0.226-0.833,0.226C6.4,55.996,5.84,55.698,5.532,55.163C5.38,54.9,5.31,54.613,5.309,54.331
			c0.001-0.577,0.3-1.138,0.834-1.446c0.263-0.15,0.548-0.225,0.832-0.225C7.551,52.66,8.111,52.96,8.419,53.497z"/>
	</g>
	<g>
		<path fill="#B5E2EB" d="M13.802,61.216c0,0.347,0.088,0.696,0.273,1.019c0.377,0.652,1.063,1.021,1.766,1.02
			c0.345,0.001,0.697-0.088,1.018-0.273c0.652-0.377,1.018-1.062,1.018-1.768c0-0.345-0.088-0.695-0.274-1.018
			c-0.376-0.651-1.062-1.02-1.767-1.018c-0.345-0.002-0.696,0.088-1.016,0.272C14.167,59.827,13.802,60.512,13.802,61.216z"/>
		<path fill="#B5E2EB" d="M15.006,59.771c0.262-0.151,0.548-0.224,0.83-0.224c0.576,0,1.138,0.3,1.446,0.833
			c0.152,0.264,0.223,0.549,0.224,0.831c-0.001,0.577-0.3,1.138-0.834,1.446c-0.262,0.152-0.548,0.224-0.832,0.224
			c-0.576,0-1.137-0.3-1.445-0.834c-0.152-0.264-0.224-0.549-0.224-0.832C14.172,60.641,14.471,60.079,15.006,59.771z"/>
	</g>
	<g>
		<path fill="#B5E2EB" d="M33.288,61.523c0.378,0.652,1.064,1.021,1.768,1.018c0.345,0.003,0.696-0.088,1.017-0.271l0,0
			c0.653-0.379,1.02-1.062,1.02-1.769c0-0.344-0.088-0.694-0.272-1.017c-0.377-0.652-1.062-1.021-1.767-1.021
			c-0.346,0-0.696,0.088-1.017,0.272h0.001c-0.655,0.379-1.022,1.062-1.022,1.768C33.014,60.852,33.102,61.202,33.288,61.523z"/>
		<path fill="#B5E2EB" d="M34.22,59.059L34.22,59.059c0.265-0.149,0.551-0.224,0.832-0.224c0.576,0,1.138,0.299,1.445,0.836
			c0.151,0.263,0.224,0.548,0.224,0.83c0,0.578-0.298,1.138-0.832,1.447l0,0c-0.265,0.151-0.551,0.224-0.833,0.224
			c-0.576,0-1.137-0.3-1.447-0.835c-0.151-0.263-0.224-0.549-0.224-0.832C33.385,59.93,33.684,59.368,34.22,59.059z"/>
	</g>
	<g>
		<circle fill="#B5E2EB" cx="45.746" cy="54.329" r="2.038"/>
		<path fill="#B5E2EB" d="M45.746,52.663c0.92,0.002,1.664,0.747,1.667,1.667c-0.003,0.919-0.747,1.665-1.667,1.666
			c-0.92-0.001-1.666-0.747-1.668-1.666C44.08,53.41,44.826,52.665,45.746,52.663z"/>
	</g>
	<g>
		<path fill="#B5E2EB" d="M6.271,45.035c0.345,0,0.697-0.088,1.016-0.273h0.001c0.652-0.378,1.019-1.062,1.019-1.766
			c0-0.348-0.088-0.696-0.274-1.02c-0.377-0.651-1.062-1.019-1.766-1.019c-0.346,0-0.696,0.088-1.016,0.274
			C4.597,41.609,4.232,42.296,4.232,43c0,0.346,0.088,0.695,0.272,1.016C4.882,44.67,5.568,45.035,6.271,45.035z"/>
		<path fill="#B5E2EB" d="M4.826,43.83C4.674,43.566,4.602,43.281,4.602,43c0-0.577,0.298-1.139,0.834-1.445
			c0.262-0.152,0.548-0.226,0.83-0.226c0.576,0,1.137,0.301,1.446,0.834c0.152,0.264,0.223,0.55,0.224,0.833
			c-0.001,0.576-0.3,1.136-0.834,1.445l0,0c-0.262,0.15-0.548,0.223-0.831,0.224C5.694,44.664,5.134,44.366,4.826,43.83z"/>
	</g>
</g>
</svg>
