<?xml version="1.0" encoding="utf-8"?>
<!-- Generator: Adobe Illustrator 16.0.0, SVG Export Plug-In . SVG Version: 6.00 Build 0)  -->
<!DOCTYPE svg PUBLIC "-//W3C//DTD SVG 1.1//EN" "http://www.w3.org/Graphics/SVG/1.1/DTD/svg11.dtd">
<svg version="1.1"
	 id="svg4619" xmlns:rdf="http://www.w3.org/1999/02/22-rdf-syntax-ns#" xmlns:dc="http://purl.org/dc/elements/1.1/" xmlns:svg="http://www.w3.org/2000/svg" xmlns:inkscape="http://www.inkscape.org/namespaces/inkscape" xmlns:sodipodi="http://sodipodi.sourceforge.net/DTD/sodipodi-0.dtd" xmlns:cc="http://creativecommons.org/ns#" sodipodi:docname="square-stroked-18.svg" inkscape:version="0.48.2 r9819"
	 xmlns="http://www.w3.org/2000/svg" xmlns:xlink="http://www.w3.org/1999/xlink" x="0px" y="0px" width="18px" height="18px"
	 viewBox="0 0 18 18" enable-background="new 0 0 18 18" xml:space="preserve">
<sodipodi:namedview  showguides="true" borderopacity="1.0" inkscape:cx="5.9619453" pagecolor="#ffffff" bordercolor="#666666" inkscape:cy="9.448034" showgrid="true" inkscape:zoom="16" id="base" inkscape:current-layer="layer1" inkscape:document-units="px" inkscape:window-maximized="0" inkscape:window-y="40" inkscape:pageopacity="0.0" inkscape:window-x="76" inkscape:object-paths="true" inkscape:window-width="1008" inkscape:snap-bbox="true" inkscape:window-height="662" inkscape:snap-nodes="false" inkscape:guide-bbox="true" inkscape:pageshadow="2">
	<inkscape:grid  empspacing="5" visible="true" enabled="true" id="grid4627" type="xygrid" snapvisiblegridlinesonly="true">
		</inkscape:grid>
	<sodipodi:guide  position="7,18" orientation="0,1" id="guide4659"></sodipodi:guide>
	<sodipodi:guide  position="18,9" orientation="1,0" id="guide4661"></sodipodi:guide>
	<sodipodi:guide  position="16,17" orientation="0,1" id="guide4663"></sodipodi:guide>
	<sodipodi:guide  position="17,14" orientation="1,0" id="guide4665"></sodipodi:guide>
	<sodipodi:guide  position="0,16" orientation="1,0" id="guide4667"></sodipodi:guide>
	<sodipodi:guide  position="8,0" orientation="0,1" id="guide4669"></sodipodi:guide>
	<sodipodi:guide  position="2,10" orientation="1,0" id="guide4671"></sodipodi:guide>
	<sodipodi:guide  position="12,2" orientation="0,1" id="guide4673"></sodipodi:guide>
</sodipodi:namedview>
<path opacity="0.6" fill="#D6D6D6" d="M9,17.82c-4.864,0-8.821-3.957-8.821-8.82c0-4.864,3.957-8.821,8.821-8.821
	c4.863,0,8.82,3.957,8.82,8.821C17.82,13.863,13.863,17.82,9,17.82z"/>
<circle fill="#FFFFFF" cx="9" cy="9" r="8.101"/>
<path fill="#1A3762" d="M9,15.584c-3.63,0-6.584-2.954-6.584-6.584C2.416,5.37,5.37,2.416,9,2.416c3.63,0,6.584,2.954,6.584,6.584
	C15.584,12.63,12.63,15.584,9,15.584z"/>
<path fill="#3050A4" d="M9,14.091c-2.807,0-5.09-2.284-5.09-5.091S6.193,3.91,9,3.91S14.091,6.193,14.091,9S11.807,14.091,9,14.091z
	"/>
</svg>
