<?xml version="1.0" encoding="utf-8"?>
<!-- Generator: Adobe Illustrator 16.0.0, SVG Export Plug-In . SVG Version: 6.00 Build 0)  -->
<!DOCTYPE svg PUBLIC "-//W3C//DTD SVG 1.1//EN" "http://www.w3.org/Graphics/SVG/1.1/DTD/svg11.dtd">
<svg version="1.1" id="Layer_4" xmlns="http://www.w3.org/2000/svg" xmlns:xlink="http://www.w3.org/1999/xlink" x="0px" y="0px"
	 width="28px" height="28px" viewBox="0 0 28 28" enable-background="new 0 0 28 28" xml:space="preserve">
<g>
	<path fill="#999999" d="M22.613,22.215l-0.51,0.564H5.039V5.221h17.025l0.549,0.571l4.097,4.097V3.021
		c0-1.047-0.849-1.896-1.896-1.896H2.838c-1.047,0-1.896,0.849-1.896,1.896v21.959c0,1.049,0.849,1.896,1.896,1.896h21.975
		c1.048,0,1.896-0.848,1.896-1.896v-6.864L22.613,22.215z"/>
	<polygon fill="#999999" points="20.391,7.193 20.391,6.953 27.677,13.994 20.391,21.046 20.391,20.811 	"/>
</g>
<rect x="13.825" y="10.713" fill="#999999" width="6.565" height="6.573"/>
</svg>
