<?xml version="1.0" encoding="utf-8"?>
<!-- Generator: Adobe Illustrator 16.0.0, SVG Export Plug-In . SVG Version: 6.00 Build 0)  -->
<!DOCTYPE svg PUBLIC "-//W3C//DTD SVG 1.1//EN" "http://www.w3.org/Graphics/SVG/1.1/DTD/svg11.dtd">
<svg version="1.1" id="Layer_1" xmlns="http://www.w3.org/2000/svg" xmlns:xlink="http://www.w3.org/1999/xlink" x="0px" y="0px"
	 width="204px" height="76px" viewBox="0 0 204 76" enable-background="new 0 0 204 76" xml:space="preserve">
<path fill="#EEF4DE" d="M60.64,0.662h0.002L21.949,0.643l-0.021,0.029L2.52,34.197h38.617L60.64,0.662z M28.396,28.151h-5.905
	l10.184-17.579L22.53,10.578l2.357-4.146h25.644l-2.303,4.141l-9.812,0.005L28.396,28.151z"/>
<polygon fill="#EEF4DE" points="64.051,2.424 64.026,2.382 64.022,2.387 44.456,36.022 63.824,69.588 83.287,35.906 83.3,35.887 "/>
<path fill="#EEF4DE" d="M60.035,70.564l-6.437-11.141l-12.34-21.408H3.433H2.86H2.417l19.221,33.447h0.093l38.669,0.023h0.168
	L60.035,70.564z"/>
<g>
	<g>
		<path fill="#919396" d="M98.622,55.81H92.56V35.505h6.353c5.802,0,10.095,2.727,10.095,10.152
			C109.007,52.793,103.844,55.81,98.622,55.81z M98.768,39.449h-2.146v12.415h2.001c4.265,0,6.208-2.494,6.208-6.207
			C104.83,41.509,103.061,39.449,98.768,39.449z"/>
		<path fill="#919396" d="M113.354,55.81V35.505h14.098v3.974h-10.036v3.51h5.83v3.945h-5.83v4.902h10.472v3.974H113.354z"/>
		<path fill="#919396" d="M138.993,56.129c-3.395,0-6.353-1.422-7.891-3.685l2.93-2.61c1.422,1.653,3.249,2.32,5.192,2.32
			c2.408,0,3.539-0.667,3.539-2.204c0-1.306-0.696-1.886-4.525-2.756c-3.741-0.87-6.353-2.06-6.353-6.062
			c0-3.684,3.249-5.946,7.252-5.946c3.162,0,5.482,1.189,7.396,3.19l-2.93,2.843c-1.305-1.334-2.755-2.088-4.611-2.088
			c-2.176,0-2.901,0.928-2.901,1.827c0,1.276,0.87,1.683,4.09,2.437c3.221,0.754,6.788,1.856,6.788,6.266
			C146.97,53.518,144.533,56.129,138.993,56.129z"/>
		<path fill="#919396" d="M151.839,55.81V35.505h4.062V55.81H151.839z"/>
		<path fill="#919396" d="M169.502,56.129c-5.308,0-8.876-4.062-8.876-10.472c0-6.179,3.713-10.472,9.021-10.472
			c4.147,0,6.353,1.943,7.687,5.076l-3.857,1.596c-0.755-1.509-1.683-2.64-3.887-2.64c-3.046,0-4.786,2.669-4.786,6.439
			c0,3.742,1.769,6.497,4.814,6.497c2.785,0,3.742-1.305,3.975-3.074h-3.22v-3.8h7.28v2.668
			C177.653,53.17,174.201,56.129,169.502,56.129z"/>
		<path fill="#919396" d="M195.055,55.81L187.6,44.729c-0.493-0.754-1.16-1.769-1.421-2.291c0,0.754,0.058,3.307,0.058,4.438v8.935
			h-4.003V35.505h3.888l7.193,10.732c0.493,0.754,1.16,1.77,1.421,2.292c0-0.755-0.058-3.308-0.058-4.438v-8.586h4.003V55.81
			H195.055z"/>
	</g>
</g>
</svg>
