<?xml version="1.0" encoding="utf-8"?>
<!-- Generator: Adobe Illustrator 16.0.0, SVG Export Plug-In . SVG Version: 6.00 Build 0)  -->
<!DOCTYPE svg PUBLIC "-//W3C//DTD SVG 1.1//EN" "http://www.w3.org/Graphics/SVG/1.1/DTD/svg11.dtd">
<svg version="1.1" id="Layer_1" xmlns="http://www.w3.org/2000/svg" xmlns:xlink="http://www.w3.org/1999/xlink" x="0px" y="0px"
	 width="30.1px" height="28px" viewBox="0 0 30.1 28" enable-background="new 0 0 30.1 28" xml:space="preserve">
<path fill="#CCCCCC" d="M1.103,4.464c-0.605,0-1.1-0.493-1.1-1.1v-2.3c0-0.606,0.493-1.1,1.1-1.1h27.894c0.606,0,1.1,0.494,1.1,1.1
	v2.3c0,0.606-0.492,1.1-1.1,1.1H1.103z"/>
<path fill="#CCCCCC" d="M1.103,16.464c-0.605,0-1.1-0.493-1.1-1.1v-2.3c0-0.606,0.493-1.101,1.1-1.101h27.894
	c0.606,0,1.1,0.494,1.1,1.101v2.3c0,0.606-0.492,1.1-1.1,1.1H1.103z"/>
<path fill="#CCCCCC" d="M1.103,27.962c-0.605,0-1.1-0.494-1.1-1.101v-2.301c0-0.604,0.493-1.1,1.1-1.1h27.894
	c0.606,0,1.1,0.494,1.1,1.1v2.301c0,0.605-0.492,1.101-1.1,1.101H1.103z"/>
</svg>
