<?xml version="1.0" encoding="utf-8"?>
<!-- Generator: Adobe Illustrator 16.0.0, SVG Export Plug-In . SVG Version: 6.00 Build 0)  -->
<!DOCTYPE svg PUBLIC "-//W3C//DTD SVG 1.1//EN" "http://www.w3.org/Graphics/SVG/1.1/DTD/svg11.dtd">
<svg version="1.1" id="Layer_1" xmlns="http://www.w3.org/2000/svg" xmlns:xlink="http://www.w3.org/1999/xlink" x="0px" y="0px"
	 width="200px" height="200px" viewBox="128.068 -70.528 200 200" enable-background="new 128.068 -70.528 200 200"
	 xml:space="preserve">
<rect x="128.068" y="-70.528" fill="#FBFDF0" width="200" height="200"/>
<g>
	<g>
		<path fill="#B8B8B8" d="M194.671,31.868c-1.426,0-2.399-0.605-3.198-1.513v6.912l-1.62-1.467V20.288h1.621v1.383
			c0.799-0.865,1.88-1.621,3.413-1.621c2.269,0,4.062,1.729,4.062,5.726C198.949,29.794,197.048,31.868,194.671,31.868z
			 M194.476,21.455c-1.21,0-2.204,0.648-3.003,1.642v5.66c0.626,0.95,1.728,1.707,3.068,1.707c1.88,0,2.808-1.621,2.808-4.667
			C197.349,22.945,196.269,21.455,194.476,21.455z"/>
		<path fill="#B8B8B8" d="M208.972,31.631v-1.383c-0.648,0.951-1.707,1.621-3.133,1.621c-2.398,0-3.976-1.405-3.976-4.668v-6.914
			h1.62v6.634c0,2.44,0.864,3.543,2.68,3.543c1.577,0,2.809-1.059,2.809-3.543v-6.634h1.62v11.344H208.972L208.972,31.631z"/>
		<path fill="#B8B8B8" d="M224.18,31.868c-1.426,0-2.397-0.605-3.197-1.513v1.275h-1.62V16.788l1.62,1.467v3.416
			c0.8-0.864,1.88-1.621,3.413-1.621c2.269,0,4.062,1.729,4.062,5.726C228.459,29.794,226.557,31.868,224.18,31.868z
			 M223.986,21.455c-1.21,0-2.203,0.648-3.003,1.642v5.66c0.626,0.95,1.729,1.707,3.068,1.707c1.88,0,2.809-1.621,2.809-4.667
			C226.86,22.945,225.78,21.455,223.986,21.455z"/>
		<path fill="#B8B8B8" d="M236.969,31.631V20.287l1.62,0.95v10.394H236.969L236.969,31.631z"/>
		<path fill="#B8B8B8" d="M250.601,31.868c-1.556,0-2.917-0.583-3.997-1.447l0.951-1.188c0.907,0.8,1.966,1.254,3.089,1.254
			c1.556,0,2.29-0.648,2.29-1.75c0-0.93-0.67-1.448-2.68-2.312c-2.268-0.973-3.219-1.664-3.219-3.479
			c0-1.729,1.491-2.896,3.544-2.896c1.555,0,2.765,0.498,3.629,1.21l-0.907,1.188c-0.886-0.691-1.62-1.015-2.83-1.015
			c-1.188,0-1.88,0.583-1.88,1.404c0,0.95,0.584,1.339,2.506,2.204c2.14,0.973,3.393,1.599,3.393,3.629
			C254.49,30.897,252.567,31.868,250.601,31.868z"/>
		<g>
			<path fill="#B8B8B8" d="M262.302,20.05c-1.427,0-2.35,0.67-3.142,1.621v-3.417l-1.582-1.467V31.79h1.582v-6.792
				c0-2.484,1.26-3.543,2.836-3.543c1.814,0,2.705,1.102,2.705,3.543v6.792h-0.028l1.611,1.312v-8.385
				C266.285,21.455,264.7,20.05,262.302,20.05z"/>
		</g>
	</g>
	<g>
		<polygon fill="#D7E4A1" points="241.749,32.12 243.384,33.054 243.377,31.165 243.377,31.164 241.749,30.23 241.749,30.231 		"/>
	</g>
	<g>
		<polygon fill="#D7E4A1" points="214.242,32.12 215.877,33.054 215.87,31.165 215.87,31.164 214.242,30.23 214.242,30.231 		"/>
	</g>
	<g>
		<polygon fill="#D7E4A1" points="236.974,18.665 238.608,19.598 238.601,17.71 238.601,17.709 236.974,16.775 236.974,16.775 		"/>
	</g>
	<g>
		<polygon fill="#B8B8B8" points="231.459,17.359 231.459,31.79 231.553,31.79 233.042,31.79 233.042,18.263 231.531,17.4 		"/>
	</g>
</g>
</svg>
