<?xml version="1.0" encoding="utf-8"?>
<!-- Generator: Adobe Illustrator 16.0.0, SVG Export Plug-In . SVG Version: 6.00 Build 0)  -->
<!DOCTYPE svg PUBLIC "-//W3C//DTD SVG 1.1//EN" "http://www.w3.org/Graphics/SVG/1.1/DTD/svg11.dtd">
<svg version="1.1" id="Layer_1" xmlns="http://www.w3.org/2000/svg" xmlns:xlink="http://www.w3.org/1999/xlink" x="0px" y="0px"
	 width="256.126px" height="51.943px" viewBox="-62.99 0 256.126 51.943" enable-background="new -62.99 0 256.126 51.943"
	 xml:space="preserve">
<g>
	<path fill="#CCCCCC" d="M86.745,38.141c-3.604,0-6.061-1.529-8.081-3.822v3.222h-4.095V0.033l4.095,3.707v8.631
		c2.021-2.185,4.75-4.096,8.626-4.096c5.732,0,10.265,4.368,10.265,14.469C97.555,32.9,92.75,38.141,86.745,38.141z M86.253,11.826
		c-3.057,0-5.568,1.638-7.589,4.148v14.304c1.583,2.402,4.368,4.313,7.753,4.313c4.75,0,7.098-4.095,7.098-11.792
		C93.514,15.593,90.785,11.826,86.253,11.826z"/>
	<path fill="#CCCCCC" d="M119.061,37.541V8.877l4.094,2.399V37.54L119.061,37.541L119.061,37.541z"/>
	<path fill="#CCCCCC" d="M153.506,38.141c-3.931,0-7.369-1.474-10.1-3.658l2.402-3.002c2.293,2.021,4.968,3.167,7.807,3.167
		c3.931,0,5.787-1.638,5.787-4.422c0-2.348-1.692-3.658-6.771-5.842c-5.731-2.457-8.135-4.204-8.135-8.79
		c0-4.368,3.768-7.316,8.954-7.316c3.931,0,6.988,1.257,9.172,3.059l-2.293,3.003c-2.238-1.747-4.095-2.566-7.151-2.566
		c-3.003,0-4.75,1.475-4.75,3.549c0,2.402,1.474,3.386,6.332,5.569c5.405,2.457,8.572,4.04,8.572,9.172
		C163.334,35.684,158.475,38.141,153.506,38.141z"/>
	<g>
		<path fill="#CCCCCC" d="M183.071,8.277c-3.604,0-5.937,1.693-7.937,4.096V3.74l-4-3.707v37.91h4V20.78
			c0-6.278,3.18-8.953,7.164-8.953c4.586,0,6.836,2.784,6.836,8.953v17.165h-0.072l4.072,3.312V20.07
			C193.136,11.826,189.132,8.277,183.071,8.277z"/>
	</g>
</g>
<g>
	<polygon fill="#F0F5DC" points="131.137,38.777 131.382,38.917 135.266,41.136 135.266,40.986 135.249,36.365 135.249,36.361 
		134.498,35.931 133.103,35.132 133.065,35.11 133.066,35.106 133.068,35.104 131.475,34.194 131.136,34 131.136,34.001 
		131.137,38.518 	"/>
</g>
<g>
	<polygon fill="#F0F5DC" points="61.631,38.777 61.876,38.917 65.761,41.136 65.761,40.986 65.743,36.365 65.743,36.361 
		64.992,35.931 63.598,35.132 63.56,35.11 63.561,35.106 63.562,35.104 61.969,34.194 61.63,34 61.63,34.001 61.631,38.518 	"/>
</g>
<g>
	<polygon fill="#F0F5DC" points="119.072,4.777 119.317,4.917 123.201,7.136 123.201,6.986 123.184,2.365 123.184,2.361 
		122.433,1.931 121.038,1.132 121,1.11 121.001,1.106 121.003,1.104 119.41,0.194 119.071,0 119.071,0.001 119.072,4.518 	"/>
</g>
<g>
	<polygon fill="#CCCCCC" points="105.136,1.476 105.136,37.944 105.375,37.944 109.136,37.944 109.136,3.761 105.317,1.579 	"/>
</g>
<g>
	<path fill="#CCCCCC" d="M-53.587,37.708c-3.659,0-6.861-1.373-9.403-3.406l2.236-2.795c2.135,1.881,4.625,2.948,7.269,2.948
		c3.659,0,5.387-1.525,5.387-4.117c0-2.186-1.575-3.405-6.302-5.438c-5.337-2.287-7.573-3.914-7.573-8.183
		c0-4.066,3.507-6.811,8.335-6.811c3.66,0,6.506,1.169,8.539,2.846l-2.135,2.795c-2.084-1.626-3.812-2.389-6.658-2.389
		c-2.795,0-4.422,1.372-4.422,3.304c0,2.236,1.372,3.151,5.896,5.184c5.032,2.288,7.979,3.761,7.979,8.539
		C-44.438,35.42-48.962,37.708-53.587,37.708z"/>
	<path fill="#CCCCCC" d="M-29.343,3.705c-1.576,0-2.745,0.559-2.745,2.795v3.965h5.235v3.202h-5.235v23.481H-35.9V13.667h-3.66
		v-3.202h3.66v-3.66c0-4.778,2.592-6.557,6.303-6.557c1.525,0,2.439,0.152,3.354,0.458v3.608
		C-27.107,3.908-28.123,3.705-29.343,3.705z"/>
	<path fill="#CCCCCC" d="M-4.219,37.149v-3.253c-1.524,2.236-4.015,3.812-7.37,3.812c-5.642,0-9.353-3.305-9.353-10.979V10.465
		h3.812v15.604c0,5.743,2.033,8.334,6.302,8.334c3.71,0,6.607-2.49,6.607-8.334V10.465h3.812v26.684H-4.219z"/>
	<path fill="#CCCCCC" d="M15.4,37.708c-3.659,0-6.861-1.373-9.403-3.406l2.236-2.795c2.135,1.881,4.625,2.948,7.269,2.948
		c3.659,0,5.387-1.525,5.387-4.117c0-2.186-1.575-3.405-6.302-5.438c-5.337-2.287-7.573-3.914-7.573-8.183
		c0-4.066,3.507-6.811,8.335-6.811c3.66,0,6.506,1.169,8.539,2.846l-2.135,2.795c-2.084-1.626-3.812-2.389-6.658-2.389
		c-2.795,0-4.422,1.372-4.422,3.304c0,2.236,1.372,3.151,5.896,5.184c5.032,2.288,7.979,3.761,7.979,8.539
		C24.549,35.42,20.026,37.708,15.4,37.708z"/>
	<path fill="#CCCCCC" d="M47.421,37.149v-3.253c-1.881,2.033-4.422,3.812-8.031,3.812c-5.337,0-9.556-4.066-9.556-13.469
		c0-9.454,4.473-14.333,10.064-14.333c3.354,0,5.642,1.423,7.522,3.558V2.231l3.812-2.135v37.052H47.421z M47.421,17.225
		c-1.474-2.236-4.066-4.015-7.218-4.015c-4.422,0-6.607,3.812-6.607,10.979c0,6.708,2.542,10.215,6.76,10.215
		c2.846,0,5.184-1.524,7.065-3.862V17.225z"/>
</g>
</svg>
