<?xml version="1.0" encoding="utf-8"?>
<!-- Generator: Adobe Illustrator 16.0.0, SVG Export Plug-In . SVG Version: 6.00 Build 0)  -->
<!DOCTYPE svg PUBLIC "-//W3C//DTD SVG 1.1//EN" "http://www.w3.org/Graphics/SVG/1.1/DTD/svg11.dtd">
<svg version="1.1" id="info_x5F_0" xmlns="http://www.w3.org/2000/svg" xmlns:xlink="http://www.w3.org/1999/xlink" x="0px" y="0px"
	 width="300px" height="300px" viewBox="0 0 300 300" enable-background="new 0 0 300 300" xml:space="preserve">
<rect fill="none" width="300" height="300"/>
<g>
	<path fill="#C4B295" d="M242.643,165.73c0.107,0,0.213-0.045,0.295-0.116c0.07-0.083,0.117-0.188,0.117-0.294
		s-0.047-0.211-0.117-0.293c-0.164-0.154-0.443-0.141-0.586,0c-0.068,0.082-0.117,0.188-0.117,0.293s0.049,0.211,0.117,0.294
		C242.434,165.686,242.539,165.73,242.643,165.73z"/>
	<path fill="#C4B295" d="M242.643,167.669c-0.067,0.081-0.115,0.188-0.115,0.293s0.048,0.21,0.115,0.293
		c0.084,0.071,0.19,0.117,0.295,0.117c0.107,0,0.211-0.046,0.293-0.117c0.072-0.083,0.119-0.188,0.119-0.293
		s-0.047-0.211-0.119-0.293C243.068,167.516,242.786,167.516,242.643,167.669z"/>
	<path fill="#C4B295" d="M237.07,168.372c0.104,0,0.213-0.046,0.291-0.117c0.072-0.083,0.119-0.188,0.119-0.293
		s-0.047-0.211-0.119-0.293c-0.162-0.153-0.443-0.142-0.584,0c-0.07,0.081-0.117,0.188-0.117,0.293s0.047,0.21,0.117,0.293
		C236.857,168.326,236.965,168.372,237.07,168.372z"/>
	<path fill="#C4B295" d="M246.164,179.404c0.072-0.084,0.118-0.189,0.118-0.295c0-0.104-0.046-0.211-0.13-0.293
		c-0.15-0.152-0.422-0.152-0.576,0c-0.07,0.082-0.115,0.188-0.115,0.293c0,0.106,0.045,0.211,0.115,0.295
		c0.084,0.07,0.188,0.117,0.295,0.117S246.083,179.475,246.164,179.404z"/>
	<path fill="#C4B295" d="M235.309,183.51c-0.066,0.084-0.115,0.191-0.115,0.295c0,0.105,0.049,0.209,0.115,0.293
		c0.084,0.071,0.19,0.116,0.295,0.116c0.105,0,0.211-0.045,0.293-0.116c0.07-0.084,0.119-0.188,0.119-0.293
		c0-0.104-0.049-0.211-0.119-0.295C235.732,183.357,235.453,183.37,235.309,183.51z"/>
	<path fill="#C4B295" d="M247.044,187.617c0.083,0.072,0.187,0.117,0.294,0.117c0.105,0,0.213-0.045,0.293-0.117
		c0.072-0.083,0.118-0.188,0.118-0.292c0-0.108-0.046-0.214-0.118-0.296c-0.152-0.153-0.445-0.139-0.587,0
		c-0.069,0.082-0.116,0.188-0.116,0.296C246.928,187.43,246.975,187.534,247.044,187.617z"/>
	<path fill="#C4B295" d="M253.791,176.762c-0.163-0.152-0.443-0.152-0.586,0c-0.07,0.084-0.116,0.19-0.116,0.295
		s0.046,0.211,0.116,0.293c0.083,0.071,0.188,0.117,0.292,0.117c0.108,0,0.214-0.047,0.294-0.117
		c0.072-0.082,0.119-0.188,0.119-0.293S253.863,176.846,253.791,176.762z"/>
	<path fill="#C4B295" d="M239.99,174.123c-0.151-0.154-0.42-0.154-0.572,0c-0.07,0.082-0.118,0.188-0.118,0.293
		s0.048,0.21,0.118,0.293c0.081,0.07,0.188,0.117,0.293,0.117s0.211-0.047,0.292-0.117c0.071-0.083,0.118-0.188,0.118-0.293
		S240.074,174.205,239.99,174.123z"/>
	<path fill="#C4B295" d="M241.177,161.331c0.105,0,0.212-0.046,0.296-0.116c0.067-0.083,0.115-0.189,0.115-0.294
		s-0.048-0.211-0.115-0.293c-0.154-0.153-0.447-0.142-0.59,0c-0.068,0.082-0.115,0.188-0.115,0.293c0,0.106,0.047,0.211,0.115,0.294
		C240.965,161.286,241.073,161.331,241.177,161.331z"/>
	<path fill="#C4B295" d="M252.325,172.363c-0.07,0.082-0.117,0.188-0.117,0.293c0,0.104,0.047,0.211,0.117,0.293
		c0.082,0.072,0.188,0.117,0.293,0.117c0.108,0,0.213-0.045,0.294-0.117c0.072-0.082,0.117-0.189,0.117-0.293
		c0-0.105-0.045-0.211-0.117-0.293C252.758,172.209,252.477,172.209,252.325,172.363z"/>
	<path fill="#C4B295" d="M241.177,178.229c-0.069,0.084-0.116,0.19-0.116,0.295c0,0.105,0.047,0.211,0.116,0.293
		c0.081,0.07,0.191,0.117,0.296,0.117c0.105,0,0.209-0.047,0.291-0.117c0.071-0.082,0.118-0.187,0.118-0.293
		c0-0.117-0.047-0.224-0.118-0.295C241.6,178.077,241.318,178.089,241.177,178.229z"/>
	<path fill="#C4B295" d="M237.07,177.172c0.104,0,0.213-0.046,0.291-0.115c0.072-0.082,0.119-0.188,0.119-0.295
		c0-0.115-0.047-0.21-0.129-0.293c-0.152-0.152-0.426-0.141-0.574,0c-0.07,0.084-0.117,0.189-0.117,0.293
		c0,0.107,0.047,0.213,0.117,0.295C236.857,177.127,236.965,177.172,237.07,177.172z"/>
	<path fill="#C4B295" d="M244.697,184.098c0.082,0.071,0.188,0.116,0.293,0.116c0.117,0,0.213-0.045,0.294-0.116
		c0.071-0.084,0.118-0.188,0.118-0.293c0-0.104-0.047-0.211-0.131-0.295c-0.164-0.152-0.422-0.152-0.574,0
		c-0.07,0.084-0.117,0.191-0.117,0.295C244.58,183.91,244.627,184.014,244.697,184.098z"/>
	<path fill="#C4B295" d="M249.977,185.271c-0.067,0.082-0.115,0.188-0.115,0.293s0.048,0.211,0.115,0.295
		c0.084,0.067,0.188,0.115,0.295,0.115c0.105,0,0.211-0.048,0.293-0.115c0.072-0.084,0.117-0.19,0.117-0.295
		c0-0.105-0.045-0.211-0.117-0.293C250.412,185.119,250.119,185.13,249.977,185.271z"/>
	<path fill="#C4B295" d="M235.604,165.145c0.105,0,0.211-0.047,0.293-0.117c0.07-0.082,0.119-0.188,0.119-0.293
		c0-0.115-0.049-0.221-0.119-0.293c-0.164-0.152-0.442-0.141-0.571,0c-0.083,0.072-0.132,0.177-0.132,0.293
		c0,0.105,0.049,0.211,0.115,0.293C235.393,165.1,235.499,165.145,235.604,165.145z"/>
	<path fill="#C4B295" d="M235.016,172.186c0.108,0,0.213-0.047,0.293-0.117c0.073-0.082,0.121-0.188,0.121-0.293
		s-0.048-0.211-0.121-0.293c-0.162-0.153-0.445-0.141-0.586,0c-0.07,0.082-0.117,0.188-0.117,0.293c0,0.104,0.047,0.211,0.117,0.293
		C234.807,172.139,234.912,172.186,235.016,172.186z"/>
	<path fill="#C4B295" d="M237.361,187.325c-0.069,0.082-0.115,0.187-0.115,0.292s0.046,0.21,0.115,0.293
		c0.084,0.07,0.188,0.117,0.295,0.117c0.107,0,0.212-0.047,0.293-0.117c0.07-0.083,0.117-0.188,0.117-0.293s-0.047-0.21-0.129-0.292
		C237.785,187.171,237.516,187.171,237.361,187.325z"/>
	<path fill="#C4B295" d="M243.816,159.924c0.213,0,0.398-0.083,0.539-0.223c0.141-0.154,0.225-0.34,0.225-0.54
		s-0.084-0.4-0.225-0.54c-0.279-0.283-0.795-0.283-1.078,0c-0.145,0.141-0.227,0.34-0.227,0.54s0.082,0.386,0.227,0.54
		C243.417,159.841,243.605,159.924,243.816,159.924z"/>
	<path fill="#C4B295" d="M239.534,170.602c0,0.199,0.083,0.398,0.224,0.541c0.143,0.141,0.328,0.223,0.539,0.223
		c0.212,0,0.398-0.082,0.541-0.223c0.141-0.143,0.223-0.341,0.223-0.541c0-0.199-0.082-0.398-0.223-0.539
		c-0.281-0.283-0.788-0.293-1.08,0C239.617,170.203,239.534,170.402,239.534,170.602z"/>
	<path fill="#C4B295" d="M237.07,183.395c0.199,0,0.4-0.082,0.539-0.226c0.141-0.153,0.225-0.34,0.225-0.539
		c0-0.2-0.084-0.397-0.225-0.54c-0.279-0.283-0.799-0.283-1.08,0c-0.141,0.143-0.223,0.34-0.223,0.54s0.082,0.388,0.223,0.539
		C236.671,183.312,236.87,183.395,237.07,183.395z"/>
	<path fill="#C4B295" d="M240.59,186.621c0.212,0,0.4-0.084,0.54-0.225c0.142-0.143,0.224-0.342,0.224-0.539
		c0-0.199-0.082-0.399-0.224-0.539c-0.28-0.282-0.786-0.295-1.08,0c-0.142,0.14-0.222,0.34-0.222,0.539
		c0,0.197,0.08,0.396,0.222,0.539C240.193,186.537,240.379,186.621,240.59,186.621z"/>
	<path fill="#C4B295" d="M239.123,159.63c0.212,0,0.4-0.083,0.539-0.224c0.143-0.152,0.223-0.34,0.223-0.54
		c0-0.199-0.08-0.399-0.223-0.54c-0.293-0.293-0.809-0.282-1.078,0c-0.143,0.142-0.223,0.341-0.223,0.54
		c0,0.2,0.08,0.388,0.223,0.54C238.725,159.547,238.924,159.63,239.123,159.63z"/>
	<path fill="#C4B295" d="M246.164,174.886c0.212,0,0.398-0.083,0.54-0.223c0.14-0.142,0.224-0.339,0.224-0.54s-0.084-0.4-0.224-0.54
		c-0.281-0.281-0.797-0.281-1.08,0c-0.142,0.142-0.222,0.34-0.222,0.54s0.08,0.398,0.222,0.54
		C245.764,174.803,245.953,174.886,246.164,174.886z"/>
	<path fill="#C4B295" d="M249.73,180.622c-0.145,0.144-0.224,0.33-0.224,0.541c0,0.198,0.079,0.386,0.224,0.539
		c0.143,0.142,0.343,0.225,0.541,0.225c0.199,0,0.399-0.083,0.539-0.225c0.142-0.153,0.225-0.341,0.225-0.539
		c0-0.201-0.083-0.397-0.225-0.541C250.529,180.329,250.012,180.34,249.73,180.622z"/>
	<path fill="#C4B295" d="M248.218,190.964c0.106,0,0.212-0.046,0.292-0.118c0.072-0.082,0.119-0.187,0.119-0.291
		c0-0.105-0.047-0.212-0.119-0.296c-0.162-0.153-0.443-0.142-0.586,0c-0.068,0.084-0.115,0.191-0.115,0.296s0.047,0.209,0.115,0.291
		C248.007,190.918,248.113,190.964,248.218,190.964z"/>
	<path fill="#C4B295" d="M242.643,192.136c0.107,0,0.213-0.046,0.295-0.114c0.07-0.084,0.117-0.188,0.117-0.295
		c0-0.104-0.047-0.211-0.128-0.293c-0.153-0.154-0.424-0.154-0.575,0c-0.068,0.082-0.117,0.188-0.117,0.293
		c0,0.107,0.049,0.211,0.129,0.295C242.445,192.09,242.539,192.136,242.643,192.136z"/>
	<path fill="#C4B295" d="M239.077,190.893c-0.295-0.283-0.798-0.283-1.079,0c-0.143,0.142-0.227,0.338-0.227,0.539
		c0,0.199,0.084,0.387,0.227,0.541c0.141,0.139,0.34,0.223,0.539,0.223c0.197,0,0.4-0.084,0.54-0.223
		c0.14-0.154,0.223-0.342,0.223-0.541C239.3,191.23,239.217,191.033,239.077,190.893z"/>
	<path fill="#C4B295" d="M238.188,194.06c-0.106-0.013-0.217,0.021-0.306,0.081c-0.081,0.074-0.138,0.176-0.149,0.28
		c-0.013,0.104,0.021,0.214,0.082,0.304c0.146,0.172,0.425,0.19,0.582,0.066c0.078-0.074,0.139-0.173,0.15-0.277
		s-0.023-0.216-0.083-0.306C238.391,194.128,238.29,194.072,238.188,194.06z"/>
	<path fill="#C4B295" d="M238.408,192.133c0.076-0.072,0.135-0.174,0.146-0.277c0.014-0.104-0.022-0.215-0.08-0.304
		c-0.075-0.081-0.176-0.139-0.28-0.15c-0.104-0.013-0.214,0.022-0.303,0.083c-0.081,0.074-0.141,0.174-0.152,0.277
		c-0.013,0.104,0.021,0.215,0.086,0.305C237.968,192.237,238.247,192.27,238.408,192.133z"/>
	<path fill="#C4B295" d="M244.024,192.068c-0.103-0.01-0.217,0.021-0.304,0.084c-0.081,0.074-0.139,0.176-0.15,0.277
		c-0.012,0.104,0.022,0.216,0.085,0.305c0.143,0.172,0.423,0.191,0.58,0.066c0.079-0.073,0.137-0.174,0.149-0.277
		c0.012-0.104-0.022-0.214-0.082-0.304C244.23,192.139,244.13,192.082,244.024,192.068z"/>
	<path fill="#C4B295" d="M236.245,180.072c-0.08,0.074-0.138,0.176-0.149,0.28c-0.012,0.104,0.021,0.215,0.095,0.306
		c0.133,0.17,0.401,0.2,0.572,0.066c0.08-0.074,0.138-0.174,0.148-0.279c0.012-0.104-0.021-0.213-0.081-0.305
		c-0.076-0.08-0.172-0.139-0.278-0.15C236.444,179.977,236.334,180.013,236.245,180.072z"/>
	<path fill="#C4B295" d="M247.499,177.23c0.074-0.076,0.136-0.178,0.147-0.279c0.013-0.104-0.024-0.213-0.081-0.305
		c-0.075-0.08-0.176-0.138-0.28-0.149c-0.104-0.011-0.215,0.021-0.303,0.081c-0.08,0.076-0.141,0.175-0.153,0.278
		c-0.012,0.104,0.024,0.215,0.086,0.307C247.061,177.334,247.339,177.353,247.499,177.23z"/>
	<path fill="#C4B295" d="M236.307,171.812c-0.074-0.08-0.171-0.137-0.278-0.148c-0.104-0.013-0.215,0.021-0.303,0.082
		c-0.083,0.076-0.14,0.174-0.152,0.277c-0.012,0.107,0.021,0.219,0.085,0.308c0.133,0.169,0.426,0.188,0.582,0.066
		c0.079-0.073,0.137-0.173,0.149-0.28C236.4,172.014,236.367,171.904,236.307,171.812z"/>
	<path fill="#C4B295" d="M228.368,181.83c0.145,0.172,0.423,0.201,0.581,0.068c0.08-0.076,0.139-0.177,0.149-0.281
		c0.012-0.104-0.021-0.215-0.083-0.304c-0.073-0.081-0.172-0.139-0.275-0.15c-0.108-0.013-0.217,0.022-0.306,0.083
		c-0.082,0.072-0.139,0.174-0.151,0.278C228.271,181.627,228.306,181.739,228.368,181.83z"/>
	<path fill="#C4B295" d="M241.777,186.022c0.134,0.171,0.4,0.201,0.569,0.065c0.08-0.074,0.139-0.173,0.15-0.277
		c0.012-0.105-0.022-0.213-0.084-0.305c-0.071-0.078-0.173-0.137-0.277-0.149c-0.104-0.012-0.215,0.022-0.304,0.083
		c-0.079,0.074-0.139,0.174-0.15,0.277C241.67,185.822,241.704,185.932,241.777,186.022z"/>
	<path fill="#C4B295" d="M239.144,198.598c-0.105-0.012-0.217,0.021-0.308,0.082c-0.076,0.074-0.137,0.175-0.148,0.279
		c-0.012,0.102,0.022,0.215,0.081,0.303c0.136,0.171,0.429,0.191,0.586,0.067c0.078-0.073,0.137-0.175,0.148-0.277
		c0.013-0.106-0.023-0.216-0.081-0.306C239.348,198.666,239.246,198.609,239.144,198.598z"/>
	<path fill="#C4B295" d="M229.322,186.366c0.08-0.072,0.139-0.173,0.15-0.278c0.013-0.102-0.022-0.213-0.084-0.304
		c-0.071-0.081-0.173-0.138-0.276-0.149c-0.106-0.013-0.216,0.02-0.305,0.084c-0.082,0.072-0.14,0.174-0.149,0.277
		c-0.013,0.104,0.02,0.215,0.082,0.305C228.875,186.471,229.155,186.503,229.322,186.366z"/>
	<path fill="#C4B295" d="M241.067,181.81c0.078-0.077,0.137-0.176,0.148-0.28c0.013-0.105-0.022-0.215-0.082-0.304
		c-0.072-0.079-0.177-0.139-0.281-0.15c-0.104-0.012-0.213,0.021-0.302,0.084c-0.08,0.073-0.139,0.172-0.15,0.275
		c-0.013,0.118,0.021,0.228,0.084,0.308C240.629,181.911,240.91,181.933,241.067,181.81z"/>
	<path fill="#C4B295" d="M245.026,183.328c-0.104-0.013-0.217,0.019-0.303,0.08c-0.08,0.072-0.139,0.174-0.151,0.28
		c-0.014,0.114,0.023,0.214,0.096,0.306c0.134,0.168,0.406,0.188,0.569,0.063c0.08-0.075,0.139-0.174,0.149-0.275
		c0.013-0.108-0.021-0.219-0.083-0.308C245.232,183.396,245.132,183.339,245.026,183.328z"/>
	<path fill="#C4B295" d="M238.238,175.577c-0.073-0.08-0.174-0.136-0.277-0.147c-0.117-0.015-0.217,0.02-0.306,0.08
		c-0.081,0.076-0.14,0.175-0.151,0.278c-0.013,0.104,0.023,0.215,0.096,0.308c0.146,0.17,0.402,0.201,0.571,0.066
		c0.079-0.076,0.139-0.178,0.15-0.281C238.332,175.777,238.298,175.669,238.238,175.577z"/>
	<path fill="#C4B295" d="M233.126,173.812c0.076-0.075,0.138-0.174,0.149-0.28c0.011-0.104-0.024-0.214-0.082-0.305
		c-0.075-0.077-0.174-0.137-0.279-0.148c-0.105-0.014-0.216,0.022-0.304,0.081c-0.081,0.075-0.138,0.177-0.151,0.279
		c-0.011,0.105,0.021,0.215,0.083,0.306C232.676,173.912,232.968,173.934,233.126,173.812z"/>
	<path fill="#C4B295" d="M245.114,195.442c-0.104-0.012-0.215,0.023-0.304,0.084c-0.08,0.073-0.141,0.173-0.154,0.277
		c-0.012,0.114,0.024,0.226,0.086,0.304c0.146,0.17,0.424,0.19,0.567,0.064c0.091-0.061,0.151-0.159,0.165-0.275
		c0.012-0.104-0.024-0.214-0.081-0.303C245.318,195.512,245.218,195.455,245.114,195.442z"/>
	<path fill="#C4B295" d="M246.5,188.516c-0.108-0.013-0.216,0.021-0.305,0.082c-0.082,0.073-0.142,0.172-0.152,0.277
		c-0.014,0.104,0.021,0.215,0.085,0.305c0.146,0.172,0.427,0.191,0.583,0.067c0.078-0.074,0.138-0.174,0.15-0.278
		c0.012-0.104-0.023-0.215-0.083-0.307C246.702,188.586,246.603,188.526,246.5,188.516z"/>
	<path fill="#C4B295" d="M245.894,173.206c0.079-0.073,0.136-0.173,0.147-0.276c0.012-0.104-0.021-0.213-0.082-0.305
		c-0.073-0.08-0.172-0.138-0.279-0.15c-0.105-0.012-0.215,0.023-0.303,0.084c-0.082,0.073-0.14,0.174-0.152,0.277
		c-0.011,0.104,0.023,0.213,0.097,0.306C245.455,173.312,245.723,173.342,245.894,173.206z"/>
	<path fill="#C4B295" d="M236.359,199.695c-0.211-0.023-0.405,0.037-0.56,0.158c-0.158,0.138-0.262,0.312-0.285,0.512
		c-0.022,0.198,0.037,0.408,0.161,0.561c0.245,0.314,0.758,0.373,1.072,0.124c0.158-0.122,0.264-0.312,0.285-0.511
		c0.022-0.199-0.037-0.393-0.163-0.562C236.748,199.822,236.569,199.718,236.359,199.695z"/>
	<path fill="#C4B295" d="M241.831,189.574c0.021-0.199-0.037-0.406-0.16-0.564c-0.126-0.155-0.302-0.258-0.511-0.281
		c-0.212-0.024-0.406,0.036-0.562,0.16c-0.157,0.125-0.262,0.312-0.283,0.512c-0.023,0.197,0.035,0.405,0.16,0.561
		c0.247,0.312,0.749,0.381,1.072,0.123C241.703,189.961,241.809,189.771,241.831,189.574z"/>
	<path fill="#C4B295" d="M245.735,177.145c-0.198-0.023-0.407,0.035-0.562,0.163c-0.155,0.136-0.261,0.312-0.283,0.509
		c-0.022,0.201,0.038,0.405,0.161,0.563c0.246,0.313,0.762,0.372,1.073,0.123c0.155-0.127,0.26-0.312,0.282-0.512
		c0.023-0.197-0.037-0.395-0.16-0.562C246.122,177.271,245.934,177.166,245.735,177.145z"/>
	<path fill="#C4B295" d="M242.605,173.539c-0.211-0.024-0.406,0.036-0.562,0.16c-0.156,0.127-0.261,0.315-0.283,0.511
		c-0.022,0.197,0.036,0.407,0.162,0.561c0.244,0.312,0.748,0.383,1.072,0.123c0.156-0.123,0.259-0.311,0.281-0.509
		c0.023-0.198-0.034-0.404-0.159-0.562C242.989,173.666,242.816,173.562,242.605,173.539z"/>
	<path fill="#C4B295" d="M240.988,200.521c-0.209-0.025-0.407,0.036-0.561,0.16c-0.158,0.137-0.26,0.312-0.282,0.511
		s0.034,0.407,0.16,0.562c0.258,0.326,0.771,0.373,1.071,0.123c0.157-0.124,0.26-0.312,0.281-0.511
		c0.023-0.198-0.035-0.395-0.158-0.562C241.376,200.648,241.188,200.543,240.988,200.521z"/>
	<path fill="#C4B295" d="M235.731,184.562c-0.21-0.025-0.405,0.037-0.562,0.159c-0.154,0.126-0.259,0.312-0.282,0.513
		c-0.023,0.198,0.037,0.406,0.16,0.561c0.247,0.312,0.76,0.371,1.072,0.123c0.157-0.125,0.26-0.312,0.282-0.51
		c0.023-0.2-0.033-0.404-0.159-0.562C236.119,184.691,235.94,184.586,235.731,184.562z"/>
	<path fill="#C4B295" d="M232.842,178.457c0.159-0.127,0.26-0.303,0.283-0.512c0.023-0.197-0.034-0.393-0.16-0.561
		c-0.125-0.158-0.316-0.262-0.512-0.285c-0.198-0.022-0.406,0.036-0.562,0.16c-0.159,0.138-0.263,0.314-0.284,0.512
		c-0.022,0.199,0.037,0.404,0.162,0.562C232.014,178.657,232.529,178.705,232.842,178.457z"/>
	<path fill="#C4B295" d="M235.522,168.355c-0.106-0.012-0.216,0.021-0.304,0.085c-0.082,0.072-0.14,0.171-0.151,0.274
		c-0.013,0.105,0.022,0.216,0.084,0.308c0.144,0.171,0.425,0.19,0.582,0.065c0.078-0.074,0.138-0.176,0.149-0.279
		c0.011-0.105-0.025-0.213-0.082-0.302C235.727,168.426,235.625,168.367,235.522,168.355z"/>
	<path fill="#C4B295" d="M241.194,167.826c-0.106-0.013-0.217,0.02-0.307,0.079c-0.08,0.076-0.137,0.173-0.149,0.28
		c-0.012,0.102,0.022,0.215,0.093,0.306c0.136,0.171,0.405,0.202,0.572,0.065c0.077-0.074,0.139-0.173,0.151-0.277
		c0.011-0.107-0.025-0.215-0.096-0.309C241.385,167.895,241.297,167.838,241.194,167.826z"/>
	<path fill="#C4B295" d="M244.596,169.467c0.261,0.314,0.76,0.372,1.071,0.123c0.158-0.125,0.264-0.311,0.286-0.51
		c0.022-0.197-0.038-0.395-0.163-0.564c-0.125-0.152-0.312-0.258-0.51-0.281c-0.196-0.023-0.407,0.037-0.562,0.16
		c-0.157,0.136-0.26,0.313-0.283,0.511C244.413,169.106,244.473,169.311,244.596,169.467z"/>
	<path fill="#C4B295" d="M227.516,188.324c-0.107,0-0.213-0.045-0.295-0.116c-0.07-0.083-0.117-0.188-0.117-0.294
		s0.047-0.211,0.117-0.293c0.164-0.154,0.443-0.141,0.586,0c0.068,0.082,0.117,0.188,0.117,0.293s-0.049,0.211-0.117,0.294
		C227.725,188.279,227.619,188.324,227.516,188.324z"/>
	<path fill="#C4B295" d="M227.516,190.263c0.067,0.081,0.115,0.188,0.115,0.293s-0.048,0.21-0.115,0.293
		c-0.084,0.071-0.19,0.117-0.295,0.117c-0.107,0-0.211-0.046-0.293-0.117c-0.072-0.083-0.119-0.188-0.119-0.293
		s0.047-0.211,0.119-0.293C227.09,190.109,227.372,190.109,227.516,190.263z"/>
	<path fill="#C4B295" d="M233.088,190.966c-0.104,0-0.213-0.046-0.291-0.117c-0.072-0.083-0.119-0.188-0.119-0.293
		s0.047-0.211,0.119-0.293c0.162-0.153,0.443-0.142,0.584,0c0.07,0.081,0.117,0.188,0.117,0.293s-0.047,0.21-0.117,0.293
		C233.301,190.92,233.193,190.966,233.088,190.966z"/>
	<path fill="#C4B295" d="M223.994,201.998c-0.072-0.084-0.118-0.189-0.118-0.295c0-0.104,0.046-0.211,0.13-0.293
		c0.15-0.152,0.422-0.152,0.576,0c0.07,0.082,0.115,0.188,0.115,0.293c0,0.106-0.045,0.211-0.115,0.295
		c-0.084,0.07-0.188,0.117-0.295,0.117S224.075,202.068,223.994,201.998z"/>
	<path fill="#C4B295" d="M234.85,206.104c0.066,0.084,0.115,0.191,0.115,0.295c0,0.105-0.049,0.209-0.115,0.293
		c-0.084,0.071-0.19,0.116-0.295,0.116c-0.105,0-0.211-0.045-0.293-0.116c-0.07-0.084-0.119-0.188-0.119-0.293
		c0-0.104,0.049-0.211,0.119-0.295C234.426,205.951,234.705,205.964,234.85,206.104z"/>
	<path fill="#C4B295" d="M223.114,210.211c-0.083,0.072-0.187,0.117-0.294,0.117c-0.105,0-0.213-0.045-0.293-0.117
		c-0.072-0.083-0.118-0.188-0.118-0.292c0-0.108,0.046-0.214,0.118-0.296c0.152-0.153,0.445-0.139,0.587,0
		c0.069,0.082,0.116,0.188,0.116,0.296C223.23,210.023,223.184,210.128,223.114,210.211z"/>
	<path fill="#C4B295" d="M216.367,199.355c0.163-0.152,0.443-0.152,0.586,0c0.07,0.084,0.116,0.19,0.116,0.295
		s-0.046,0.211-0.116,0.293c-0.083,0.071-0.188,0.117-0.292,0.117c-0.108,0-0.214-0.047-0.294-0.117
		c-0.072-0.082-0.119-0.188-0.119-0.293S216.295,199.439,216.367,199.355z"/>
	<path fill="#C4B295" d="M230.168,196.717c0.151-0.154,0.42-0.154,0.572,0c0.07,0.082,0.118,0.188,0.118,0.293
		s-0.048,0.21-0.118,0.293c-0.081,0.07-0.188,0.117-0.293,0.117s-0.211-0.047-0.292-0.117c-0.071-0.083-0.118-0.188-0.118-0.293
		S230.084,196.799,230.168,196.717z"/>
	<path fill="#C4B295" d="M228.981,183.925c-0.105,0-0.212-0.046-0.296-0.116c-0.067-0.083-0.115-0.189-0.115-0.294
		s0.048-0.211,0.115-0.293c0.154-0.153,0.447-0.142,0.59,0c0.068,0.082,0.115,0.188,0.115,0.293c0,0.106-0.047,0.211-0.115,0.294
		C229.193,183.88,229.085,183.925,228.981,183.925z"/>
	<path fill="#C4B295" d="M217.833,194.957c0.07,0.082,0.117,0.188,0.117,0.293c0,0.104-0.047,0.211-0.117,0.293
		c-0.082,0.072-0.188,0.117-0.293,0.117c-0.108,0-0.213-0.045-0.294-0.117c-0.072-0.082-0.117-0.189-0.117-0.293
		c0-0.105,0.045-0.211,0.117-0.293C217.4,194.803,217.682,194.803,217.833,194.957z"/>
	<path fill="#C4B295" d="M228.981,200.822c0.069,0.084,0.116,0.19,0.116,0.295c0,0.105-0.047,0.211-0.116,0.293
		c-0.081,0.07-0.191,0.117-0.296,0.117c-0.105,0-0.209-0.047-0.291-0.117c-0.071-0.082-0.118-0.187-0.118-0.293
		c0-0.117,0.047-0.224,0.118-0.295C228.559,200.671,228.84,200.683,228.981,200.822z"/>
	<path fill="#C4B295" d="M233.088,199.766c-0.104,0-0.213-0.046-0.291-0.115c-0.072-0.082-0.119-0.188-0.119-0.295
		c0-0.115,0.047-0.21,0.129-0.293c0.152-0.152,0.426-0.141,0.574,0c0.07,0.084,0.117,0.189,0.117,0.293
		c0,0.107-0.047,0.213-0.117,0.295C233.301,199.721,233.193,199.766,233.088,199.766z"/>
	<path fill="#C4B295" d="M225.461,206.691c-0.082,0.071-0.188,0.116-0.293,0.116c-0.117,0-0.213-0.045-0.294-0.116
		c-0.071-0.084-0.118-0.188-0.118-0.293c0-0.104,0.047-0.211,0.131-0.295c0.164-0.152,0.422-0.152,0.574,0
		c0.07,0.084,0.117,0.191,0.117,0.295C225.578,206.504,225.531,206.607,225.461,206.691z"/>
	<path fill="#C4B295" d="M220.182,207.865c0.067,0.082,0.115,0.188,0.115,0.293s-0.048,0.211-0.115,0.295
		c-0.084,0.067-0.188,0.115-0.295,0.115c-0.105,0-0.211-0.048-0.293-0.115c-0.072-0.084-0.117-0.19-0.117-0.295
		c0-0.105,0.045-0.211,0.117-0.293C219.746,207.713,220.039,207.724,220.182,207.865z"/>
	<path fill="#C4B295" d="M234.555,187.738c-0.105,0-0.211-0.047-0.293-0.117c-0.07-0.082-0.119-0.188-0.119-0.293
		c0-0.115,0.049-0.221,0.119-0.293c0.164-0.152,0.442-0.141,0.571,0c0.083,0.072,0.132,0.177,0.132,0.293
		c0,0.105-0.049,0.211-0.115,0.293C234.766,187.693,234.659,187.738,234.555,187.738z"/>
	<path fill="#C4B295" d="M235.143,194.779c-0.108,0-0.213-0.047-0.293-0.117c-0.073-0.082-0.121-0.188-0.121-0.293
		s0.048-0.211,0.121-0.293c0.162-0.153,0.445-0.141,0.586,0c0.07,0.082,0.117,0.188,0.117,0.293c0,0.104-0.047,0.211-0.117,0.293
		C235.352,194.732,235.246,194.779,235.143,194.779z"/>
	<path fill="#C4B295" d="M232.797,209.919c0.069,0.082,0.115,0.187,0.115,0.292s-0.046,0.21-0.115,0.293
		c-0.084,0.07-0.188,0.117-0.295,0.117c-0.107,0-0.212-0.047-0.293-0.117c-0.07-0.083-0.117-0.188-0.117-0.293
		s0.047-0.21,0.129-0.292C232.373,209.765,232.643,209.765,232.797,209.919z"/>
	<path fill="#C4B295" d="M226.342,182.518c-0.213,0-0.398-0.083-0.539-0.223c-0.141-0.154-0.225-0.34-0.225-0.54
		s0.084-0.4,0.225-0.54c0.279-0.283,0.795-0.283,1.078,0c0.145,0.141,0.227,0.34,0.227,0.54s-0.082,0.386-0.227,0.54
		C226.741,182.435,226.553,182.518,226.342,182.518z"/>
	<path fill="#C4B295" d="M230.624,193.195c0,0.199-0.083,0.398-0.224,0.541c-0.143,0.141-0.328,0.223-0.539,0.223
		c-0.212,0-0.398-0.082-0.541-0.223c-0.141-0.143-0.223-0.341-0.223-0.541c0-0.199,0.082-0.398,0.223-0.539
		c0.281-0.283,0.788-0.293,1.08,0C230.541,192.797,230.624,192.996,230.624,193.195z"/>
	<path fill="#C4B295" d="M233.088,205.988c-0.199,0-0.4-0.082-0.539-0.226c-0.141-0.153-0.225-0.34-0.225-0.539
		c0-0.2,0.084-0.397,0.225-0.54c0.279-0.283,0.799-0.283,1.08,0c0.141,0.143,0.223,0.34,0.223,0.54s-0.082,0.388-0.223,0.539
		C233.487,205.906,233.288,205.988,233.088,205.988z"/>
	<path fill="#C4B295" d="M229.568,209.215c-0.212,0-0.4-0.084-0.54-0.225c-0.142-0.143-0.224-0.342-0.224-0.539
		c0-0.199,0.082-0.399,0.224-0.539c0.28-0.282,0.786-0.295,1.08,0c0.142,0.14,0.222,0.34,0.222,0.539
		c0,0.197-0.08,0.396-0.222,0.539C229.965,209.131,229.779,209.215,229.568,209.215z"/>
	<path fill="#C4B295" d="M231.035,182.224c-0.212,0-0.4-0.083-0.539-0.224c-0.143-0.152-0.223-0.34-0.223-0.54
		c0-0.199,0.08-0.399,0.223-0.54c0.293-0.293,0.809-0.282,1.078,0c0.143,0.142,0.223,0.341,0.223,0.54c0,0.2-0.08,0.388-0.223,0.54
		C231.434,182.141,231.234,182.224,231.035,182.224z"/>
	<path fill="#C4B295" d="M223.994,197.479c-0.212,0-0.398-0.083-0.54-0.223c-0.14-0.142-0.224-0.339-0.224-0.54
		s0.084-0.4,0.224-0.54c0.281-0.281,0.797-0.281,1.08,0c0.142,0.142,0.222,0.34,0.222,0.54s-0.08,0.398-0.222,0.54
		C224.395,197.396,224.205,197.479,223.994,197.479z"/>
	<path fill="#C4B295" d="M220.428,203.216c0.145,0.144,0.224,0.33,0.224,0.541c0,0.198-0.079,0.386-0.224,0.539
		c-0.143,0.142-0.343,0.225-0.541,0.225c-0.199,0-0.399-0.083-0.539-0.225c-0.142-0.153-0.225-0.341-0.225-0.539
		c0-0.201,0.083-0.397,0.225-0.541C219.629,202.923,220.146,202.934,220.428,203.216z"/>
	<path fill="#C4B295" d="M221.94,213.558c-0.106,0-0.212-0.046-0.292-0.118c-0.072-0.082-0.119-0.187-0.119-0.291
		c0-0.105,0.047-0.212,0.119-0.296c0.162-0.153,0.443-0.142,0.586,0c0.068,0.084,0.115,0.191,0.115,0.296s-0.047,0.209-0.115,0.291
		C222.151,213.512,222.045,213.558,221.94,213.558z"/>
	<path fill="#C4B295" d="M227.516,214.729c-0.107,0-0.213-0.046-0.295-0.114c-0.07-0.084-0.117-0.188-0.117-0.295
		c0-0.104,0.047-0.211,0.128-0.293c0.153-0.154,0.424-0.154,0.575,0c0.068,0.082,0.117,0.188,0.117,0.293
		c0,0.107-0.049,0.211-0.129,0.295C227.713,214.684,227.619,214.729,227.516,214.729z"/>
	<path fill="#C4B295" d="M231.081,213.486c0.295-0.283,0.798-0.283,1.079,0c0.143,0.142,0.227,0.338,0.227,0.539
		c0,0.199-0.084,0.387-0.227,0.541c-0.141,0.139-0.34,0.223-0.539,0.223c-0.197,0-0.4-0.084-0.54-0.223
		c-0.14-0.154-0.223-0.342-0.223-0.541C230.858,213.824,230.941,213.627,231.081,213.486z"/>
	<path fill="#C4B295" d="M231.971,216.653c0.106-0.013,0.217,0.021,0.306,0.081c0.081,0.074,0.138,0.176,0.149,0.28
		c0.013,0.104-0.021,0.214-0.082,0.304c-0.146,0.172-0.425,0.19-0.582,0.066c-0.078-0.074-0.139-0.173-0.15-0.277
		s0.023-0.216,0.083-0.306C231.768,216.722,231.868,216.666,231.971,216.653z"/>
	<path fill="#C4B295" d="M231.75,214.727c-0.076-0.072-0.135-0.174-0.146-0.277c-0.014-0.104,0.022-0.215,0.08-0.304
		c0.075-0.081,0.176-0.139,0.28-0.15c0.104-0.013,0.214,0.022,0.303,0.083c0.081,0.074,0.141,0.174,0.152,0.277
		c0.013,0.104-0.021,0.215-0.086,0.305C232.19,214.831,231.911,214.863,231.75,214.727z"/>
	<path fill="#C4B295" d="M226.134,214.662c0.103-0.01,0.217,0.021,0.304,0.084c0.081,0.074,0.139,0.176,0.15,0.277
		c0.012,0.104-0.022,0.216-0.085,0.305c-0.143,0.172-0.423,0.191-0.58,0.066c-0.079-0.073-0.137-0.174-0.149-0.277
		c-0.012-0.104,0.022-0.214,0.082-0.304C225.928,214.732,226.028,214.676,226.134,214.662z"/>
	<path fill="#C4B295" d="M233.913,202.666c0.08,0.074,0.138,0.176,0.149,0.28c0.012,0.104-0.021,0.215-0.095,0.306
		c-0.133,0.17-0.401,0.2-0.572,0.066c-0.08-0.074-0.138-0.174-0.148-0.279c-0.012-0.104,0.021-0.213,0.081-0.305
		c0.076-0.08,0.172-0.139,0.278-0.15C233.714,202.57,233.824,202.606,233.913,202.666z"/>
	<path fill="#C4B295" d="M222.659,199.824c-0.074-0.076-0.136-0.178-0.147-0.279c-0.013-0.104,0.024-0.213,0.081-0.305
		c0.075-0.08,0.176-0.138,0.28-0.149c0.104-0.011,0.215,0.021,0.303,0.081c0.08,0.076,0.141,0.175,0.153,0.278
		c0.012,0.104-0.024,0.215-0.086,0.307C223.098,199.928,222.819,199.946,222.659,199.824z"/>
	<path fill="#C4B295" d="M233.852,194.406c0.074-0.08,0.171-0.137,0.278-0.148c0.104-0.013,0.215,0.021,0.303,0.082
		c0.083,0.076,0.14,0.174,0.152,0.277c0.012,0.107-0.021,0.219-0.085,0.308c-0.133,0.169-0.426,0.188-0.582,0.066
		c-0.079-0.073-0.137-0.173-0.149-0.28C233.758,194.607,233.791,194.498,233.852,194.406z"/>
	<path fill="#C4B295" d="M241.79,204.424c-0.145,0.172-0.423,0.201-0.581,0.068c-0.08-0.076-0.139-0.177-0.149-0.281
		c-0.012-0.104,0.021-0.215,0.083-0.304c0.073-0.081,0.172-0.139,0.275-0.15c0.108-0.013,0.217,0.022,0.306,0.083
		c0.082,0.072,0.139,0.174,0.151,0.278C241.887,204.221,241.853,204.333,241.79,204.424z"/>
	<path fill="#C4B295" d="M228.381,208.616c-0.134,0.171-0.4,0.201-0.569,0.065c-0.08-0.074-0.139-0.173-0.15-0.277
		c-0.012-0.105,0.022-0.213,0.084-0.305c0.071-0.078,0.173-0.137,0.277-0.149c0.104-0.012,0.215,0.022,0.304,0.083
		c0.079,0.074,0.139,0.174,0.15,0.277C228.488,208.416,228.454,208.525,228.381,208.616z"/>
	<path fill="#C4B295" d="M231.015,221.191c0.105-0.012,0.217,0.021,0.308,0.082c0.076,0.074,0.137,0.175,0.148,0.279
		c0.012,0.102-0.022,0.215-0.081,0.303c-0.136,0.171-0.429,0.191-0.586,0.067c-0.078-0.073-0.137-0.175-0.148-0.277
		c-0.013-0.106,0.023-0.216,0.081-0.306C230.811,221.26,230.912,221.203,231.015,221.191z"/>
	<path fill="#C4B295" d="M240.836,208.96c-0.08-0.072-0.139-0.173-0.15-0.278c-0.013-0.102,0.022-0.213,0.084-0.304
		c0.071-0.081,0.173-0.138,0.276-0.149c0.106-0.013,0.216,0.02,0.305,0.084c0.082,0.072,0.14,0.174,0.149,0.277
		c0.013,0.104-0.02,0.215-0.082,0.305C241.283,209.064,241.003,209.097,240.836,208.96z"/>
	<path fill="#C4B295" d="M229.091,204.403c-0.078-0.077-0.137-0.176-0.148-0.28c-0.013-0.105,0.022-0.215,0.082-0.304
		c0.072-0.079,0.177-0.139,0.281-0.15c0.104-0.012,0.213,0.021,0.302,0.084c0.08,0.073,0.139,0.172,0.15,0.275
		c0.013,0.118-0.021,0.228-0.084,0.308C229.529,204.505,229.248,204.526,229.091,204.403z"/>
	<path fill="#C4B295" d="M225.132,205.922c0.104-0.013,0.217,0.019,0.303,0.08c0.08,0.072,0.139,0.174,0.151,0.28
		c0.014,0.114-0.023,0.214-0.096,0.306c-0.134,0.168-0.406,0.188-0.569,0.063c-0.08-0.075-0.139-0.174-0.149-0.275
		c-0.013-0.108,0.021-0.219,0.083-0.308C224.926,205.99,225.026,205.933,225.132,205.922z"/>
	<path fill="#C4B295" d="M231.92,198.171c0.073-0.08,0.174-0.136,0.277-0.147c0.117-0.015,0.217,0.02,0.306,0.08
		c0.081,0.076,0.14,0.175,0.151,0.278c0.013,0.104-0.023,0.215-0.096,0.308c-0.146,0.17-0.402,0.201-0.571,0.066
		c-0.079-0.076-0.139-0.178-0.15-0.281C231.826,198.371,231.86,198.263,231.92,198.171z"/>
	<path fill="#C4B295" d="M237.032,196.405c-0.076-0.075-0.138-0.174-0.149-0.28c-0.011-0.104,0.024-0.214,0.082-0.305
		c0.075-0.077,0.174-0.137,0.279-0.148c0.105-0.014,0.216,0.022,0.304,0.081c0.081,0.075,0.138,0.177,0.151,0.279
		c0.011,0.105-0.021,0.215-0.083,0.306C237.482,196.506,237.19,196.527,237.032,196.405z"/>
	<path fill="#C4B295" d="M225.044,218.036c0.104-0.012,0.215,0.023,0.304,0.084c0.08,0.073,0.141,0.173,0.154,0.277
		c0.012,0.114-0.024,0.226-0.086,0.304c-0.146,0.17-0.424,0.19-0.567,0.064c-0.091-0.061-0.151-0.159-0.165-0.275
		c-0.012-0.104,0.024-0.214,0.081-0.303C224.84,218.105,224.94,218.049,225.044,218.036z"/>
	<path fill="#C4B295" d="M223.658,211.109c0.108-0.013,0.216,0.021,0.305,0.082c0.082,0.073,0.142,0.172,0.152,0.277
		c0.014,0.104-0.021,0.215-0.085,0.305c-0.146,0.172-0.427,0.191-0.583,0.067c-0.078-0.074-0.138-0.174-0.15-0.278
		c-0.012-0.104,0.023-0.215,0.083-0.307C223.456,211.18,223.556,211.12,223.658,211.109z"/>
	<path fill="#C4B295" d="M224.265,195.8c-0.079-0.073-0.136-0.173-0.147-0.276c-0.012-0.104,0.021-0.213,0.082-0.305
		c0.073-0.08,0.172-0.138,0.279-0.15c0.105-0.012,0.215,0.023,0.303,0.084c0.082,0.073,0.14,0.174,0.152,0.277
		c0.011,0.104-0.023,0.213-0.097,0.306C224.703,195.905,224.436,195.936,224.265,195.8z"/>
	<path fill="#C4B295" d="M233.799,222.289c0.211-0.023,0.405,0.037,0.56,0.158c0.158,0.138,0.262,0.312,0.285,0.512
		c0.022,0.198-0.037,0.408-0.161,0.561c-0.245,0.314-0.758,0.373-1.072,0.124c-0.158-0.122-0.264-0.312-0.285-0.511
		c-0.022-0.199,0.037-0.393,0.163-0.562C233.41,222.416,233.589,222.312,233.799,222.289z"/>
	<path fill="#C4B295" d="M228.327,212.168c-0.021-0.199,0.037-0.406,0.16-0.564c0.126-0.155,0.302-0.258,0.511-0.281
		c0.212-0.024,0.406,0.036,0.562,0.16c0.157,0.125,0.262,0.312,0.283,0.512c0.023,0.197-0.035,0.405-0.16,0.561
		c-0.247,0.312-0.749,0.381-1.072,0.123C228.455,212.555,228.35,212.365,228.327,212.168z"/>
	<path fill="#C4B295" d="M224.423,199.738c0.198-0.023,0.407,0.035,0.562,0.163c0.155,0.136,0.261,0.312,0.283,0.509
		c0.022,0.201-0.038,0.405-0.161,0.563c-0.246,0.313-0.762,0.372-1.073,0.123c-0.155-0.127-0.26-0.312-0.282-0.512
		c-0.023-0.197,0.037-0.395,0.16-0.562C224.036,199.865,224.225,199.76,224.423,199.738z"/>
	<path fill="#C4B295" d="M227.553,196.133c0.211-0.024,0.406,0.036,0.562,0.16c0.156,0.127,0.261,0.315,0.283,0.511
		c0.022,0.197-0.036,0.407-0.162,0.561c-0.244,0.312-0.748,0.383-1.072,0.123c-0.156-0.123-0.259-0.311-0.281-0.509
		c-0.023-0.198,0.034-0.404,0.159-0.562C227.169,196.26,227.342,196.156,227.553,196.133z"/>
	<path fill="#C4B295" d="M229.17,223.115c0.209-0.025,0.407,0.036,0.561,0.16c0.158,0.137,0.26,0.312,0.282,0.511
		s-0.034,0.407-0.16,0.562c-0.258,0.326-0.771,0.373-1.071,0.123c-0.157-0.124-0.26-0.312-0.281-0.511
		c-0.023-0.198,0.035-0.395,0.158-0.562C228.782,223.242,228.971,223.137,229.17,223.115z"/>
	<path fill="#C4B295" d="M234.427,207.156c0.21-0.025,0.405,0.037,0.562,0.159c0.154,0.126,0.259,0.312,0.282,0.513
		c0.023,0.198-0.037,0.406-0.16,0.561c-0.247,0.312-0.76,0.371-1.072,0.123c-0.157-0.125-0.26-0.312-0.282-0.51
		c-0.023-0.2,0.033-0.404,0.159-0.562C234.039,207.285,234.218,207.18,234.427,207.156z"/>
	<path fill="#C4B295" d="M237.316,201.051c-0.159-0.127-0.26-0.303-0.283-0.512c-0.023-0.197,0.034-0.393,0.16-0.561
		c0.125-0.158,0.316-0.262,0.512-0.285c0.198-0.022,0.406,0.036,0.562,0.16c0.159,0.138,0.263,0.314,0.284,0.512
		c0.022,0.199-0.037,0.404-0.162,0.562C238.145,201.251,237.629,201.299,237.316,201.051z"/>
	<path fill="#C4B295" d="M234.636,190.949c0.106-0.012,0.216,0.021,0.304,0.085c0.082,0.072,0.14,0.171,0.151,0.274
		c0.013,0.105-0.022,0.216-0.084,0.308c-0.144,0.171-0.425,0.19-0.582,0.065c-0.078-0.074-0.138-0.176-0.149-0.279
		c-0.011-0.105,0.025-0.213,0.082-0.302C234.432,191.02,234.533,190.961,234.636,190.949z"/>
	<path fill="#C4B295" d="M228.964,190.42c0.106-0.013,0.217,0.02,0.307,0.079c0.08,0.076,0.137,0.173,0.149,0.28
		c0.012,0.102-0.022,0.215-0.093,0.306c-0.136,0.171-0.405,0.202-0.572,0.065c-0.077-0.074-0.139-0.173-0.151-0.277
		c-0.011-0.107,0.025-0.215,0.096-0.309C228.773,190.488,228.861,190.432,228.964,190.42z"/>
	<path fill="#C4B295" d="M225.562,192.061c-0.261,0.314-0.76,0.372-1.071,0.123c-0.158-0.125-0.264-0.311-0.286-0.51
		c-0.022-0.197,0.038-0.395,0.163-0.564c0.125-0.152,0.312-0.258,0.51-0.281c0.196-0.023,0.407,0.037,0.562,0.16
		c0.157,0.136,0.26,0.313,0.283,0.511C225.745,191.7,225.686,191.904,225.562,192.061z"/>
</g>
<g id="edit">
	<g>
		<polygon fill="#EEEEEE" points="179.675,181.166 196.625,198.117 197.436,198.262 180.363,181.189 		"/>
		<path fill="#EEEEEE" d="M205.249,199.087l-50.761-50.761c-1.389-1.389-3.229-2.16-5.189-2.184l52.841,52.842L205.249,199.087z"/>
		<path fill="#EEEEEE" d="M239.512,236.357c0.508-1.258,0.254-2.754-0.764-3.771l-30.246-30.247l-3.109-0.104L239.512,236.357z"/>
		<path fill="#F2F2F2" d="M196.625,198.117l-16.95-16.951h-0.021l3.146,3.145l-13.92-0.459l12.843,12.844
			c1.413,1.414,3.291,2.19,5.286,2.19c0.554,0,1.104-0.062,1.644-0.183l0.111-0.051c0.762-0.22,1.553-0.33,2.348-0.33
			c0.259,0,0.513,0.016,0.766,0.037l2.486-0.646L196.625,198.117z"/>
		<path fill="#D6D6D6" d="M179.654,181.166h0.021l0.688,0.023l-34.336-34.337c-0.771,0.364-1.486,0.854-2.107,1.476
			c-1.411,1.41-2.188,3.287-2.188,5.283c0,1.995,0.777,3.871,2.188,5.282l21.706,21.706l13.921,0.46L179.654,181.166z"/>
		<polygon fill="#B6B6B6" points="179.654,181.166 179.549,181.06 165.628,180.6 168.88,183.852 182.8,184.312 		"/>
		<path fill="#FFFFFF" d="M197.436,198.262l0.482,0.086l39.836,39.834c0.361-0.162,0.703-0.376,0.991-0.665
			c0.342-0.342,0.597-0.737,0.767-1.159l-34.119-34.119l3.109,0.104l-3.253-3.253l-3.109-0.104l-52.841-52.842
			c-0.031,0-0.062-0.004-0.093-0.004c-1.118,0-2.195,0.252-3.177,0.714l34.336,34.337L197.436,198.262z"/>
		<path fill="#C2C2C2" d="M233.816,237.519c1.026,1.028,2.646,1.241,3.938,0.663l-39.837-39.834l-0.482-0.086l-0.811-0.145
			l-2.264-0.403l-2.486,0.646c1.977,0.176,3.811,1.026,5.229,2.446L233.816,237.519z"/>
		<path d="M196.749,201.16v-0.002l36.715,36.713c1.556,1.558,4.079,1.557,5.636-0.002c1.557-1.558,1.559-4.08,0.002-5.639
			l-84.26-84.258c-3.111-3.111-8.162-3.111-11.275,0.002c-3.112,3.112-3.111,8.16,0.002,11.273l37.801,37.801
			c2.025,2.023,4.869,2.736,7.466,2.126l0.067-0.041C191.597,198.359,194.623,199.033,196.749,201.16z M191.111,198.324
			c-0.795,0-1.586,0.11-2.35,0.33l-0.111,0.051c-0.539,0.121-1.09,0.183-1.644,0.183c-1.996,0-3.873-0.776-5.286-2.188
			l-12.841-12.848l-3.252-3.252l-21.707-21.706c-1.411-1.411-2.188-3.287-2.188-5.282c0-1.996,0.776-3.873,2.188-5.283
			c0.621-0.621,1.336-1.111,2.107-1.476c0.983-0.462,2.061-0.714,3.179-0.714c0.03,0,0.062,0.004,0.093,0.004
			c1.961,0.023,3.801,0.794,5.189,2.184l50.761,50.761l3.253,3.253l30.246,30.246c1.018,1.018,1.271,2.514,0.764,3.771
			c-0.17,0.423-0.425,0.817-0.767,1.159c-0.288,0.289-0.63,0.503-0.991,0.665c-1.29,0.578-2.91,0.365-3.938-0.663l-36.713-36.711
			c-1.418-1.42-3.252-2.271-5.229-2.445C191.622,198.338,191.367,198.324,191.111,198.324z"/>
	</g>
</g>
<g>
	<path fill="#84366F" d="M146.881,166.369l0.102-0.248c-0.064,0.008-0.123,0.041-0.188,0.041c-0.454,0-0.879-0.176-1.197-0.496
		l-0.203-0.203l-0.39-1.018l0.503-1.234l1.292-0.578l1.286,0.578l0.523,1.268l-0.264,0.599l0.146-0.063l1.159,0.52l0.254-0.623
		l1.265-0.564l-0.088-0.203l0.515-1.27l1.29-0.578l0.125,0.056c-0.534-0.962-1.229-2.079-2.366-2.742
		c-0.132-0.045-0.258-0.104-0.375-0.18c-0.809-0.369-1.808-0.524-3.102-0.263c-0.914,0.186-1.561,1.001-1.934,2.128l0.332,0.806
		l-0.428,0.974l-0.142,0.157c-0.038,0.042-0.083,0.074-0.124,0.112c-0.052,1.002,0.047,2.078,0.3,3.112l0.953-0.424L146.881,166.369
		z"/>
	<path fill="#84366F" d="M163.139,175.293c-0.1,0.018-0.2,0.029-0.304,0.029c-0.424,0-0.832-0.154-1.144-0.436l-0.242-0.221
		l-0.4-1.039l0.496-1.291l1.307-0.51l0.718,0.297c-0.14-1.201-0.527-2.51-1.095-3.744c-0.227-0.104-0.43-0.256-0.592-0.452
		l-0.131-0.161l-0.268-0.662c-0.115,0.022-0.224,0.065-0.342,0.065c-0.425,0-0.83-0.153-1.146-0.437l-0.242-0.221l-0.399-1.039
		l0.133-0.34c-0.074,0.031-0.15,0.051-0.228,0.074l-0.1,0.252l-0.201,0.201c-0.146,0.146-0.317,0.254-0.502,0.336l0.59,0.266
		l0.481,1.17l1.166,0.484l0.574,1.293l-0.457,1.033l-0.183,0.188c-0.315,0.312-0.737,0.484-1.178,0.484
		c-0.447,0-0.869-0.176-1.188-0.496l-0.18-0.18l-0.438-1.006l0.016-0.041c-0.389-0.023-0.758-0.158-1.047-0.418l-0.242-0.222
		l-0.273-0.704c-0.01,0-0.02,0.004-0.029,0.004c0,0-0.1,0.006-0.145,0.006c-0.455,0-0.879-0.178-1.195-0.502l-0.176-0.176
		l-0.193-0.437c-0.149,0.043-0.299,0.088-0.457,0.088c-0.381,0-0.731-0.147-1.024-0.375l-0.305,0.69l-0.142,0.156
		c-0.309,0.348-0.759,0.547-1.234,0.547c-0.426,0-0.832-0.156-1.146-0.434l-0.164,0.426l-0.205,0.203
		c-0.313,0.311-0.75,0.49-1.197,0.49c-0.273,0-0.525-0.082-0.762-0.201l-0.203,0.523l-0.201,0.201
		c-0.217,0.216-0.487,0.36-0.783,0.433c0.52,0.698,1.16,1.265,1.929,1.612l-0.08-0.207l0.504-1.236l1.293-0.574l1.285,0.576
		l0.522,1.271l-0.161,0.363c0.186-0.031,0.363-0.057,0.533-0.076l-0.248-0.65l0.496-1.291l1.322-0.519l1.252,0.562l0.51,1.234
		l-0.396,1.023l-0.088,0.088c0.965,0.63,1.31,1.747,1.858,2.751l0.417-1.022l1.291-0.576l1.287,0.576l0.521,1.271l-0.43,0.974
		l-0.141,0.157c-0.221,0.25-0.527,0.39-0.855,0.468l0.08,0.031c0.489,0.145,1.078,0.221,1.808,0.198
		C162.052,176.464,162.729,176.01,163.139,175.293z"/>
	<path fill="#71398E" d="M160.016,175.798l0.141-0.157l0.43-0.974l-0.521-1.271l-1.287-0.576l-1.291,0.576l-0.417,1.022
		c0.441,0.809,1.021,1.539,2.171,1.878l-0.08-0.031C159.488,176.188,159.795,176.048,160.016,175.798z"/>
	<path fill="#71398E" d="M155.695,170.557l-0.51-1.234l-1.252-0.562l-1.322,0.519l-0.496,1.291l0.248,0.65
		c1.351-0.157,2.229,0.043,2.848,0.447l0.088-0.088L155.695,170.557z"/>
	<path fill="#71398E" d="M161.545,172.336l-0.496,1.291l0.4,1.039l0.242,0.221c0.312,0.281,0.72,0.436,1.144,0.436
		c0.104,0,0.204-0.012,0.304-0.029c0.455-0.797,0.576-1.923,0.431-3.17l-0.718-0.297L161.545,172.336z"/>
	<path fill="#71398E" d="M150.269,159.429c0.118,0.075,0.244,0.135,0.375,0.18C150.527,159.54,150.396,159.486,150.269,159.429z"/>
	<path fill="#71398E" d="M147.521,168.857l0.203-0.523c0.236,0.119,0.488,0.201,0.762,0.201c0.447,0,0.884-0.18,1.197-0.49
		l0.205-0.203l0.164-0.426c0.314,0.277,0.721,0.434,1.146,0.434c0.476,0,0.926-0.199,1.234-0.547l0.142-0.156l0.305-0.69
		c0.293,0.228,0.644,0.375,1.024,0.375c0.158,0,0.308-0.045,0.457-0.088l0.193,0.437l0.176,0.176
		c0.316,0.324,0.74,0.502,1.195,0.502c0.045,0,0.145-0.006,0.145-0.006c0.01,0,0.02-0.004,0.029-0.004l0.273,0.704l0.242,0.222
		c0.289,0.26,0.658,0.395,1.047,0.418l-0.016,0.041l0.438,1.006l0.18,0.18c0.319,0.32,0.741,0.496,1.188,0.496
		c0.44,0,0.862-0.173,1.178-0.484l0.183-0.188l0.457-1.033l-0.574-1.293l-1.166-0.484l-0.481-1.17l-0.59-0.266
		c0.185-0.082,0.356-0.189,0.502-0.336l0.201-0.201l0.1-0.252c0.077-0.023,0.153-0.043,0.228-0.074l-0.133,0.34l0.399,1.039
		l0.242,0.221c0.315,0.283,0.721,0.437,1.146,0.437c0.118,0,0.227-0.043,0.342-0.065l0.268,0.662l0.131,0.161
		c0.162,0.196,0.365,0.349,0.592,0.452c-1.602-3.486-4.65-6.354-7.715-4.357c-0.681,0.443-1.097-0.495-1.749-1.671l-0.125-0.056
		l-1.29,0.578l-0.515,1.27l0.088,0.203l-1.265,0.564l-0.254,0.623l-1.159-0.52l-0.146,0.063l0.264-0.599l-0.523-1.268l-1.286-0.578
		l-1.292,0.578l-0.503,1.234l0.39,1.018l0.203,0.203c0.318,0.32,0.743,0.496,1.197,0.496c0.064,0,0.123-0.033,0.188-0.041
		l-0.102,0.248l-0.757-0.338l-0.953,0.424c0.273,1.115,0.726,2.176,1.366,3.036c0.295-0.072,0.566-0.217,0.783-0.433
		L147.521,168.857z"/>
	<path fill="#71398E" d="M151.469,169.662l-1.285-0.576l-1.293,0.574l-0.504,1.236l0.08,0.207c0.832,0.377,1.812,0.501,2.944,0.269
		c0.146-0.03,0.282-0.052,0.42-0.075l0.161-0.363L151.469,169.662z"/>
	<path fill="#71398E" d="M145.137,163.073l0.428-0.974l-0.332-0.806c-0.202,0.608-0.323,1.307-0.362,2.049
		c0.041-0.038,0.086-0.07,0.124-0.112L145.137,163.073z"/>
</g>
</svg>
