<?xml version="1.0" encoding="utf-8"?>
<!-- Generator: Adobe Illustrator 16.0.0, SVG Export Plug-In . SVG Version: 6.00 Build 0)  -->
<!DOCTYPE svg PUBLIC "-//W3C//DTD SVG 1.1//EN" "http://www.w3.org/Graphics/SVG/1.1/DTD/svg11.dtd">
<svg version="1.1" id="lvl_x5F_0" xmlns="http://www.w3.org/2000/svg" xmlns:xlink="http://www.w3.org/1999/xlink" x="0px" y="0px"
	 width="300px" height="300px" viewBox="0 0 300 300" enable-background="new 0 0 300 300" xml:space="preserve">
<g>
	<rect x="176.643" fill="#C84E44" width="16.82" height="7.895"/>
	<rect x="193.463" fill="#EDCDC2" width="16.82" height="7.895"/>
	<rect x="210.283" fill="#FCF7F4" width="16.82" height="7.895"/>
	<rect x="243.925" fill="#C84E44" width="16.821" height="7.895"/>
	<rect x="227.104" fill="#EDCDC2" width="16.821" height="7.895"/>
	<rect x="260.746" fill="#EDCDC2" width="16.82" height="7.895"/>
	<rect x="277.566" fill="#FCF7F4" width="16.822" height="7.895"/>
	<rect x="294.389" fill="#EDCDC2" width="5.611" height="7.895"/>
	<rect x="176.643" y="7.895" fill="#DF847C" width="16.82" height="16.82"/>
	<rect x="193.463" y="7.895" fill="#F8E8E4" width="16.82" height="16.82"/>
	<rect x="210.283" y="7.895" fill="#FFFFFF" width="16.82" height="16.82"/>
	<rect x="243.925" y="7.895" fill="#DF847C" width="16.821" height="16.82"/>
	<rect x="227.104" y="7.895" fill="#F8E8E4" width="16.821" height="16.82"/>
	<rect x="260.746" y="7.895" fill="#F8E8E4" width="16.82" height="16.82"/>
	<rect x="277.566" y="7.895" fill="#FFFFFF" width="16.822" height="16.82"/>
	<rect x="294.389" y="7.895" fill="#F8E8E4" width="5.611" height="16.82"/>
	<rect x="176.643" y="24.715" fill="#C84E44" width="16.82" height="16.821"/>
	<rect x="193.463" y="24.715" fill="#EDCDC2" width="16.82" height="16.821"/>
	<rect x="210.283" y="24.715" fill="#FCF7F4" width="16.82" height="16.821"/>
	<rect x="243.925" y="24.715" fill="#C84E44" width="16.821" height="16.821"/>
	<rect x="227.104" y="24.715" fill="#EDCDC2" width="16.821" height="16.821"/>
	<rect x="260.746" y="24.715" fill="#EDCDC2" width="16.82" height="16.821"/>
	<rect x="277.566" y="24.715" fill="#FCF7F4" width="16.822" height="16.821"/>
	<rect x="294.389" y="24.715" fill="#EDCDC2" width="5.611" height="16.821"/>
	<rect x="176.643" y="41.536" fill="#CA2C2D" width="16.82" height="16.821"/>
	<rect x="193.463" y="41.536" fill="#C84E44" width="16.82" height="16.821"/>
	<rect x="210.283" y="41.536" fill="#E0A697" width="16.82" height="16.821"/>
	<rect x="243.925" y="41.536" fill="#CA2C2D" width="16.821" height="16.821"/>
	<rect x="227.104" y="41.536" fill="#C84E44" width="16.821" height="16.821"/>
	<rect x="260.746" y="41.536" fill="#C84E44" width="16.82" height="16.821"/>
	<rect x="277.566" y="41.536" fill="#E0A697" width="16.822" height="16.821"/>
	<rect x="294.389" y="41.536" fill="#C84E44" width="5.611" height="16.821"/>
	<rect x="176.643" y="58.357" fill="#C84E44" width="16.82" height="16.821"/>
	<rect x="193.463" y="58.357" fill="#EDCDC2" width="16.82" height="16.821"/>
	<rect x="210.283" y="58.357" fill="#FCF7F4" width="16.82" height="16.821"/>
	<rect x="243.925" y="58.357" fill="#C84E44" width="16.821" height="16.821"/>
	<rect x="227.104" y="58.357" fill="#EDCDC2" width="16.821" height="16.821"/>
	<rect x="260.746" y="58.357" fill="#EDCDC2" width="16.82" height="16.821"/>
	<rect x="277.566" y="58.357" fill="#FCF7F4" width="16.822" height="16.821"/>
	<rect x="294.389" y="58.357" fill="#EDCDC2" width="5.611" height="16.821"/>
	<rect x="176.643" y="75.178" fill="#DF847C" width="16.82" height="16.821"/>
	<rect x="193.463" y="75.178" fill="#F8E8E4" width="16.82" height="16.821"/>
	<rect x="210.283" y="75.178" fill="#FFFFFF" width="16.82" height="16.821"/>
	<rect x="243.925" y="75.178" fill="#DF847C" width="16.821" height="16.821"/>
	<rect x="227.104" y="75.178" fill="#F8E8E4" width="16.821" height="16.821"/>
	<rect x="260.746" y="75.178" fill="#F8E8E4" width="16.82" height="16.821"/>
	<rect x="277.566" y="75.178" fill="#FFFFFF" width="16.822" height="16.821"/>
	<rect x="294.389" y="75.178" fill="#F8E8E4" width="5.611" height="16.821"/>
	<rect x="176.643" y="108.819" fill="#CA2C2D" width="16.82" height="16.821"/>
	<rect x="193.463" y="108.819" fill="#C84E44" width="16.82" height="16.821"/>
	<rect x="210.283" y="108.819" fill="#E0A697" width="16.82" height="16.821"/>
	<rect x="243.925" y="108.819" fill="#CA2C2D" width="16.821" height="16.821"/>
	<rect x="227.104" y="108.819" fill="#C84E44" width="16.821" height="16.821"/>
	<rect x="260.746" y="108.819" fill="#C84E44" width="16.82" height="16.821"/>
	<rect x="277.566" y="108.819" fill="#E0A697" width="16.822" height="16.821"/>
	<rect x="294.389" y="108.819" fill="#C84E44" width="5.611" height="16.821"/>
	<rect x="176.643" y="91.999" fill="#C84E44" width="16.82" height="16.82"/>
	<rect x="193.463" y="91.999" fill="#EDCDC2" width="16.82" height="16.82"/>
	<rect x="210.283" y="91.999" fill="#FCF7F4" width="16.82" height="16.82"/>
	<rect x="243.925" y="91.999" fill="#C84E44" width="16.821" height="16.82"/>
	<rect x="227.104" y="91.999" fill="#EDCDC2" width="16.821" height="16.82"/>
	<rect x="260.746" y="91.999" fill="#EDCDC2" width="16.82" height="16.82"/>
	<rect x="277.566" y="91.999" fill="#FCF7F4" width="16.822" height="16.82"/>
	<rect x="294.389" y="91.999" fill="#EDCDC2" width="5.611" height="16.82"/>
	<rect x="176.643" y="125.64" fill="#C84E44" width="16.82" height="16.821"/>
	<rect x="193.463" y="125.64" fill="#EDCDC2" width="16.82" height="16.821"/>
	<rect x="210.283" y="125.64" fill="#FCF7F4" width="16.82" height="16.821"/>
	<rect x="243.925" y="125.64" fill="#C84E44" width="16.821" height="16.821"/>
	<rect x="227.104" y="125.64" fill="#EDCDC2" width="16.821" height="16.821"/>
	<rect x="260.746" y="125.64" fill="#EDCDC2" width="16.82" height="16.821"/>
	<rect x="277.566" y="125.64" fill="#FCF7F4" width="16.822" height="16.821"/>
	<rect x="294.389" y="125.64" fill="#EDCDC2" width="5.611" height="16.821"/>
	<rect x="176.643" y="142.461" fill="#DF847C" width="16.82" height="16.82"/>
	<rect x="193.463" y="142.461" fill="#F8E8E4" width="16.82" height="16.82"/>
	<rect x="210.283" y="142.461" fill="#FFFFFF" width="16.82" height="16.82"/>
	<rect x="243.925" y="142.461" fill="#DF847C" width="16.821" height="16.82"/>
	<rect x="227.104" y="142.461" fill="#F8E8E4" width="16.821" height="16.82"/>
	<rect x="260.746" y="142.461" fill="#F8E8E4" width="16.82" height="16.82"/>
	<rect x="277.566" y="142.461" fill="#FFFFFF" width="16.822" height="16.82"/>
	<rect x="294.389" y="142.461" fill="#F8E8E4" width="5.611" height="16.82"/>
	<rect x="176.643" y="159.281" fill="#C84E44" width="16.82" height="16.822"/>
	<rect x="193.463" y="159.281" fill="#EDCDC2" width="16.82" height="16.822"/>
	<rect x="210.283" y="159.281" fill="#FCF7F4" width="16.82" height="16.822"/>
	<rect x="243.925" y="159.281" fill="#C84E44" width="16.821" height="16.822"/>
	<rect x="227.104" y="159.281" fill="#EDCDC2" width="16.821" height="16.822"/>
	<rect x="260.746" y="159.281" fill="#EDCDC2" width="16.82" height="16.822"/>
	<rect x="277.566" y="159.281" fill="#FCF7F4" width="16.822" height="16.822"/>
	<rect x="294.389" y="159.281" fill="#EDCDC2" width="5.611" height="16.822"/>
	<rect x="176.643" y="176.104" fill="#CA2C2D" width="16.82" height="16.819"/>
	<rect x="193.463" y="176.104" fill="#C84E44" width="16.82" height="16.819"/>
	<rect x="210.283" y="176.104" fill="#E0A697" width="16.82" height="16.819"/>
	<rect x="243.925" y="176.104" fill="#CA2C2D" width="16.821" height="16.819"/>
	<rect x="227.104" y="176.104" fill="#C84E44" width="16.821" height="16.819"/>
	<rect x="260.746" y="176.104" fill="#C84E44" width="16.82" height="16.819"/>
	<rect x="277.566" y="176.104" fill="#E0A697" width="16.822" height="16.819"/>
	<rect x="294.389" y="176.104" fill="#C84E44" width="5.611" height="16.819"/>
	<rect x="176.643" y="192.923" fill="#C84E44" width="16.82" height="16.821"/>
	<rect x="193.463" y="192.923" fill="#EDCDC2" width="16.82" height="16.821"/>
	<rect x="210.283" y="192.923" fill="#FCF7F4" width="16.82" height="16.821"/>
	<rect x="243.925" y="192.923" fill="#C84E44" width="16.821" height="16.821"/>
	<rect x="227.104" y="192.923" fill="#EDCDC2" width="16.821" height="16.821"/>
	<rect x="260.746" y="192.923" fill="#EDCDC2" width="16.82" height="16.821"/>
	<rect x="277.566" y="192.923" fill="#FCF7F4" width="16.822" height="16.821"/>
	<rect x="294.389" y="192.923" fill="#EDCDC2" width="5.611" height="16.821"/>
	<rect x="176.643" y="209.744" fill="#DF847C" width="16.82" height="16.82"/>
	<rect x="193.463" y="209.744" fill="#F8E8E4" width="16.82" height="16.82"/>
	<rect x="210.283" y="209.744" fill="#FFFFFF" width="16.82" height="16.82"/>
	<rect x="243.925" y="209.744" fill="#DF847C" width="16.821" height="16.82"/>
	<rect x="227.104" y="209.744" fill="#F8E8E4" width="16.821" height="16.82"/>
	<rect x="260.746" y="209.744" fill="#F8E8E4" width="16.82" height="16.82"/>
	<rect x="277.566" y="209.744" fill="#FFFFFF" width="16.822" height="16.82"/>
	<rect x="294.389" y="209.744" fill="#F8E8E4" width="5.611" height="16.82"/>
	<rect x="176.643" y="243.387" fill="#CA2C2D" width="16.82" height="16.819"/>
	<rect x="193.463" y="243.387" fill="#C84E44" width="16.82" height="16.819"/>
	<rect x="210.283" y="243.387" fill="#E0A697" width="16.82" height="16.819"/>
	<rect x="243.925" y="243.387" fill="#CA2C2D" width="16.821" height="16.819"/>
	<rect x="227.104" y="243.387" fill="#C84E44" width="16.821" height="16.819"/>
	<rect x="260.746" y="243.387" fill="#C84E44" width="16.82" height="16.819"/>
	<rect x="277.566" y="243.387" fill="#E0A697" width="16.822" height="16.819"/>
	<rect x="294.389" y="243.387" fill="#C84E44" width="5.611" height="16.819"/>
	<rect x="176.643" y="226.564" fill="#C84E44" width="16.82" height="16.822"/>
	<rect x="193.463" y="226.564" fill="#EDCDC2" width="16.82" height="16.822"/>
	<rect x="210.283" y="226.564" fill="#FCF7F4" width="16.82" height="16.822"/>
	<rect x="243.925" y="226.564" fill="#C84E44" width="16.821" height="16.822"/>
	<rect x="227.104" y="226.564" fill="#EDCDC2" width="16.821" height="16.822"/>
	<rect x="260.746" y="226.564" fill="#EDCDC2" width="16.82" height="16.822"/>
	<rect x="277.566" y="226.564" fill="#FCF7F4" width="16.822" height="16.822"/>
	<rect x="294.389" y="226.564" fill="#EDCDC2" width="5.611" height="16.822"/>
	<rect x="176.643" y="260.206" fill="#C84E44" width="16.82" height="16.821"/>
	<rect x="193.463" y="260.206" fill="#EDCDC2" width="16.82" height="16.821"/>
	<rect x="210.283" y="260.206" fill="#FCF7F4" width="16.82" height="16.821"/>
	<rect x="243.925" y="260.206" fill="#C84E44" width="16.821" height="16.821"/>
	<rect x="227.104" y="260.206" fill="#EDCDC2" width="16.821" height="16.821"/>
	<rect x="260.746" y="260.206" fill="#EDCDC2" width="16.82" height="16.821"/>
	<rect x="277.566" y="260.206" fill="#FCF7F4" width="16.822" height="16.821"/>
	<rect x="294.389" y="260.206" fill="#EDCDC2" width="5.611" height="16.821"/>
	<rect x="176.643" y="277.027" fill="#DF847C" width="16.82" height="16.82"/>
	<rect x="193.463" y="277.027" fill="#F8E8E4" width="16.82" height="16.82"/>
	<rect x="210.283" y="277.027" fill="#FFFFFF" width="16.82" height="16.82"/>
	<rect x="243.925" y="277.027" fill="#DF847C" width="16.821" height="16.82"/>
	<rect x="227.104" y="277.027" fill="#F8E8E4" width="16.821" height="16.82"/>
	<rect x="260.746" y="277.027" fill="#F8E8E4" width="16.82" height="16.82"/>
	<rect x="277.566" y="277.027" fill="#FFFFFF" width="16.822" height="16.82"/>
	<rect x="294.389" y="277.027" fill="#F8E8E4" width="5.611" height="16.82"/>
	<rect x="176.643" y="293.848" fill="#C84E44" width="16.82" height="6.152"/>
	<rect x="193.463" y="293.848" fill="#EDCDC2" width="16.82" height="6.152"/>
	<rect x="210.283" y="293.848" fill="#FCF7F4" width="16.82" height="6.152"/>
	<rect x="243.925" y="293.848" fill="#C84E44" width="16.821" height="6.152"/>
	<rect x="227.104" y="293.848" fill="#EDCDC2" width="16.821" height="6.152"/>
	<rect x="260.746" y="293.848" fill="#EDCDC2" width="16.82" height="6.152"/>
	<rect x="277.566" y="293.848" fill="#FCF7F4" width="16.822" height="6.152"/>
	<rect x="294.389" y="293.848" fill="#EDCDC2" width="5.611" height="6.152"/>
	<rect x="42.075" fill="#C84E44" width="16.821" height="7.895"/>
	<rect x="58.896" fill="#EDCDC2" width="16.82" height="7.895"/>
	<rect x="75.716" fill="#FCF7F4" width="16.821" height="7.895"/>
	<rect x="109.358" fill="#C84E44" width="16.821" height="7.895"/>
	<rect x="92.537" fill="#EDCDC2" width="16.821" height="7.895"/>
	<rect x="126.179" fill="#EDCDC2" width="16.821" height="7.895"/>
	<rect x="143" fill="#FCF7F4" width="16.82" height="7.895"/>
	<rect x="159.82" fill="#EDCDC2" width="16.822" height="7.895"/>
	<rect x="42.075" y="7.895" fill="#DF847C" width="16.821" height="16.82"/>
	<rect x="58.896" y="7.895" fill="#F8E8E4" width="16.82" height="16.82"/>
	<rect x="75.716" y="7.895" fill="#FFFFFF" width="16.821" height="16.82"/>
	<rect x="109.358" y="7.895" fill="#DF847C" width="16.821" height="16.82"/>
	<rect x="92.537" y="7.895" fill="#F8E8E4" width="16.821" height="16.82"/>
	<rect x="126.179" y="7.895" fill="#F8E8E4" width="16.821" height="16.82"/>
	<rect x="143" y="7.895" fill="#FFFFFF" width="16.82" height="16.82"/>
	<rect x="159.82" y="7.895" fill="#F8E8E4" width="16.822" height="16.82"/>
	<rect x="42.075" y="24.715" fill="#C84E44" width="16.821" height="16.821"/>
	<rect x="58.896" y="24.715" fill="#EDCDC2" width="16.82" height="16.821"/>
	<rect x="75.716" y="24.715" fill="#FCF7F4" width="16.821" height="16.821"/>
	<rect x="109.358" y="24.715" fill="#C84E44" width="16.821" height="16.821"/>
	<rect x="92.537" y="24.715" fill="#EDCDC2" width="16.821" height="16.821"/>
	<rect x="126.179" y="24.715" fill="#EDCDC2" width="16.821" height="16.821"/>
	<rect x="143" y="24.715" fill="#FCF7F4" width="16.82" height="16.821"/>
	<rect x="159.82" y="24.715" fill="#EDCDC2" width="16.822" height="16.821"/>
	<rect x="42.075" y="41.536" fill="#CA2C2D" width="16.821" height="16.821"/>
	<rect x="58.896" y="41.536" fill="#C84E44" width="16.82" height="16.821"/>
	<rect x="75.716" y="41.536" fill="#E0A697" width="16.821" height="16.821"/>
	<rect x="109.358" y="41.536" fill="#CA2C2D" width="16.821" height="16.821"/>
	<rect x="92.537" y="41.536" fill="#C84E44" width="16.821" height="16.821"/>
	<rect x="126.179" y="41.536" fill="#C84E44" width="16.821" height="16.821"/>
	<rect x="143" y="41.536" fill="#E0A697" width="16.82" height="16.821"/>
	<rect x="159.82" y="41.536" fill="#C84E44" width="16.822" height="16.821"/>
	<rect x="42.075" y="58.357" fill="#C84E44" width="16.821" height="16.821"/>
	<rect x="58.896" y="58.357" fill="#EDCDC2" width="16.82" height="16.821"/>
	<rect x="75.716" y="58.357" fill="#FCF7F4" width="16.821" height="16.821"/>
	<rect x="109.358" y="58.357" fill="#C84E44" width="16.821" height="16.821"/>
	<rect x="92.537" y="58.357" fill="#EDCDC2" width="16.821" height="16.821"/>
	<rect x="126.179" y="58.357" fill="#EDCDC2" width="16.821" height="16.821"/>
	<rect x="143" y="58.357" fill="#FCF7F4" width="16.82" height="16.821"/>
	<rect x="159.82" y="58.357" fill="#EDCDC2" width="16.822" height="16.821"/>
	<rect x="42.075" y="75.178" fill="#DF847C" width="16.821" height="16.821"/>
	<rect x="58.896" y="75.178" fill="#F8E8E4" width="16.82" height="16.821"/>
	<rect x="75.716" y="75.178" fill="#FFFFFF" width="16.821" height="16.821"/>
	<rect x="109.358" y="75.178" fill="#DF847C" width="16.821" height="16.821"/>
	<rect x="92.537" y="75.178" fill="#F8E8E4" width="16.821" height="16.821"/>
	<rect x="126.179" y="75.178" fill="#F8E8E4" width="16.821" height="16.821"/>
	<rect x="143" y="75.178" fill="#FFFFFF" width="16.82" height="16.821"/>
	<rect x="159.82" y="75.178" fill="#F8E8E4" width="16.822" height="16.821"/>
	<rect x="42.075" y="108.819" fill="#CA2C2D" width="16.821" height="16.821"/>
	<rect x="58.896" y="108.819" fill="#C84E44" width="16.82" height="16.821"/>
	<rect x="75.716" y="108.819" fill="#E0A697" width="16.821" height="16.821"/>
	<rect x="109.358" y="108.819" fill="#CA2C2D" width="16.821" height="16.821"/>
	<rect x="92.537" y="108.819" fill="#C84E44" width="16.821" height="16.821"/>
	<rect x="126.179" y="108.819" fill="#C84E44" width="16.821" height="16.821"/>
	<rect x="143" y="108.819" fill="#E0A697" width="16.82" height="16.821"/>
	<rect x="159.82" y="108.819" fill="#C84E44" width="16.822" height="16.821"/>
	<rect x="42.075" y="91.999" fill="#C84E44" width="16.821" height="16.82"/>
	<rect x="58.896" y="91.999" fill="#EDCDC2" width="16.82" height="16.82"/>
	<rect x="75.716" y="91.999" fill="#FCF7F4" width="16.821" height="16.82"/>
	<rect x="109.358" y="91.999" fill="#C84E44" width="16.821" height="16.82"/>
	<rect x="92.537" y="91.999" fill="#EDCDC2" width="16.821" height="16.82"/>
	<rect x="126.179" y="91.999" fill="#EDCDC2" width="16.821" height="16.82"/>
	<rect x="143" y="91.999" fill="#FCF7F4" width="16.82" height="16.82"/>
	<rect x="159.82" y="91.999" fill="#EDCDC2" width="16.822" height="16.82"/>
	<rect x="42.075" y="125.64" fill="#C84E44" width="16.821" height="16.821"/>
	<rect x="58.896" y="125.64" fill="#EDCDC2" width="16.82" height="16.821"/>
	<rect x="75.716" y="125.64" fill="#FCF7F4" width="16.821" height="16.821"/>
	<rect x="109.358" y="125.64" fill="#C84E44" width="16.821" height="16.821"/>
	<rect x="92.537" y="125.64" fill="#EDCDC2" width="16.821" height="16.821"/>
	<rect x="126.179" y="125.64" fill="#EDCDC2" width="16.821" height="16.821"/>
	<rect x="143" y="125.64" fill="#FCF7F4" width="16.82" height="16.821"/>
	<rect x="159.82" y="125.64" fill="#EDCDC2" width="16.822" height="16.821"/>
	<rect x="42.075" y="142.461" fill="#DF847C" width="16.821" height="16.82"/>
	<rect x="58.896" y="142.461" fill="#F8E8E4" width="16.82" height="16.82"/>
	<rect x="75.716" y="142.461" fill="#FFFFFF" width="16.821" height="16.82"/>
	<rect x="109.358" y="142.461" fill="#DF847C" width="16.821" height="16.82"/>
	<rect x="92.537" y="142.461" fill="#F8E8E4" width="16.821" height="16.82"/>
	<rect x="126.179" y="142.461" fill="#F8E8E4" width="16.821" height="16.82"/>
	<rect x="143" y="142.461" fill="#FFFFFF" width="16.82" height="16.82"/>
	<rect x="159.82" y="142.461" fill="#F8E8E4" width="16.822" height="16.82"/>
	<rect x="42.075" y="159.281" fill="#C84E44" width="16.821" height="16.822"/>
	<rect x="58.896" y="159.281" fill="#EDCDC2" width="16.82" height="16.822"/>
	<rect x="75.716" y="159.281" fill="#FCF7F4" width="16.821" height="16.822"/>
	<rect x="109.358" y="159.281" fill="#C84E44" width="16.821" height="16.822"/>
	<rect x="92.537" y="159.281" fill="#EDCDC2" width="16.821" height="16.822"/>
	<rect x="126.179" y="159.281" fill="#EDCDC2" width="16.821" height="16.822"/>
	<rect x="143" y="159.281" fill="#FCF7F4" width="16.82" height="16.822"/>
	<rect x="159.82" y="159.281" fill="#EDCDC2" width="16.822" height="16.822"/>
	<rect x="42.075" y="176.104" fill="#CA2C2D" width="16.821" height="16.819"/>
	<rect x="58.896" y="176.104" fill="#C84E44" width="16.82" height="16.819"/>
	<rect x="75.716" y="176.104" fill="#E0A697" width="16.821" height="16.819"/>
	<rect x="109.358" y="176.104" fill="#CA2C2D" width="16.821" height="16.819"/>
	<rect x="92.537" y="176.104" fill="#C84E44" width="16.821" height="16.819"/>
	<rect x="126.179" y="176.104" fill="#C84E44" width="16.821" height="16.819"/>
	<rect x="143" y="176.104" fill="#E0A697" width="16.82" height="16.819"/>
	<rect x="159.82" y="176.104" fill="#C84E44" width="16.822" height="16.819"/>
	<rect x="42.075" y="192.923" fill="#C84E44" width="16.821" height="16.821"/>
	<rect x="58.896" y="192.923" fill="#EDCDC2" width="16.82" height="16.821"/>
	<rect x="75.716" y="192.923" fill="#FCF7F4" width="16.821" height="16.821"/>
	<rect x="109.358" y="192.923" fill="#C84E44" width="16.821" height="16.821"/>
	<rect x="92.537" y="192.923" fill="#EDCDC2" width="16.821" height="16.821"/>
	<rect x="126.179" y="192.923" fill="#EDCDC2" width="16.821" height="16.821"/>
	<rect x="143" y="192.923" fill="#FCF7F4" width="16.82" height="16.821"/>
	<rect x="159.82" y="192.923" fill="#EDCDC2" width="16.822" height="16.821"/>
	<rect x="42.075" y="209.744" fill="#DF847C" width="16.821" height="16.82"/>
	<rect x="58.896" y="209.744" fill="#F8E8E4" width="16.82" height="16.82"/>
	<rect x="75.716" y="209.744" fill="#FFFFFF" width="16.821" height="16.82"/>
	<rect x="109.358" y="209.744" fill="#DF847C" width="16.821" height="16.82"/>
	<rect x="92.537" y="209.744" fill="#F8E8E4" width="16.821" height="16.82"/>
	<rect x="126.179" y="209.744" fill="#F8E8E4" width="16.821" height="16.82"/>
	<rect x="143" y="209.744" fill="#FFFFFF" width="16.82" height="16.82"/>
	<rect x="159.82" y="209.744" fill="#F8E8E4" width="16.822" height="16.82"/>
	<rect x="42.075" y="243.387" fill="#CA2C2D" width="16.821" height="16.819"/>
	<rect x="58.896" y="243.387" fill="#C84E44" width="16.82" height="16.819"/>
	<rect x="75.716" y="243.387" fill="#E0A697" width="16.821" height="16.819"/>
	<rect x="109.358" y="243.387" fill="#CA2C2D" width="16.821" height="16.819"/>
	<rect x="92.537" y="243.387" fill="#C84E44" width="16.821" height="16.819"/>
	<rect x="126.179" y="243.387" fill="#C84E44" width="16.821" height="16.819"/>
	<rect x="143" y="243.387" fill="#E0A697" width="16.82" height="16.819"/>
	<rect x="159.82" y="243.387" fill="#C84E44" width="16.822" height="16.819"/>
	<rect x="42.075" y="226.564" fill="#C84E44" width="16.821" height="16.822"/>
	<rect x="58.896" y="226.564" fill="#EDCDC2" width="16.82" height="16.822"/>
	<rect x="75.716" y="226.564" fill="#FCF7F4" width="16.821" height="16.822"/>
	<rect x="109.358" y="226.564" fill="#C84E44" width="16.821" height="16.822"/>
	<rect x="92.537" y="226.564" fill="#EDCDC2" width="16.821" height="16.822"/>
	<rect x="126.179" y="226.564" fill="#EDCDC2" width="16.821" height="16.822"/>
	<rect x="143" y="226.564" fill="#FCF7F4" width="16.82" height="16.822"/>
	<rect x="159.82" y="226.564" fill="#EDCDC2" width="16.822" height="16.822"/>
	<rect x="42.075" y="260.206" fill="#C84E44" width="16.821" height="16.821"/>
	<rect x="58.896" y="260.206" fill="#EDCDC2" width="16.82" height="16.821"/>
	<rect x="75.716" y="260.206" fill="#FCF7F4" width="16.821" height="16.821"/>
	<rect x="109.358" y="260.206" fill="#C84E44" width="16.821" height="16.821"/>
	<rect x="92.537" y="260.206" fill="#EDCDC2" width="16.821" height="16.821"/>
	<rect x="126.179" y="260.206" fill="#EDCDC2" width="16.821" height="16.821"/>
	<rect x="143" y="260.206" fill="#FCF7F4" width="16.82" height="16.821"/>
	<rect x="159.82" y="260.206" fill="#EDCDC2" width="16.822" height="16.821"/>
	<rect x="42.075" y="277.027" fill="#DF847C" width="16.821" height="16.82"/>
	<rect x="58.896" y="277.027" fill="#F8E8E4" width="16.82" height="16.82"/>
	<rect x="75.716" y="277.027" fill="#FFFFFF" width="16.821" height="16.82"/>
	<rect x="109.358" y="277.027" fill="#DF847C" width="16.821" height="16.82"/>
	<rect x="92.537" y="277.027" fill="#F8E8E4" width="16.821" height="16.82"/>
	<rect x="126.179" y="277.027" fill="#F8E8E4" width="16.821" height="16.82"/>
	<rect x="143" y="277.027" fill="#FFFFFF" width="16.82" height="16.82"/>
	<rect x="159.82" y="277.027" fill="#F8E8E4" width="16.822" height="16.82"/>
	<rect x="42.075" y="293.848" fill="#C84E44" width="16.821" height="6.152"/>
	<rect x="58.896" y="293.848" fill="#EDCDC2" width="16.82" height="6.152"/>
	<rect x="75.716" y="293.848" fill="#FCF7F4" width="16.821" height="6.152"/>
	<rect x="109.358" y="293.848" fill="#C84E44" width="16.821" height="6.152"/>
	<rect x="92.537" y="293.848" fill="#EDCDC2" width="16.821" height="6.152"/>
	<rect x="126.179" y="293.848" fill="#EDCDC2" width="16.821" height="6.152"/>
	<rect x="143" y="293.848" fill="#FCF7F4" width="16.82" height="6.152"/>
	<rect x="159.82" y="293.848" fill="#EDCDC2" width="16.822" height="6.152"/>
	<rect fill="#EDCDC2" width="8.433" height="7.895"/>
	<rect x="8.433" fill="#FCF7F4" width="16.821" height="7.895"/>
	<rect x="25.254" fill="#EDCDC2" width="16.821" height="7.895"/>
	<rect y="7.895" fill="#F8E8E4" width="8.433" height="16.82"/>
	<rect x="8.433" y="7.895" fill="#FFFFFF" width="16.821" height="16.82"/>
	<rect x="25.254" y="7.895" fill="#F8E8E4" width="16.821" height="16.82"/>
	<rect y="24.715" fill="#EDCDC2" width="8.433" height="16.821"/>
	<rect x="8.433" y="24.715" fill="#FCF7F4" width="16.821" height="16.821"/>
	<rect x="25.254" y="24.715" fill="#EDCDC2" width="16.821" height="16.821"/>
	<rect y="41.536" fill="#C84E44" width="8.433" height="16.821"/>
	<rect x="8.433" y="41.536" fill="#E0A697" width="16.821" height="16.821"/>
	<rect x="25.254" y="41.536" fill="#C84E44" width="16.821" height="16.821"/>
	<rect y="58.357" fill="#EDCDC2" width="8.433" height="16.821"/>
	<rect x="8.433" y="58.357" fill="#FCF7F4" width="16.821" height="16.821"/>
	<rect x="25.254" y="58.357" fill="#EDCDC2" width="16.821" height="16.821"/>
	<rect y="75.178" fill="#F8E8E4" width="8.433" height="16.821"/>
	<rect x="8.433" y="75.178" fill="#FFFFFF" width="16.821" height="16.821"/>
	<rect x="25.254" y="75.178" fill="#F8E8E4" width="16.821" height="16.821"/>
	<rect y="108.819" fill="#C84E44" width="8.433" height="16.821"/>
	<rect x="8.433" y="108.819" fill="#E0A697" width="16.821" height="16.821"/>
	<rect x="25.254" y="108.819" fill="#C84E44" width="16.821" height="16.821"/>
	<rect y="91.999" fill="#EDCDC2" width="8.433" height="16.82"/>
	<rect x="8.433" y="91.999" fill="#FCF7F4" width="16.821" height="16.82"/>
	<rect x="25.254" y="91.999" fill="#EDCDC2" width="16.821" height="16.82"/>
	<rect y="125.64" fill="#EDCDC2" width="8.433" height="16.821"/>
	<rect x="8.433" y="125.64" fill="#FCF7F4" width="16.821" height="16.821"/>
	<rect x="25.254" y="125.64" fill="#EDCDC2" width="16.821" height="16.821"/>
	<rect y="142.461" fill="#F8E8E4" width="8.433" height="16.82"/>
	<rect x="8.433" y="142.461" fill="#FFFFFF" width="16.821" height="16.82"/>
	<rect x="25.254" y="142.461" fill="#F8E8E4" width="16.821" height="16.82"/>
	<rect y="159.281" fill="#EDCDC2" width="8.433" height="16.822"/>
	<rect x="8.433" y="159.281" fill="#FCF7F4" width="16.821" height="16.822"/>
	<rect x="25.254" y="159.281" fill="#EDCDC2" width="16.821" height="16.822"/>
	<rect y="176.104" fill="#C84E44" width="8.433" height="16.819"/>
	<rect x="8.433" y="176.104" fill="#E0A697" width="16.821" height="16.819"/>
	<rect x="25.254" y="176.104" fill="#C84E44" width="16.821" height="16.819"/>
	<rect y="192.923" fill="#EDCDC2" width="8.433" height="16.821"/>
	<rect x="8.433" y="192.923" fill="#FCF7F4" width="16.821" height="16.821"/>
	<rect x="25.254" y="192.923" fill="#EDCDC2" width="16.821" height="16.821"/>
	<rect y="209.744" fill="#F8E8E4" width="8.433" height="16.82"/>
	<rect x="8.433" y="209.744" fill="#FFFFFF" width="16.821" height="16.82"/>
	<rect x="25.254" y="209.744" fill="#F8E8E4" width="16.821" height="16.82"/>
	<rect y="243.387" fill="#C84E44" width="8.433" height="16.819"/>
	<rect x="8.433" y="243.387" fill="#E0A697" width="16.821" height="16.819"/>
	<rect x="25.254" y="243.387" fill="#C84E44" width="16.821" height="16.819"/>
	<rect y="226.564" fill="#EDCDC2" width="8.433" height="16.822"/>
	<rect x="8.433" y="226.564" fill="#FCF7F4" width="16.821" height="16.822"/>
	<rect x="25.254" y="226.564" fill="#EDCDC2" width="16.821" height="16.822"/>
	<rect y="260.206" fill="#EDCDC2" width="8.433" height="16.821"/>
	<rect x="8.433" y="260.206" fill="#FCF7F4" width="16.821" height="16.821"/>
	<rect x="25.254" y="260.206" fill="#EDCDC2" width="16.821" height="16.821"/>
	<rect y="277.027" fill="#F8E8E4" width="8.433" height="16.82"/>
	<rect x="8.433" y="277.027" fill="#FFFFFF" width="16.821" height="16.82"/>
	<rect x="25.254" y="277.027" fill="#F8E8E4" width="16.821" height="16.82"/>
	<rect y="293.848" fill="#EDCDC2" width="8.433" height="6.152"/>
	<rect x="8.433" y="293.848" fill="#FCF7F4" width="16.821" height="6.152"/>
	<rect x="25.254" y="293.848" fill="#EDCDC2" width="16.821" height="6.152"/>
</g>
<g>
	<g>
		<path fill="none" d="M273.854,58.207c0.197,0.054,0.395,0.109,0.591,0.167C274.248,58.316,274.051,58.26,273.854,58.207z"/>
		<path fill="none" d="M284.181,63.686c0.179,0.153,0.358,0.304,0.533,0.462C284.539,63.99,284.359,63.838,284.181,63.686z"/>
		<path fill="none" d="M13.095,235.149c-0.07-0.071-0.138-0.146-0.207-0.218C12.957,235.004,13.024,235.078,13.095,235.149z"/>
		<path fill="none" d="M10.047,231.442c-0.013-0.019-0.026-0.036-0.039-0.055C10.021,231.406,10.035,231.424,10.047,231.442z"/>
		<path fill="none" d="M283.166,62.859c0.202,0.157,0.406,0.312,0.604,0.475C283.571,63.171,283.368,63.016,283.166,62.859z"/>
		<path fill="none" d="M272.607,57.898c0.203,0.045,0.406,0.09,0.607,0.14C273.014,57.989,272.811,57.943,272.607,57.898z"/>
		<path fill="none" d="M11.467,233.339c-0.034-0.041-0.066-0.085-0.1-0.126C11.401,233.254,11.433,233.298,11.467,233.339z"/>
		<path fill="none" d="M276.268,58.991c0.188,0.072,0.376,0.146,0.562,0.221C276.643,59.137,276.456,59.062,276.268,58.991z"/>
		<path fill="none" d="M277.437,59.465c0.184,0.08,0.365,0.164,0.547,0.248C277.802,59.628,277.62,59.545,277.437,59.465z"/>
		<path fill="none" d="M275.073,58.571c0.193,0.063,0.387,0.128,0.578,0.196C275.459,58.699,275.267,58.634,275.073,58.571z"/>
		<path fill="none" d="M278.574,59.99c0.181,0.089,0.358,0.183,0.537,0.275C278.933,60.173,278.755,60.079,278.574,59.99z"/>
		<path fill="none" d="M281.806,61.865c0.256,0.174,0.507,0.355,0.757,0.538C282.312,62.221,282.062,62.039,281.806,61.865z"/>
		<path fill="none" d="M280.761,61.192c0.181,0.11,0.357,0.228,0.535,0.343C281.118,61.42,280.941,61.303,280.761,61.192z"/>
		<path fill="none" d="M279.683,60.566c0.179,0.099,0.354,0.203,0.53,0.305C280.037,60.769,279.861,60.665,279.683,60.566z"/>
		<path fill="none" d="M6.882,225.142c-0.037-0.104-0.072-0.21-0.107-0.314C6.81,224.932,6.845,225.037,6.882,225.142z"/>
		<path fill="none" d="M271.336,57.648c0.209,0.036,0.419,0.071,0.627,0.112C271.755,57.72,271.546,57.685,271.336,57.648z"/>
		<path fill="none" d="M6.18,222.772c-0.024-0.1-0.046-0.2-0.069-0.301C6.134,222.572,6.155,222.673,6.18,222.772z"/>
		<path fill="none" d="M270.039,57.458c0.217,0.027,0.435,0.051,0.65,0.083C270.474,57.51,270.256,57.485,270.039,57.458z"/>
		<path fill="none" d="M293.583,84.069v132.289c0,14.809-12.006,26.814-26.815,26.814H32.217c-6.748,0-12.908-2.498-17.622-6.612
			c0.049,0.043,0.093,0.091,0.143,0.134c4.83,4.697,11.423,7.591,18.694,7.591h234.534c14.81,0,26.816-12.005,26.816-26.815V85.172
			c0-8.099-3.593-15.36-9.269-20.277c-0.131-0.128-0.268-0.25-0.4-0.375C290.323,69.413,293.583,76.358,293.583,84.069z"/>
		<path fill="none" d="M7.78,227.394c-0.042-0.094-0.086-0.188-0.127-0.281C7.694,227.207,7.737,227.3,7.78,227.394z"/>
		<path fill="none" d="M8.85,229.506c-0.038-0.067-0.078-0.133-0.116-0.201C8.771,229.373,8.812,229.438,8.85,229.506z"/>
		<path fill="none" d="M268.701,57.33c0.232,0.017,0.465,0.03,0.694,0.053C269.166,57.36,268.934,57.347,268.701,57.33z"/>
		<path fill="#FFDDB0" d="M268.055,57.284c0.01,0,0.02,0.001,0.029,0.002c0.207,0.01,0.411,0.029,0.617,0.044
			c0.232,0.017,0.465,0.03,0.694,0.053c0.216,0.021,0.429,0.05,0.644,0.076c0.217,0.027,0.435,0.051,0.65,0.083
			c0.217,0.032,0.432,0.07,0.646,0.107c0.21,0.036,0.419,0.071,0.627,0.112c0.216,0.042,0.43,0.09,0.645,0.138
			c0.203,0.045,0.406,0.09,0.607,0.14c0.214,0.053,0.427,0.11,0.639,0.168c0.197,0.054,0.395,0.109,0.591,0.167
			c0.211,0.063,0.42,0.129,0.629,0.197c0.193,0.063,0.386,0.128,0.578,0.196c0.207,0.072,0.412,0.147,0.616,0.224
			c0.188,0.071,0.375,0.146,0.562,0.221c0.204,0.083,0.406,0.166,0.607,0.253c0.184,0.08,0.365,0.164,0.547,0.248
			c0.198,0.091,0.396,0.182,0.591,0.278c0.181,0.089,0.358,0.183,0.537,0.275c0.191,0.099,0.383,0.197,0.571,0.301
			c0.179,0.099,0.354,0.203,0.53,0.305c0.184,0.106,0.367,0.21,0.548,0.321c0.181,0.11,0.357,0.228,0.535,0.343
			c0.17,0.11,0.342,0.216,0.51,0.33c0.256,0.174,0.507,0.355,0.757,0.538c0.204,0.149,0.404,0.301,0.604,0.456
			c0.202,0.157,0.405,0.312,0.604,0.475c0.14,0.115,0.274,0.234,0.411,0.352c0.179,0.153,0.358,0.304,0.533,0.462
			c0.136,0.122,0.267,0.249,0.399,0.373c0.133,0.125,0.27,0.247,0.4,0.375c5.676,4.917,9.269,12.178,9.269,20.277v132.297
			c0,14.811-12.007,26.815-26.816,26.815H33.432c-7.271,0-13.864-2.894-18.694-7.591c-0.049-0.043-0.093-0.091-0.143-0.134
			c-0.518-0.452-1.019-0.921-1.5-1.41c-0.07-0.071-0.138-0.146-0.207-0.218c-0.493-0.513-0.97-1.041-1.421-1.593
			c-0.034-0.041-0.066-0.085-0.1-0.126c-0.463-0.572-0.904-1.161-1.32-1.771c-0.013-0.019-0.026-0.036-0.039-0.055
			c-0.413-0.608-0.796-1.238-1.159-1.882c-0.038-0.067-0.078-0.133-0.116-0.201c-0.344-0.622-0.66-1.26-0.954-1.911
			c-0.042-0.094-0.086-0.187-0.127-0.281c-0.282-0.645-0.539-1.302-0.771-1.971c-0.037-0.104-0.072-0.21-0.107-0.314
			c-0.224-0.674-0.424-1.358-0.595-2.055c-0.024-0.1-0.046-0.2-0.069-0.301c-0.167-0.714-0.31-1.437-0.418-2.171
			c-0.003-0.022-0.009-0.044-0.013-0.066c1.393,14.086,13.307,25.123,27.752,25.123h234.533c15.378,0,27.889-12.512,27.889-27.89
			V85.172C295.854,69.825,283.391,57.333,268.055,57.284z"/>
		<path fill="#FFDDB0" d="M6.18,222.772c0.171,0.696,0.371,1.381,0.595,2.055c0.035,0.104,0.07,0.21,0.107,0.314
			c0.232,0.669,0.488,1.326,0.771,1.971c0.042,0.094,0.085,0.188,0.127,0.281c0.294,0.65,0.61,1.289,0.954,1.911
			c0.038,0.068,0.078,0.134,0.116,0.201c0.363,0.644,0.746,1.273,1.159,1.882c0.012,0.019,0.026,0.036,0.039,0.055
			c0.416,0.609,0.857,1.198,1.32,1.771c0.034,0.041,0.065,0.085,0.1,0.126c0.451,0.552,0.928,1.08,1.421,1.593
			c0.069,0.072,0.137,0.146,0.207,0.218c0.481,0.489,0.983,0.958,1.5,1.41c4.713,4.114,10.874,6.612,17.622,6.612h234.551
			c14.81,0,26.815-12.006,26.815-26.814V84.069c0-7.711-3.26-14.656-8.47-19.548c-0.133-0.125-0.264-0.251-0.399-0.373
			c-0.175-0.158-0.354-0.309-0.533-0.462c-0.137-0.117-0.271-0.238-0.411-0.352c-0.197-0.163-0.401-0.318-0.604-0.475
			c-0.199-0.154-0.399-0.307-0.604-0.456c-0.25-0.183-0.501-0.364-0.757-0.538c-0.168-0.114-0.34-0.22-0.51-0.33
			c-0.178-0.115-0.354-0.232-0.535-0.343c-0.181-0.111-0.364-0.215-0.548-0.321c-0.176-0.102-0.352-0.206-0.53-0.305
			c-0.188-0.104-0.38-0.202-0.571-0.301c-0.179-0.093-0.356-0.187-0.537-0.275c-0.195-0.096-0.394-0.187-0.591-0.278
			c-0.182-0.084-0.363-0.167-0.547-0.248c-0.201-0.087-0.403-0.17-0.607-0.253c-0.186-0.075-0.373-0.149-0.562-0.221
			c-0.204-0.078-0.41-0.152-0.616-0.224c-0.191-0.067-0.385-0.133-0.578-0.196c-0.209-0.068-0.418-0.134-0.629-0.197
			c-0.196-0.058-0.394-0.114-0.591-0.167c-0.212-0.058-0.425-0.115-0.639-0.168c-0.201-0.05-0.404-0.095-0.607-0.14
			c-0.215-0.048-0.429-0.096-0.645-0.138c-0.208-0.041-0.418-0.076-0.627-0.112c-0.215-0.037-0.43-0.075-0.646-0.107
			c-0.216-0.032-0.434-0.056-0.65-0.083c-0.215-0.026-0.428-0.055-0.644-0.076c-0.229-0.022-0.462-0.036-0.694-0.053
			c-0.206-0.015-0.41-0.034-0.617-0.044c-0.437-0.021-0.875-0.033-1.316-0.033H32.217c-14.81,0-26.815,12.006-26.815,26.816v132.289
			c0,1.34,0.102,2.656,0.291,3.943c0.108,0.734,0.251,1.458,0.418,2.171C6.134,222.572,6.155,222.673,6.18,222.772z M27.062,106.983
			c0-3.752,3.041-6.793,6.793-6.793s6.794,3.042,6.794,6.793v95.828c0,3.752-3.042,6.793-6.794,6.793s-6.793-3.041-6.793-6.793
			V106.983z"/>
		<path fill="#FFDDB0" d="M276.829,59.212c0.204,0.083,0.406,0.166,0.607,0.253C277.235,59.378,277.033,59.294,276.829,59.212z"/>
		<path fill="#FFDDB0" d="M268.084,57.286c0.207,0.01,0.411,0.029,0.617,0.044C268.495,57.315,268.291,57.296,268.084,57.286z"/>
		<path fill="#FFDDB0" d="M269.396,57.383c0.216,0.021,0.429,0.05,0.644,0.076C269.824,57.433,269.611,57.404,269.396,57.383z"/>
		<path fill="#FFDDB0" d="M270.689,57.542c0.217,0.032,0.432,0.07,0.646,0.107C271.121,57.611,270.906,57.573,270.689,57.542z"/>
		<path fill="#FFDDB0" d="M271.963,57.761c0.216,0.042,0.43,0.09,0.645,0.138C272.393,57.851,272.179,57.803,271.963,57.761z"/>
		<path fill="#FFDDB0" d="M274.444,58.374c0.211,0.063,0.42,0.129,0.629,0.197C274.864,58.503,274.655,58.437,274.444,58.374z"/>
		<path fill="#FFDDB0" d="M273.215,58.039c0.214,0.053,0.427,0.11,0.639,0.168C273.642,58.148,273.429,58.091,273.215,58.039z"/>
		<path fill="#FFDDB0" d="M275.651,58.767c0.206,0.072,0.412,0.146,0.616,0.224C276.063,58.914,275.858,58.839,275.651,58.767z"/>
		<path fill="#FFDDB0" d="M280.213,60.871c0.184,0.106,0.367,0.21,0.548,0.321C280.58,61.082,280.396,60.978,280.213,60.871z"/>
		<path fill="#FFDDB0" d="M8.734,229.305c-0.344-0.622-0.66-1.261-0.954-1.911C8.074,228.045,8.39,228.683,8.734,229.305z"/>
		<path fill="#FFDDB0" d="M12.888,234.932c-0.493-0.513-0.97-1.041-1.421-1.593C11.918,233.891,12.395,234.419,12.888,234.932z"/>
		<path fill="#FFDDB0" d="M277.983,59.712c0.197,0.091,0.396,0.182,0.591,0.278C278.379,59.895,278.182,59.804,277.983,59.712z"/>
		<path fill="#FFDDB0" d="M10.009,231.388c-0.413-0.608-0.796-1.238-1.159-1.882C9.212,230.149,9.596,230.779,10.009,231.388z"/>
		<path fill="#FFDDB0" d="M5.693,220.301c0.108,0.734,0.251,1.457,0.418,2.171C5.944,221.759,5.801,221.035,5.693,220.301z"/>
		<path fill="#FFDDB0" d="M6.775,224.827c-0.224-0.674-0.424-1.358-0.595-2.055C6.351,223.469,6.551,224.153,6.775,224.827z"/>
		<path fill="#FFDDB0" d="M7.652,227.112c-0.282-0.645-0.539-1.302-0.771-1.971C7.114,225.811,7.37,226.468,7.652,227.112z"/>
		<path fill="#FFDDB0" d="M11.367,233.213c-0.463-0.572-0.904-1.161-1.32-1.771C10.463,232.052,10.904,232.641,11.367,233.213z"/>
		<path fill="#FFDDB0" d="M282.562,62.403c0.204,0.149,0.404,0.301,0.604,0.456C282.967,62.705,282.767,62.552,282.562,62.403z"/>
		<path fill="#FFDDB0" d="M14.595,236.56c-0.517-0.452-1.019-0.921-1.5-1.41C13.576,235.639,14.078,236.107,14.595,236.56z"/>
		<path fill="#FFDDB0" d="M279.111,60.266c0.191,0.099,0.383,0.197,0.571,0.301C279.494,60.463,279.303,60.365,279.111,60.266z"/>
		<path fill="#FFDDB0" d="M281.296,61.535c0.17,0.11,0.342,0.216,0.51,0.33C281.638,61.751,281.466,61.645,281.296,61.535z"/>
		<path fill="#FFDDB0" d="M284.714,64.147c0.136,0.122,0.267,0.249,0.399,0.373C284.98,64.396,284.85,64.269,284.714,64.147z"/>
		<path fill="#FFDDB0" d="M283.77,63.333c0.14,0.114,0.274,0.235,0.411,0.352C284.044,63.568,283.909,63.448,283.77,63.333z"/>
	</g>
	<g>
		<path fill="#FFDDB0" d="M267.965,58.356H33.432c-14.81,0-26.815,12.006-26.815,26.815v132.297
			c0,14.81,12.005,26.815,26.815,26.815h234.533c14.811,0,26.816-12.006,26.816-26.815V85.172
			C294.781,70.362,282.773,58.356,267.965,58.356z M39.435,201.699c0,3.751-3.041,6.793-6.793,6.793s-6.793-3.042-6.793-6.793
			v-95.82c0-3.752,3.042-6.793,6.793-6.793c3.752,0,6.793,3.041,6.793,6.793V201.699z"/>
	</g>
	<g>
		<path fill="#9B857E" d="M30.497,208.146c0.674,0.225,1.395,0.346,2.144,0.346c0.146,0,0.292-0.006,0.436-0.014
			c-2.788-0.381-4.942-2.778-4.942-5.668v-95.829c0-3.155,2.566-5.721,5.721-5.721c2.715,0,4.994,1.9,5.577,4.441
			c-0.042-1.629-0.656-3.115-1.65-4.265c-1.11-0.786-2.465-1.248-3.928-1.248c-3.752,0-6.793,3.042-6.793,6.793v95.829
			c0,1.688,0.616,3.231,1.635,4.42C29.242,207.62,29.848,207.932,30.497,208.146z"/>
		<path fill="#9B857E" d="M285.514,64.895c1.729,1.69,3.229,3.613,4.452,5.716c0.151,0.26,0.298,0.522,0.44,0.788
			c2.027,3.773,3.177,8.088,3.177,12.671v59.803v72.486c0,14.809-12.007,26.813-26.815,26.813H32.217
			c-6.678,0-12.786-2.44-17.479-6.479c4.83,4.699,11.424,7.592,18.694,7.592h234.533c14.811,0,26.816-12.006,26.816-26.814V85.172
			C294.781,77.073,291.189,69.812,285.514,64.895z"/>
	</g>
</g>
</svg>
