<?xml version="1.0" encoding="utf-8"?>
<!-- Generator: Adobe Illustrator 16.0.0, SVG Export Plug-In . SVG Version: 6.00 Build 0)  -->
<!DOCTYPE svg PUBLIC "-//W3C//DTD SVG 1.1//EN" "http://www.w3.org/Graphics/SVG/1.1/DTD/svg11.dtd">
<svg version="1.1" xmlns="http://www.w3.org/2000/svg" xmlns:xlink="http://www.w3.org/1999/xlink" x="0px" y="0px" width="300px"
	 height="372px" viewBox="0 0 300 372" enable-background="new 0 0 300 372" xml:space="preserve">
<g id="Layer_1" display="none">
	<path display="inline" fill="#FFFFFF" stroke="#000000" stroke-miterlimit="10" d="M263,154c0-30.928-50.145-56-112-56
		S39,123.072,39,154"/>
	<ellipse display="inline" fill="#C4C6C8" cx="151.198" cy="140.645" rx="99.036" ry="36.834"/>
	<path display="inline" fill="#FFFFFF" stroke="#000000" stroke-miterlimit="10" d="M151,217"/>
	<ellipse display="inline" fill="#FFFFFF" cx="161.52" cy="144.531" rx="99.036" ry="36.834"/>
	<path display="inline" fill="#D1D3D4" d="M39,154c0,21.46,112,42.921,112,52c0-9.905,112-30.54,112-52c0,26-112,51-112,63
		C151,206,39,180,39,154z"/>
	<path display="inline" fill="#808285" d="M108.018,196.206c0,0,0-1.912,0-6.84s0.815-8,0.815-8c-4.625,0-6.961,3.539-6.961,9.302
		c0,0.712,0,1.26,0,1.677c0,0.895,3.48,2.703,3.48,2.703"/>
	<path display="inline" fill="#808285" d="M135,209.568c0,0,0-3.5,0-11.037s0-14.385,0-14.385c-4.625,0-5.863,7.573-6.146,16.375
		c-0.052,1.625-0.053,3.064-0.04,4.104c0.013,1.065,4.312,3.861,4.312,3.86"/>
	<path display="inline" fill="#808285" d="M82.5,185.29c0,0,0-2.242,0-5.501c0-3.26,2-6.274,2-6.274c-4.625,0-7.73,3.043-7.73,6.362
		c0,0.258,0,1.933,0,2.226c0,0.354,3.112,2.042,3.112,2.042"/>
	<path display="inline" fill="#808285" d="M63.75,176.696c0,0,0-1.809,0-4.213c0-3.946,3.221-5.797,3.221-5.797
		c-4.071-1.184-8.096,1.259-8.096,5.461c0,0.14,0,0.547,0,0.648c0,0.899,3.019,2.882,3.019,2.882"/>
	<path display="inline" fill="#808285" d="M49.5,168.408c0,0,0-1.546,0-4.961c0-4.167,3.621-5.185,3.621-5.185
		c-4.257-1.262-8.184,0.094-8.467,4.405c-0.02,0.301-0.032,0.547-0.039,0.749c-0.031,0.875,2.022,2.688,2.022,2.688"/>
	<path display="inline" fill="#808285" d="M196.086,195.185c0,0,0-1.912,0-6.84s-0.816-8-0.816-8c4.625,0,6.962,3.539,6.962,9.302
		c0,0.712,0,1.26,0,1.677c0,0.895-3.48,2.703-3.48,2.703"/>
	<path display="inline" fill="#808285" d="M169.104,208.547c0,0,0-3.5,0-11.037s0-14.385,0-14.385c4.625,0,5.863,7.573,6.146,16.375
		c0.052,1.625,0.053,3.064,0.039,4.104c-0.013,1.065-4.312,3.861-4.312,3.86"/>
	<path display="inline" fill="#808285" d="M221.604,184.269c0,0,0-2.242,0-5.501c0-3.26-2-6.274-2-6.274
		c4.625,0,7.73,3.043,7.73,6.362c0,0.258,0,1.933,0,2.226c0,0.354-3.111,2.042-3.111,2.042"/>
	<path display="inline" fill="#808285" d="M240.354,175.675c0,0,0-1.809,0-4.213c0-3.946-3.221-5.797-3.221-5.797
		c4.071-1.184,8.096,1.259,8.096,5.461c0,0.14,0,0.547,0,0.648c0,0.899-3.019,2.882-3.019,2.882"/>
	<path display="inline" fill="#808285" d="M254.604,167.387c0,0,0-1.546,0-4.961c0-4.167-3.621-5.185-3.621-5.185
		c4.257-1.262,8.184,0.094,8.467,4.405c0.02,0.301,0.032,0.547,0.039,0.749c0.031,0.875-2.022,2.688-2.022,2.688"/>
	<g display="inline">
		<defs>
			<path id="SVGID_1_" d="M151,217c0-11-112-37-112-63v74c0,26,112,63.333,112,74c0-11.333,112-48,112-74v-74
				C263,180,151,205,151,217"/>
		</defs>
		<clipPath id="SVGID_2_">
			<use xlink:href="#SVGID_1_"  overflow="visible"/>
		</clipPath>
		<rect x="69.903" y="180.344" clip-path="url(#SVGID_2_)" fill="#EDEEEE" width="38.931" height="103.656"/>
		<rect x="52.162" y="165.172" clip-path="url(#SVGID_2_)" fill="#DADBDC" width="17.741" height="103.656"/>
		<rect x="151.198" y="181.365" clip-path="url(#SVGID_2_)" fill="#DDDEDF" width="76.136" height="123.74"/>
		<rect x="227.334" y="163.109" clip-path="url(#SVGID_2_)" fill="#CBCDCF" width="17.734" height="123.74"/>
		<rect x="254.133" y="140.645" clip-path="url(#SVGID_2_)" fill="#CBCDCF" width="6.424" height="123.74"/>
		<rect x="244.126" y="144.532" clip-path="url(#SVGID_2_)" fill="#BFC1C3" width="11.109" height="123.74"/>
		<rect x="151" y="186.042" clip-path="url(#SVGID_2_)" fill="#BFC1C3" width="11.109" height="123.74"/>
		<rect x="108.018" y="196.206" clip-path="url(#SVGID_2_)" fill="#FFFFFF" width="43.18" height="107.794"/>
	</g>
	<path display="inline" fill="#939598" d="M151,302c0-10.667-112-48-112-74v7.441c0,23.386,112,56.966,112,66.561
		c0-10.193,112-43.175,112-66.561V228C263,254,151,290.667,151,302z"/>
	<path display="inline" fill="none" stroke="#000000" stroke-miterlimit="10" d="M151,217c0-11-112-37-112-63v74
		c0,26,112,63.333,112,74c0-11.333,112-48,112-74v-74C263,180,151,205,151,217"/>
	<path display="inline" fill="#939598" d="M282.219,333H28.278c-9.384,0-16.991,6.61-16.991,14.763s7.607,14.761,16.991,14.761
		h113.924c6.104,0,11.455-2.796,14.451-6.995l0.042-0.137c2.895-4.548,8.473-7.629,14.88-7.629v-0.001h110.644
		c4.691,0,8.495-3.304,8.495-7.381C290.714,336.306,286.91,333,282.219,333z"/>
	<g display="inline">
		<defs>
			<path id="SVGID_3_" d="M282.219,327.403H28.278c-9.384,0-16.991,7.608-16.991,16.993c0,9.383,7.607,16.989,16.991,16.989h113.924
				c6.104,0,11.455-3.218,14.451-8.051l0.042-0.158c2.895-5.234,8.473-8.78,14.88-8.78v-0.001h110.644
				c4.691,0,8.495-3.804,8.495-8.496C290.714,331.208,286.91,327.403,282.219,327.403z"/>
		</defs>
		<clipPath id="SVGID_4_">
			<use xlink:href="#SVGID_3_"  overflow="visible"/>
		</clipPath>
		<rect x="-14" y="319.334" clip-path="url(#SVGID_4_)" fill="#EDEEEE" width="326" height="20.666"/>
		<rect x="-14" y="340" clip-path="url(#SVGID_4_)" fill="#F1F2F2" width="326" height="26"/>
		<polygon clip-path="url(#SVGID_4_)" fill="#DADBDC" points="68.674,384.036 -44.667,384.036 3.728,338.735 117.069,338.735 		"/>
		<polygon clip-path="url(#SVGID_4_)" fill="#BFC1C3" points="76.77,385.334 66.971,385.334 115.366,340.033 125.165,340.033 		"/>
		<polygon clip-path="url(#SVGID_4_)" fill="#FFFFFF" points="179.452,339.334 169.653,339.334 218.049,294.033 227.848,294.033 		
			"/>
		<rect x="-6" y="333" clip-path="url(#SVGID_4_)" fill="#FFFFFF" width="318" height="6"/>
		<polygon clip-path="url(#SVGID_4_)" fill="#C9CACC" points="362,344.395 156.695,353.177 162.786,342.801 169.104,338.395 
			362,338.395 		"/>
		<path clip-path="url(#SVGID_4_)" fill="none" stroke="#000000" stroke-miterlimit="10" d="M282.219,327.403H28.278
			c-9.384,0-16.991,7.608-16.991,16.993c0,9.383,7.607,16.989,16.991,16.989h113.924c6.104,0,11.455-3.218,14.451-8.051l0.042-0.158
			c2.895-5.234,8.473-8.78,14.88-8.78v-0.001h110.644c4.691,0,8.495-3.804,8.495-8.496
			C290.714,331.208,286.91,327.403,282.219,327.403z"/>
	</g>
</g>
<g id="Layer_2" display="none">
	<path display="inline" fill="#FFFFFF" stroke="#000000" stroke-miterlimit="10" d="M263,154c0-30.928,22.333-76.667-112-76.667
		C17,77.333,39,123.072,39,154"/>
	<ellipse display="inline" fill="#C4C6C8" cx="151.198" cy="100.986" rx="99.036" ry="32.375"/>
	<path display="inline" fill="#FFFFFF" stroke="#000000" stroke-miterlimit="10" d="M151,217"/>
	<ellipse display="inline" fill="#FFFFFF" cx="161.52" cy="104.401" rx="99.036" ry="32.375"/>
	<path display="inline" fill="#D1D3D4" d="M39,154c0,21.46,112,42.921,112,52c0-9.905,112-30.54,112-52c0,26-112,51-112,63
		C151,206,39,180,39,154z"/>
	<path display="inline" fill="#E6E7E8" d="M263,154c0,21.46-112,42.095-112,52c0,0,6.679-64.987,43.296-71.238
		c35.704-6.095,71.09-28.033,64.219-36.931c5.818,9.502,5.876,25.502,5.876,25.502L263,154"/>
	<path display="inline" fill="#808285" d="M108.018,196.206c0,0,0-1.912,0-6.84s0.815-54.604,0.815-54.604
		c-4.625,0-6.961,3.539-6.961,9.302c0,0.712,0,1.26,0,1.677c0,0.895,3.48,49.306,3.48,49.306"/>
	<path display="inline" fill="#808285" d="M135,209.568c0,0,0-3.5,0-11.037s0-60.988,0-60.988c-4.625,0-5.863,7.573-6.146,16.375
		c-0.052,1.625-0.053,3.064-0.04,4.104c0.013,1.065,4.312,50.464,4.312,50.463"/>
	<path display="inline" fill="#808285" d="M82.5,185.29c0,0,0-48.845,0-52.104c0-3.26,2-6.274,2-6.274
		c-4.625,0-7.73,3.043-7.73,6.362c0,0.258,0,1.933,0,2.226c0,0.354,3.112,48.646,3.112,48.646"/>
	<path display="inline" fill="#808285" d="M63.75,176.696c0,0,0-48.412,0-50.816c0-3.946,3.221-5.797,3.221-5.797
		c-4.071-1.184-8.096,1.259-8.096,5.461c0,0.14,0,0.547,0,0.648c0,0.899,3.019,49.485,3.019,49.485"/>
	<path display="inline" fill="#808285" d="M49.5,168.408c0,0,0-48.149,0-51.564c0-4.167,3.621-5.185,3.621-5.185
		c-4.257-1.262-8.184,0.094-8.467,4.405c-0.02,0.301-0.032,0.547-0.039,0.749c-0.031,0.875,2.022,49.291,2.022,49.291"/>
	<path display="inline" fill="#808285" d="M195.111,196.206c0,0,0-1.912,0-6.84s-0.815-54.604-0.815-54.604
		c4.625,0,6.962,3.539,6.962,9.302c0,0.712,0,1.26,0,1.677c0,0.895-3.48,49.306-3.48,49.306"/>
	<path display="inline" fill="#808285" d="M168.129,209.568c0,0,0-3.5,0-11.037s0-60.988,0-60.988c4.625,0,5.863,7.573,6.146,16.375
		c0.053,1.625,0.053,3.064,0.039,4.104c-0.012,1.065-4.311,50.464-4.311,50.463"/>
	<path display="inline" fill="#808285" d="M220.629,185.29c0,0,0-48.845,0-52.104c0-3.26-2-6.274-2-6.274
		c4.625,0,7.73,3.043,7.73,6.362c0,0.258,0,1.933,0,2.226c0,0.354-3.111,48.646-3.111,48.646"/>
	<path display="inline" fill="#808285" d="M239.379,176.696c0,0,0-48.412,0-50.816c0-3.946-3.221-5.797-3.221-5.797
		c4.072-1.184,8.096,1.259,8.096,5.461c0,0.14,0,0.547,0,0.648c0,0.899-3.018,49.485-3.018,49.485"/>
	<path display="inline" fill="#808285" d="M253.629,168.408c0,0,0-48.149,0-51.564c0-4.167-3.621-5.185-3.621-5.185
		c4.258-1.262,8.186,0.094,8.467,4.405c0.021,0.301,0.033,0.547,0.039,0.749c0.031,0.875-2.021,49.291-2.021,49.291"/>
	<g display="inline">
		<defs>
			<path id="SVGID_5_" d="M151,217c0-11-112-37-112-63v74c0,26,112,63.333,112,74c0-11.333,112-48,112-74v-74
				C263,180,151,205,151,217"/>
		</defs>
		<clipPath id="SVGID_6_">
			<use xlink:href="#SVGID_5_"  overflow="visible"/>
		</clipPath>
		<rect x="69.903" y="180.344" clip-path="url(#SVGID_6_)" fill="#EDEEEE" width="38.931" height="103.656"/>
		<rect x="52.162" y="165.172" clip-path="url(#SVGID_6_)" fill="#DADBDC" width="17.741" height="103.656"/>
		<rect x="151.198" y="181.365" clip-path="url(#SVGID_6_)" fill="#DDDEDF" width="76.136" height="123.74"/>
		<rect x="227.334" y="163.109" clip-path="url(#SVGID_6_)" fill="#CBCDCF" width="17.734" height="123.74"/>
		<rect x="254.133" y="140.645" clip-path="url(#SVGID_6_)" fill="#CBCDCF" width="6.424" height="123.74"/>
		<rect x="244.126" y="144.532" clip-path="url(#SVGID_6_)" fill="#BFC1C3" width="11.109" height="123.74"/>
		<rect x="151" y="186.042" clip-path="url(#SVGID_6_)" fill="#BFC1C3" width="11.109" height="123.74"/>
		<rect x="108.018" y="196.206" clip-path="url(#SVGID_6_)" fill="#FFFFFF" width="43.18" height="107.794"/>
	</g>
	<path display="inline" fill="#939598" d="M151,302c0-10.667-112-48-112-74v7.441c0,23.386,112,56.966,112,66.561
		c0-10.193,112-43.175,112-66.561V228C263,254,151,290.667,151,302z"/>
	<path display="inline" fill="none" stroke="#000000" stroke-miterlimit="10" d="M151,217c0-11-112-37-112-63v74
		c0,26,112,63.333,112,74c0-11.333,112-48,112-74v-74C263,180,151,205,151,217"/>
</g>
<g id="Layer_2_copy">
	<path fill="#FFFFFF" stroke="#000000" stroke-miterlimit="10" d="M263,80.289C263,37.508,285.333,18,151,18C12,18,39,27,39,154"/>
	<ellipse fill="#C4C6C8" cx="151.198" cy="37.508" rx="99.036" ry="26.125"/>
	<path fill="#FFFFFF" stroke="#000000" stroke-miterlimit="10" d="M151,217"/>
	<ellipse fill="#FFFFFF" cx="161.52" cy="40.265" rx="99.036" ry="26.125"/>
	<path fill="#D1D3D4" d="M39,154c0,21.46,112,42.921,112,52c0-9.905,112-30.54,112-52c0,26-112,51-112,63C151,206,39,180,39,154z"/>
	<path fill="#E6E7E8" d="M263,154c0,21.46-112,42.095-112,52c0,0,6.679-130.938,43.296-137.188
		c35.704-6.095,71.09-28.033,64.219-36.931c5.818,9.502,5.876,25.502,5.876,25.502L263,88.049"/>
	<path fill="#808285" d="M108.018,196.206c0,0,0-1.912,0-6.84s0.815-120.554,0.815-120.554c-4.625,0-6.961,3.539-6.961,9.302
		c0,0.712,0,1.26,0,1.677c0,0.895,3.48,115.256,3.48,115.256"/>
	<path fill="#808285" d="M135,209.568c0,0,0-3.5,0-11.037s0-126.939,0-126.939c-4.625,0-5.863,7.573-6.146,16.375
		c-0.052,1.625-0.053,3.064-0.04,4.104c0.013,1.065,4.312,116.415,4.312,116.414"/>
	<path fill="#808285" d="M82.5,185.29c0,0,0-114.795,0-118.055c0-3.26,2-6.274,2-6.274c-4.625,0-7.73,3.043-7.73,6.362
		c0,0.258,0,1.933,0,2.226c0,0.354,3.112,114.596,3.112,114.596"/>
	<path fill="#808285" d="M63.75,176.696c0,0,0-114.363,0-116.767c0-3.946,3.221-5.797,3.221-5.797
		c-4.071-1.184-8.096,1.259-8.096,5.461c0,0.14,0,0.547,0,0.648c0,0.899,3.019,115.436,3.019,115.436"/>
	<path fill="#808285" d="M49.5,168.408c0,0,0-114.1,0-117.515c0-4.167,3.621-5.185,3.621-5.185
		c-4.257-1.262-8.184,0.094-8.467,4.405c-0.02,0.301-0.032,0.547-0.039,0.749c-0.031,0.875,2.022,115.242,2.022,115.242"/>
	<path fill="#808285" d="M195.111,196.206c0,0,0-1.912,0-6.84s-0.815-120.554-0.815-120.554c4.625,0,6.962,3.539,6.962,9.302
		c0,0.712,0,1.26,0,1.677c0,0.895-3.48,115.256-3.48,115.256"/>
	<path fill="#808285" d="M168.129,209.568c0,0,0-3.5,0-11.037s0-126.939,0-126.939c4.625,0,5.863,7.573,6.146,16.375
		c0.053,1.625,0.053,3.064,0.039,4.104c-0.012,1.065-4.311,116.415-4.311,116.414"/>
	<path fill="#808285" d="M220.629,185.29c0,0,0-114.795,0-118.055c0-3.26-2-6.274-2-6.274c4.625,0,7.73,3.043,7.73,6.362
		c0,0.258,0,1.933,0,2.226c0,0.354-3.111,114.596-3.111,114.596"/>
	<path fill="#808285" d="M239.379,176.696c0,0,0-114.363,0-116.767c0-3.946-3.221-5.797-3.221-5.797
		c4.072-1.184,8.096,1.259,8.096,5.461c0,0.14,0,0.547,0,0.648c0,0.899-3.018,115.436-3.018,115.436"/>
	<path fill="#808285" d="M253.629,168.408c0,0,0-114.1,0-117.515c0-4.167-3.621-5.185-3.621-5.185
		c4.258-1.262,8.186,0.094,8.467,4.405c0.021,0.301,0.033,0.547,0.039,0.749c0.031,0.875-2.021,115.242-2.021,115.242"/>
	<g>
		<defs>
			<path id="SVGID_7_" d="M151,217c0-11-112-37-112-63v74c0,26,112,63.333,112,74c0-11.333,112-48,112-74v-74
				C263,180,151,205,151,217"/>
		</defs>
		<clipPath id="SVGID_8_">
			<use xlink:href="#SVGID_7_"  overflow="visible"/>
		</clipPath>
		<rect x="69.903" y="180.344" clip-path="url(#SVGID_8_)" fill="#EDEEEE" width="38.931" height="103.656"/>
		<rect x="52.162" y="165.172" clip-path="url(#SVGID_8_)" fill="#DADBDC" width="17.741" height="103.656"/>
		<rect x="151.198" y="181.365" clip-path="url(#SVGID_8_)" fill="#DDDEDF" width="76.136" height="123.74"/>
		<rect x="227.334" y="163.109" clip-path="url(#SVGID_8_)" fill="#CBCDCF" width="17.734" height="123.74"/>
		<rect x="254.133" y="140.645" clip-path="url(#SVGID_8_)" fill="#CBCDCF" width="6.424" height="123.74"/>
		<rect x="244.126" y="144.532" clip-path="url(#SVGID_8_)" fill="#BFC1C3" width="11.109" height="123.74"/>
		<rect x="151" y="186.042" clip-path="url(#SVGID_8_)" fill="#BFC1C3" width="11.109" height="123.74"/>
		<rect x="108.018" y="196.206" clip-path="url(#SVGID_8_)" fill="#FFFFFF" width="43.18" height="107.794"/>
	</g>
	<path fill="#939598" d="M151,302c0-10.667-112-48-112-74v7.441c0,23.386,112,56.966,112,66.561c0-10.193,112-43.175,112-66.561V228
		C263,254,151,290.667,151,302z"/>
	<path fill="none" stroke="#000000" stroke-miterlimit="10" d="M151,217c0-11-112-37-112-63v74c0,26,112,63.333,112,74
		c0-11.333,112-48,112-74v-74C263,180,151,205,151,217"/>
</g>
</svg>
