<?xml version="1.0" encoding="utf-8"?>
<!-- Generator: Adobe Illustrator 16.0.0, SVG Export Plug-In . SVG Version: 6.00 Build 0)  -->
<!DOCTYPE svg PUBLIC "-//W3C//DTD SVG 1.1//EN" "http://www.w3.org/Graphics/SVG/1.1/DTD/svg11.dtd">
<svg version="1.1" id="Layer_1" xmlns="http://www.w3.org/2000/svg" xmlns:xlink="http://www.w3.org/1999/xlink" x="0px" y="0px"
	 width="100px" height="100px" viewBox="0 0 100 100" enable-background="new 0 0 100 100" xml:space="preserve">
<g>
	<path d="M78.984,65.268c1.773,2.05,3.369,3.865,4.763,5.38l1.001-1.032l2.208,2.176l-0.807,0.823l7.519,3.871l6.188,11.145
		l-9.784-9.659c0,0-0.211-1.869-1.327-0.898c-1.114,0.987,0.755,1.323,0.755,1.323l9.427,9.884l-11.193-6.136l-3.679-7.396
		l-0.893,0.906l-1.979-2.363l0.595-0.617c-1.29-1.534-5.191-4.646-8.024-6.479c-3.404-2.202-8.78-5.723-17.525-7.621
		c-8.746-1.894-12.012-5.577-15.104-6.846c-3.096-1.27,1.993-1.542,6.098-2.215c-1.257-0.902-8.434,0.156-9.512-1
		c-3.773-2.711-9.792-9.6-11.625-11.299c-1.83-1.698-2.515-1.809-1.182-1.805c4.249,0.193,13.891,3.496,13.178,1.838
		c-4.787-2.103-14.688-2.921-16.591-5.052C13.733,24.145,2.154,5.166,2.154,5.166S4.06,5.751,10.393,7.82
		c6.332,2.07,11.907,4.932,11.907,4.932l6.274,9.474c0,0,1.263-0.055-3.934-8.748c14.488,8.501,26.193,16.237,35.346,27.39
		L78.984,65.268z"/>
</g>
</svg>
