<?xml version="1.0" encoding="utf-8"?>
<!-- Generator: Adobe Illustrator 16.0.0, SVG Export Plug-In . SVG Version: 6.00 Build 0)  -->
<!DOCTYPE svg PUBLIC "-//W3C//DTD SVG 1.1//EN" "http://www.w3.org/Graphics/SVG/1.1/DTD/svg11.dtd">
<svg version="1.1" xmlns="http://www.w3.org/2000/svg" xmlns:xlink="http://www.w3.org/1999/xlink" x="0px" y="0px" width="100px"
	 height="100px" viewBox="0 0 100 100" enable-background="new 0 0 100 100" xml:space="preserve">
<g id="home" display="none">
	<g display="inline">
		<g>
			<path fill="#FFFFFF" d="M51.29,10.63L13.011,48.91h76.558l0.001,0L51.29,10.63z M20.64,45.75l30.65-30.651L81.94,45.75H20.64z"/>
			<polygon points="20.64,45.861 81.94,45.861 51.29,15.21 			"/>
		</g>
		<g>
			<path d="M23.471,45.861v43.762h54.971V45.861H23.471z"/>
			<path fill="#FFFFFF" d="M23.471,45.861v43.762h54.971V45.861H23.471z M75.281,86.463h-48.65V49.021h48.65V86.463z"/>
			<g>
				<g>
					<polygon points="75.108,34.448 75.108,22.351 64.045,22.351 64.045,23.385 					"/>
				</g>
				<path fill="#FFFFFF" d="M34.896,60.901v28.722H49.12V60.901H34.896z M45.96,89.623h-7.903V64.062h7.903V89.623z"/>
				<path fill="#FFFFFF" d="M45.96,89.623h-7.903V64.062h7.903V89.623z"/>
			</g>
		</g>
	</g>
</g>
<g id="home_copy">
	<g>
		<polygon fill="none" points="81.829,45.75 81.94,45.75 51.29,15.099 20.64,45.75 20.751,45.75 51.29,15.21 		"/>
		<polygon fill="#FFFFFF" points="89.569,48.909 75.108,34.448 64.045,23.385 51.29,10.63 13.011,48.91 23.471,48.91 23.471,45.861 
			20.64,45.861 20.751,45.75 20.64,45.75 51.29,15.099 81.94,45.75 81.829,45.75 81.94,45.861 78.441,45.861 78.441,48.91 
			89.568,48.91 		"/>
		<polygon fill="#FFFFFF" stroke="#000000" stroke-miterlimit="10" points="51.29,15.21 20.751,45.75 81.829,45.75 		"/>
		<polygon fill="#FFFFFF" stroke="#000000" stroke-miterlimit="10" points="81.94,45.861 81.829,45.75 20.751,45.75 20.64,45.861 
			23.471,45.861 78.441,45.861 		"/>
		<polygon fill="#FFFFFF" stroke="#000000" stroke-miterlimit="10" points="49.12,60.901 49.12,86.463 75.281,86.463 75.281,49.021 
			26.631,49.021 26.631,86.463 34.896,86.463 34.896,60.901 		"/>
		<polygon fill="#FFFFFF" stroke="#000000" stroke-miterlimit="10" points="23.471,45.861 23.471,48.91 23.471,89.623 
			34.896,89.623 34.896,86.463 26.631,86.463 26.631,49.021 75.281,49.021 75.281,86.463 49.12,86.463 49.12,89.623 78.441,89.623 
			78.441,48.91 78.441,45.861 		"/>
		<polygon fill="#FFFFFF" stroke="#000000" stroke-miterlimit="10" points="75.108,22.351 64.045,22.351 64.045,23.385 
			75.108,34.448 		"/>
		<polygon fill="#FFFFFF" stroke="#000000" stroke-miterlimit="10" points="34.896,60.901 34.896,86.463 34.896,89.623 
			38.057,89.623 38.057,86.463 38.057,64.062 45.96,64.062 45.96,86.463 45.96,89.623 49.12,89.623 49.12,86.463 49.12,60.901 		"/>
		<rect x="38.057" y="64.062" fill="#FFFFFF" width="7.903" height="22.401"/>
		<rect x="38.057" y="86.463" fill="#FFFFFF" width="7.903" height="3.777"/>
	</g>
</g>
<g id="edit" display="none">
	<path display="inline" fill="#939598" d="M96.78,88.619L12.523,4.359C9.409,1.246,4.692,0.915,1.987,3.621
		c-2.706,2.704-2.374,7.421,0.739,10.534l37.802,37.802c2.025,2.025,4.73,2.872,7.117,2.474l0.058-0.032
		c2.47-0.548,5.34,0.28,7.465,2.406l0,0L91.883,93.52c1.557,1.556,3.914,1.72,5.266,0.367C98.502,92.534,98.337,90.177,96.78,88.619
		z"/>
	<g display="inline">
		<defs>
			<path id="SVGID_1_" d="M98.639,86.762L14.379,2.502C11.267-0.61,6.217-0.61,3.104,2.504c-3.113,3.112-3.112,8.16,0.001,11.273
				l37.801,37.801c2.025,2.024,4.869,2.736,7.466,2.126l0.067-0.041c2.695-0.774,5.722-0.102,7.848,2.026v-0.002l36.715,36.714
				c1.556,1.557,4.079,1.556,5.635-0.002C100.192,90.843,100.194,88.318,98.639,86.762z"/>
		</defs>
		<clipPath id="SVGID_2_">
			<use xlink:href="#SVGID_1_"  overflow="visible"/>
		</clipPath>
		
			<rect x="-22.803" y="38.463" transform="matrix(0.7071 0.7071 -0.7071 0.7071 46.3502 -25.2749)" clip-path="url(#SVGID_2_)" fill="#EDEEEE" width="152.974" height="9.697"/>
		
			<rect x="-30.545" y="44.954" transform="matrix(0.7071 0.7071 -0.7071 0.7071 49.5579 -17.5322)" clip-path="url(#SVGID_2_)" fill="#F1F2F2" width="152.973" height="12.2"/>
		<polygon clip-path="url(#SVGID_2_)" fill="#DADBDC" points="8.993,34.698 -28.617,-2.911 2.473,-1.884 40.082,35.725 		"/>
		<polygon clip-path="url(#SVGID_2_)" fill="#BFC1C3" points="11.248,37.815 7.997,34.562 39.086,35.589 42.337,38.841 		"/>
		<polygon clip-path="url(#SVGID_2_)" fill="#FFFFFF" points="60.578,56.623 57.327,53.37 88.42,54.396 91.671,57.648 		"/>
		
			<rect x="-21.7" y="45.331" transform="matrix(0.7071 0.7071 -0.7071 0.7071 48.5471 -23.7241)" clip-path="url(#SVGID_2_)" fill="#FFFFFF" width="149.221" height="2.815"/>
		<polygon clip-path="url(#SVGID_2_)" fill="#C9CACC" points="119.473,118.874 48.438,53.663 53.899,52.243 57.455,52.877 
			121.462,116.882 		"/>
		<path clip-path="url(#SVGID_2_)" fill="none" stroke="#000000" stroke-miterlimit="10" d="M98.639,86.762L14.379,2.502
			C11.267-0.61,6.217-0.61,3.104,2.504c-3.113,3.112-3.112,8.16,0.001,11.273l37.801,37.801c2.025,2.024,4.869,2.736,7.466,2.126
			l0.067-0.041c2.695-0.774,5.722-0.102,7.848,2.026v-0.002l36.715,36.714c1.556,1.557,4.079,1.556,5.635-0.002
			C100.192,90.843,100.194,88.318,98.639,86.762z"/>
	</g>
</g>
<g id="home_copy_2" display="none">
	<g display="inline">
		<g>
			<path fill="#FFFFFF" d="M51.29,10.63L13.011,48.91h76.558l0.001,0L51.29,10.63z M20.64,45.75l30.65-30.651L81.94,45.75H20.64z"/>
			<polygon fill="#FFFFFF" stroke="#000000" stroke-miterlimit="10" points="20.64,45.861 81.94,45.861 51.29,15.21 			"/>
		</g>
		<g>
			<path fill="#FFFFFF" stroke="#000000" stroke-miterlimit="10" d="M23.471,45.861v43.762h54.971V45.861H23.471z"/>
			<path fill="#FFFFFF" stroke="#000000" stroke-miterlimit="10" d="M23.471,45.861v43.762h54.971V45.861H23.471z M75.281,86.463
				h-48.65V49.021h48.65V86.463z"/>
			<g>
				<g>
					<polygon fill="#FFFFFF" stroke="#000000" stroke-miterlimit="10" points="75.108,34.448 75.108,22.351 64.045,22.351 
						64.045,23.385 					"/>
				</g>
			</g>
		</g>
	</g>
</g>
<g id="login" display="none">
	<linearGradient id="SVGID_3_" gradientUnits="userSpaceOnUse" x1="40.9546" y1="56.4268" x2="61.4775" y2="56.4268">
		<stop  offset="0" style="stop-color:#FFFFFF"/>
		<stop  offset="1" style="stop-color:#CFCFCF"/>
	</linearGradient>
	<path display="inline" fill="url(#SVGID_3_)" d="M61.478,89.623H40.955V23.23h20.523V89.623z"/>
	<path display="inline" fill="#FFFFFF" stroke="#000000" stroke-miterlimit="10" d="M32.747,15.022v74.601h36.939V15.022H32.747z
		 M61.478,89.623H40.955V23.23h20.523V89.623z"/>
	<g display="inline">
		<polygon fill="none" points="40.955,23.23 40.955,45.489 61.478,24.962 61.478,23.23 		"/>
		<polygon fill="none" points="61.478,68.231 61.478,36.463 45.598,52.347 		"/>
		<polygon fill="none" points="40.955,59.204 40.955,89.623 61.478,89.623 61.478,79.73 		"/>
		<polygon fill="#FFFFFF" stroke="#000000" stroke-miterlimit="10" points="69.737,16.703 69.686,16.754 69.686,87.938 
			69.737,87.99 		"/>
		<polygon fill="#FFFFFF" stroke="#000000" stroke-miterlimit="10" points="61.605,68.359 61.605,36.335 61.478,36.463 
			61.478,68.231 		"/>
		<polygon fill="#FFFFFF" stroke="#000000" stroke-miterlimit="10" points="32.747,15.022 32.747,89.623 40.955,89.623 
			40.955,59.204 40.955,45.489 40.955,23.23 61.478,23.23 61.478,24.962 69.686,16.754 69.686,15.022 		"/>
		<path fill="#C9C9C9" d="M61.959,27.313L41.436,47.841v13.721l20.523,20.526l8.208,8.208v-71.19L61.959,27.313z M62.087,70.717
			l-0.128-0.128l-15.88-15.885l15.88-15.889l0.128-0.128V70.717z"/>
		<path fill="#FFFFFF" stroke="#000000" stroke-miterlimit="10" d="M61.478,24.962L40.955,45.489v13.715L61.478,79.73l8.208,8.208
			V16.754L61.478,24.962z M61.605,68.359l-0.128-0.128l-15.88-15.885l15.88-15.883l0.128-0.128V68.359z"/>
	</g>
	<rect x="41.243" y="45.057" display="inline" fill="#C9C9C9" width="1.036" height="16.628"/>
</g>
<g id="logout" display="none">
	<linearGradient id="SVGID_4_" gradientUnits="userSpaceOnUse" x1="40.9546" y1="56.4268" x2="61.4775" y2="56.4268">
		<stop  offset="0" style="stop-color:#CFCFCF"/>
		<stop  offset="1" style="stop-color:#FFFFFF"/>
	</linearGradient>
	<path display="inline" fill="url(#SVGID_4_)" d="M61.478,89.623H40.955V23.23h20.523V89.623z"/>
	<g display="inline">
		<polygon fill="none" points="32.304,52.347 32.747,52.789 32.747,51.904 		"/>
		<polygon fill="#FFFFFF" stroke="#000000" stroke-miterlimit="10" points="32.747,15.022 32.747,33.755 40.955,25.547 
			40.955,23.23 50.107,23.23 56.308,23.23 61.478,23.23 61.478,89.623 69.686,89.623 69.686,15.022 		"/>
		<g>
			<polygon fill="none" points="32.555,54.704 32.747,54.896 32.747,54.513 			"/>
		</g>
		<path fill="#FFFFFF" stroke="#000000" stroke-miterlimit="10" d="M34.754,23.23l-9.153,9.153l-8.208,8.208L5.637,52.347
			l11.756,11.756l8.208,8.208l15.353,15.353V23.23H34.754z M32.954,68.35l-7.353-7.353l-8.208-8.208l-0.442-0.442l0.442-0.442
			l8.208-8.208l7.353-7.353V68.35z"/>
	</g>
</g>
<g id="Layer_7" display="none">
</g>
</svg>
