<?xml version="1.0" encoding="utf-8"?>
<!-- Generator: Adobe Illustrator 16.0.0, SVG Export Plug-In . SVG Version: 6.00 Build 0)  -->
<!DOCTYPE svg PUBLIC "-//W3C//DTD SVG 1.1//EN" "http://www.w3.org/Graphics/SVG/1.1/DTD/svg11.dtd">
<svg version="1.1" id="Layer_1" xmlns="http://www.w3.org/2000/svg" xmlns:xlink="http://www.w3.org/1999/xlink" x="0px" y="0px"
	 width="100px" height="100px" viewBox="0 0 100 100" enable-background="new 0 0 100 100" xml:space="preserve">
<g>
	<polygon fill="none" points="81.829,45.75 81.939,45.75 51.29,15.099 20.64,45.75 20.751,45.75 51.29,15.21 	"/>
	<polygon fill="#FFFFFF" points="75.107,34.448 64.045,23.385 51.29,10.63 13.011,48.91 23.471,48.91 23.471,45.861 20.64,45.861 
		20.751,45.75 20.64,45.75 51.29,15.099 81.939,45.75 81.829,45.75 81.939,45.861 78.441,45.861 78.441,48.91 89.568,48.91 
		89.568,48.909 	"/>
	<polygon fill="#C4C4C4" points="51.29,15.21 20.751,45.75 81.829,45.75 	"/>
	<polygon fill="#C4C4C4" points="81.939,45.861 81.829,45.75 20.751,45.75 20.64,45.861 23.471,45.861 78.441,45.861 	"/>
	<polygon fill="#C4C4C4" points="49.12,60.9 49.12,86.463 75.281,86.463 75.281,49.021 26.631,49.021 26.631,86.463 34.896,86.463 
		34.896,60.9 	"/>
	<polygon fill="#FFFFFF" points="23.471,45.861 23.471,48.91 23.471,89.623 34.896,89.623 34.896,86.463 26.631,86.463 
		26.631,49.021 75.281,49.021 75.281,86.463 49.12,86.463 49.12,89.623 78.441,89.623 78.441,48.91 78.441,45.861 	"/>
	<polygon fill="#C4C4C4" points="75.107,17.5 64.045,17.5 64.045,23.385 75.107,34.448 	"/>
	<polygon fill="#FFFFFF" points="49.12,60.9 34.896,60.9 34.896,86.463 34.896,89.623 38.057,89.623 38.057,86.463 38.057,64.062 
		45.96,64.062 45.96,86.463 45.96,89.623 49.12,89.623 49.12,86.463 	"/>
	<rect x="38.057" y="64.062" fill="#FFFFFF" width="7.903" height="22.4"/>
	<polygon fill="#FFFFFF" points="38.057,86.463 38.057,89.623 38.057,90.24 45.96,90.24 45.96,89.623 45.96,86.463 	"/>
</g>
</svg>
