<?xml version="1.0" encoding="utf-8"?>
<!-- Generator: Adobe Illustrator 16.0.0, SVG Export Plug-In . SVG Version: 6.00 Build 0)  -->
<!DOCTYPE svg PUBLIC "-//W3C//DTD SVG 1.1//EN" "http://www.w3.org/Graphics/SVG/1.1/DTD/svg11.dtd">
<svg version="1.1" id="Layer_1" xmlns="http://www.w3.org/2000/svg" xmlns:xlink="http://www.w3.org/1999/xlink" x="0px" y="0px"
	 width="100px" height="100px" viewBox="0 0 100 100" enable-background="new 0 0 100 100" xml:space="preserve">
<path fill="#FFFFFF" d="M61.479,89.623H40.955V23.23h20.523V89.623L61.479,89.623z"/>
<path fill="#C4C4C4" d="M32.747,15.022v74.601h36.938V15.022H32.747z"/>
<g>
	<polygon fill="none" points="40.955,23.23 40.955,45.489 61.479,24.962 61.479,23.23 	"/>
	<polygon fill="none" points="61.479,68.23 61.479,36.463 45.598,52.348 	"/>
	<polygon fill="#C4C4C4" points="69.736,16.703 69.686,16.754 69.686,87.938 69.736,87.99 	"/>
	<polygon fill="#C4C4C4" points="61.605,68.359 61.605,36.335 61.479,36.463 61.479,68.23 	"/>
	<polygon fill="#C4C4C4" points="32.747,15.022 32.747,89.623 40.955,89.623 40.955,59.204 40.955,45.489 40.955,23.23 
		61.479,23.23 69.686,15.022 	"/>
	<path fill="#C4C4C4" d="M61.479,24.962L40.955,45.489v13.715L61.479,79.73V24.962z"/>
	<polygon fill="#FFFFFF" points="45.14,52.162 61.479,36.463 61.479,68.23 	"/>
</g>
<rect x="53.538" y="45.489" fill="#FFFFFF" width="18.462" height="13.901"/>
</svg>
