<?xml version="1.0" encoding="utf-8"?>
<!-- Generator: Adobe Illustrator 16.0.0, SVG Export Plug-In . SVG Version: 6.00 Build 0)  -->
<!DOCTYPE svg PUBLIC "-//W3C//DTD SVG 1.1//EN" "http://www.w3.org/Graphics/SVG/1.1/DTD/svg11.dtd">
<svg version="1.1" xmlns="http://www.w3.org/2000/svg" xmlns:xlink="http://www.w3.org/1999/xlink" x="0px" y="0px" width="100px"
	 height="100px" viewBox="0 0 100 100" enable-background="new 0 0 100 100" xml:space="preserve">
<g id="home" display="none">
	<g display="inline">
		<g>
			<path fill="#FFFFFF" d="M51.29,10.63L13.011,48.91h76.558l0.001,0L51.29,10.63z M20.64,45.75l30.65-30.651L81.94,45.75H20.64z"/>
			<polygon points="20.64,45.861 81.94,45.861 51.29,15.21 			"/>
		</g>
		<g>
			<path d="M23.471,45.861v43.762h54.971V45.861H23.471z"/>
			<path fill="#FFFFFF" d="M23.471,45.861v43.762h54.971V45.861H23.471z M75.281,86.463h-48.65V49.021h48.65V86.463z"/>
			<g>
				<g>
					<polygon points="75.108,34.448 75.108,22.351 64.045,22.351 64.045,23.385 					"/>
				</g>
				<path fill="#FFFFFF" d="M34.896,60.901v28.722H49.12V60.901H34.896z M45.96,89.623h-7.903V64.062h7.903V89.623z"/>
				<path fill="#FFFFFF" d="M45.96,89.623h-7.903V64.062h7.903V89.623z"/>
			</g>
		</g>
	</g>
</g>
<g id="home_copy" display="none">
	<g display="inline">
		<polygon fill="none" points="81.829,45.75 81.94,45.75 51.29,15.099 20.64,45.75 20.751,45.75 51.29,15.21 		"/>
		<polygon fill="#FFFFFF" points="89.569,48.909 75.108,34.448 64.045,23.385 51.29,10.63 13.011,48.91 23.471,48.91 23.471,45.861 
			20.64,45.861 20.751,45.75 20.64,45.75 51.29,15.099 81.94,45.75 81.829,45.75 81.94,45.861 78.441,45.861 78.441,48.91 
			89.568,48.91 		"/>
		<polygon fill="#FFFFFF" stroke="#000000" stroke-miterlimit="10" points="51.29,15.21 20.751,45.75 81.829,45.75 		"/>
		<polygon fill="#FFFFFF" stroke="#000000" stroke-miterlimit="10" points="81.94,45.861 81.829,45.75 20.751,45.75 20.64,45.861 
			23.471,45.861 78.441,45.861 		"/>
		<polygon fill="#FFFFFF" stroke="#000000" stroke-miterlimit="10" points="49.12,60.901 49.12,86.463 75.281,86.463 75.281,49.021 
			26.631,49.021 26.631,86.463 34.896,86.463 34.896,60.901 		"/>
		<polygon fill="#FFFFFF" stroke="#000000" stroke-miterlimit="10" points="23.471,45.861 23.471,48.91 23.471,89.623 
			34.896,89.623 34.896,86.463 26.631,86.463 26.631,49.021 75.281,49.021 75.281,86.463 49.12,86.463 49.12,89.623 78.441,89.623 
			78.441,48.91 78.441,45.861 		"/>
		<polygon fill="#FFFFFF" stroke="#000000" stroke-miterlimit="10" points="75.108,22.351 64.045,22.351 64.045,23.385 
			75.108,34.448 		"/>
		<polygon fill="#FFFFFF" stroke="#000000" stroke-miterlimit="10" points="34.896,60.901 34.896,86.463 34.896,89.623 
			38.057,89.623 38.057,86.463 38.057,64.062 45.96,64.062 45.96,86.463 45.96,89.623 49.12,89.623 49.12,86.463 49.12,60.901 		"/>
		<rect x="38.057" y="64.062" fill="#FFFFFF" width="7.903" height="22.401"/>
		<rect x="38.057" y="86.463" fill="#FFFFFF" width="7.903" height="3.777"/>
	</g>
</g>
<g id="edit" display="none">
	<g display="inline">
		<polygon fill="#EEEEEE" points="39.212,35.696 56.162,52.646 56.973,52.791 39.901,35.719 		"/>
		<path fill="#EEEEEE" d="M64.786,53.616L14.025,2.856c-1.389-1.389-3.229-2.16-5.189-2.184l52.841,52.841L64.786,53.616z"/>
		<path fill="#EEEEEE" d="M99.049,90.887c0.507-1.258,0.254-2.754-0.764-3.771L68.039,56.869l-3.109-0.103L99.049,90.887z"/>
		<path fill="#F2F2F2" d="M56.162,52.646l-16.95-16.95l-0.02,0l3.145,3.145l-13.92-0.459l12.843,12.843
			c1.413,1.413,3.291,2.19,5.286,2.19c0.553,0,1.105-0.061,1.643-0.182l0.112-0.051c0.762-0.219,1.552-0.33,2.348-0.33
			c0.257,0,0.511,0.015,0.764,0.037l2.487-0.646L56.162,52.646z"/>
		<path fill="#D6D6D6" d="M39.192,35.696l0.02,0l0.689,0.023L5.565,1.382C4.793,1.746,4.078,2.236,3.457,2.857
			C2.046,4.268,1.269,6.145,1.269,8.14c0,1.996,0.778,3.872,2.189,5.283l21.706,21.706l13.921,0.46L39.192,35.696z"/>
		<polygon fill="#B6B6B6" points="39.192,35.696 39.086,35.589 25.165,35.129 28.417,38.381 42.337,38.841 		"/>
		<path fill="#FFFFFF" d="M56.973,52.791l0.482,0.086l39.836,39.834c0.361-0.162,0.703-0.376,0.991-0.665
			c0.342-0.342,0.597-0.737,0.767-1.159L64.93,56.767l3.109,0.103l-3.253-3.253l-3.109-0.103L8.836,0.672
			c-0.031,0-0.062-0.004-0.093-0.004c-1.118,0-2.195,0.252-3.177,0.714l34.336,34.337L56.973,52.791z"/>
		<path fill="#C2C2C2" d="M93.354,92.048c1.026,1.028,2.646,1.241,3.937,0.663L57.455,52.877l-0.482-0.086l-0.811-0.145
			l-2.263-0.403l-2.487,0.646c1.976,0.176,3.81,1.026,5.228,2.446L93.354,92.048z"/>
		<path d="M56.286,55.689v-0.002l36.715,36.714c1.556,1.557,4.079,1.556,5.635-0.002c1.557-1.557,1.559-4.081,0.003-5.638
			L14.379,2.502C11.267-0.61,6.217-0.61,3.104,2.504c-3.113,3.112-3.112,8.16,0.001,11.273l37.801,37.801
			c2.025,2.024,4.869,2.736,7.466,2.126l0.067-0.041C51.134,52.889,54.16,53.562,56.286,55.689z M50.648,52.853
			c-0.795,0-1.585,0.111-2.348,0.33l-0.112,0.051c-0.538,0.121-1.09,0.182-1.643,0.182c-1.996,0-3.873-0.777-5.286-2.19
			L28.417,38.381l-3.252-3.252L3.458,13.423C2.047,12.012,1.27,10.136,1.269,8.14c0-1.996,0.777-3.872,2.188-5.283
			c0.621-0.621,1.336-1.111,2.108-1.475C6.548,0.92,7.625,0.668,8.743,0.668c0.031,0,0.062,0.004,0.093,0.004
			c1.961,0.024,3.801,0.794,5.189,2.184l50.761,50.76l3.253,3.253l30.246,30.246c1.018,1.018,1.271,2.514,0.764,3.771
			c-0.17,0.422-0.425,0.817-0.767,1.159c-0.288,0.289-0.63,0.503-0.991,0.665c-1.29,0.578-2.91,0.365-3.937-0.663L56.64,55.336
			c-1.418-1.42-3.252-2.271-5.228-2.446C51.159,52.867,50.905,52.853,50.648,52.853z"/>
	</g>
</g>
<g id="home_copy_2" display="none">
	<g display="inline">
		<g>
			<path fill="#FFFFFF" d="M51.29,10.63L13.011,48.91h76.558l0.001,0L51.29,10.63z M20.64,45.75l30.65-30.651L81.94,45.75H20.64z"/>
			<polygon fill="#FFFFFF" stroke="#000000" stroke-miterlimit="10" points="20.64,45.861 81.94,45.861 51.29,15.21 			"/>
		</g>
		<g>
			<path fill="#FFFFFF" stroke="#000000" stroke-miterlimit="10" d="M23.471,45.861v43.762h54.971V45.861H23.471z"/>
			<path fill="#FFFFFF" stroke="#000000" stroke-miterlimit="10" d="M23.471,45.861v43.762h54.971V45.861H23.471z M75.281,86.463
				h-48.65V49.021h48.65V86.463z"/>
			<g>
				<g>
					<polygon fill="#FFFFFF" stroke="#000000" stroke-miterlimit="10" points="75.108,34.448 75.108,22.351 64.045,22.351 
						64.045,23.385 					"/>
				</g>
			</g>
		</g>
	</g>
</g>
<g id="login">
	<linearGradient id="SVGID_1_" gradientUnits="userSpaceOnUse" x1="40.9546" y1="56.4268" x2="61.4775" y2="56.4268">
		<stop  offset="0" style="stop-color:#FFFFFF"/>
		<stop  offset="1" style="stop-color:#CFCFCF"/>
	</linearGradient>
	<path fill="url(#SVGID_1_)" d="M61.478,89.623H40.955V23.23h20.523V89.623z"/>
	<path fill="#FFFFFF" stroke="#000000" stroke-miterlimit="10" d="M32.747,15.022v74.601h36.939V15.022H32.747z M61.478,89.623
		H40.955V23.23h20.523V89.623z"/>
	<g>
		<polygon fill="none" points="40.955,23.23 40.955,45.489 61.478,24.962 61.478,23.23 		"/>
		<polygon fill="none" points="61.478,68.231 61.478,36.463 45.598,52.347 		"/>
		<polygon fill="none" points="40.955,59.204 40.955,89.623 61.478,89.623 61.478,79.73 		"/>
		<polygon fill="#FFFFFF" stroke="#000000" stroke-miterlimit="10" points="69.737,16.703 69.686,16.754 69.686,87.938 
			69.737,87.99 		"/>
		<polygon fill="#FFFFFF" stroke="#000000" stroke-miterlimit="10" points="61.605,68.359 61.605,36.335 61.478,36.463 
			61.478,68.231 		"/>
		<polygon fill="#FFFFFF" stroke="#000000" stroke-miterlimit="10" points="32.747,15.022 32.747,89.623 40.955,89.623 
			40.955,59.204 40.955,45.489 40.955,23.23 61.478,23.23 61.478,24.962 69.686,16.754 69.686,15.022 		"/>
		<path fill="#C9C9C9" d="M61.959,27.313L41.436,47.841v13.721l20.523,20.526l8.208,8.208v-71.19L61.959,27.313z M62.087,70.717
			l-0.128-0.128l-15.88-15.885l15.88-15.889l0.128-0.128V70.717z"/>
		<path fill="#FFFFFF" stroke="#000000" stroke-miterlimit="10" d="M61.478,24.962L40.955,45.489v13.715L61.478,79.73l8.208,8.208
			V16.754L61.478,24.962z M61.605,68.359l-0.128-0.128l-15.88-15.885l15.88-15.883l0.128-0.128V68.359z"/>
	</g>
	<rect x="41.243" y="45.057" fill="#C9C9C9" width="1.036" height="16.628"/>
</g>
<g id="logout" display="none">
	<linearGradient id="SVGID_2_" gradientUnits="userSpaceOnUse" x1="40.9546" y1="56.4268" x2="61.4775" y2="56.4268">
		<stop  offset="0" style="stop-color:#CFCFCF"/>
		<stop  offset="1" style="stop-color:#FFFFFF"/>
	</linearGradient>
	<path display="inline" fill="url(#SVGID_2_)" d="M61.478,89.623H40.955V23.23h20.523V89.623z"/>
	<g display="inline">
		<polygon fill="none" points="32.304,52.347 32.747,52.789 32.747,51.904 		"/>
		<polygon fill="#FFFFFF" stroke="#000000" stroke-miterlimit="10" points="32.747,15.022 32.747,33.755 40.955,25.547 
			40.955,23.23 50.107,23.23 56.308,23.23 61.478,23.23 61.478,89.623 69.686,89.623 69.686,15.022 		"/>
		<g>
			<polygon fill="none" points="32.555,54.704 32.747,54.896 32.747,54.513 			"/>
		</g>
		<path fill="#FFFFFF" stroke="#000000" stroke-miterlimit="10" d="M34.754,23.23l-9.153,9.153l-8.208,8.208L5.637,52.347
			l11.756,11.756l8.208,8.208l15.353,15.353V23.23H34.754z M32.954,68.35l-7.353-7.353l-8.208-8.208l-0.442-0.442l0.442-0.442
			l8.208-8.208l7.353-7.353V68.35z"/>
	</g>
</g>
<g id="Layer_7" display="none">
</g>
</svg>
