<?xml version="1.0" encoding="utf-8"?>
<!-- Generator: Adobe Illustrator 16.0.0, SVG Export Plug-In . SVG Version: 6.00 Build 0)  -->
<!DOCTYPE svg PUBLIC "-//W3C//DTD SVG 1.1//EN" "http://www.w3.org/Graphics/SVG/1.1/DTD/svg11.dtd">
<svg version="1.1" id="Layer_1" xmlns="http://www.w3.org/2000/svg" xmlns:xlink="http://www.w3.org/1999/xlink" x="0px" y="0px"
	 width="14px" height="14px" viewBox="0 0 14 14" enable-background="new 0 0 14 14" xml:space="preserve">
<g>
	<path fill="#CBCCCE" d="M9.836,8.206c-0.76,0.715-1.775,1.161-2.901,1.161S4.793,8.921,4.034,8.206
		c-0.665,0.711-1.08,1.659-1.08,2.707V14h7.96v-3.087C10.915,9.865,10.5,8.917,9.836,8.206z"/>
	<path fill="#CBCCCE" d="M5.121,7.39c0.5,0.401,1.125,0.651,1.814,0.651s1.314-0.25,1.814-0.651
		c0.482-0.387,0.838-0.919,0.998-1.535C9.809,5.62,9.852,5.378,9.852,5.124c0-1.608-1.309-2.917-2.917-2.917
		c-1.608,0-2.917,1.309-2.917,2.917c0,0.254,0.043,0.496,0.104,0.731C4.282,6.471,4.638,7.003,5.121,7.39z"/>
</g>
</svg>
