<?xml version="1.0" encoding="utf-8"?>
<!-- Generator: Adobe Illustrator 16.0.0, SVG Export Plug-In . SVG Version: 6.00 Build 0)  -->
<!DOCTYPE svg PUBLIC "-//W3C//DTD SVG 1.1//EN" "http://www.w3.org/Graphics/SVG/1.1/DTD/svg11.dtd">
<svg version="1.1" id="Layer_1" xmlns="http://www.w3.org/2000/svg" xmlns:xlink="http://www.w3.org/1999/xlink" x="0px" y="0px"
	 width="100px" height="100px" viewBox="0 0 100 100" enable-background="new 0 0 100 100" xml:space="preserve">
<path d="M49.455,97.984H36.433V80.52h13.022V97.984z M37.433,96.984h11.022V81.52H37.433V96.984z M49.063,69.104H36.171v-0.5
	c0-10.311,3.315-16.729,11.086-21.464c0.798-0.479,1.694-0.977,2.651-1.508c6.115-3.397,14.488-8.049,14.488-17.144
	c0-8.336-6.914-12.698-13.742-12.698c-10.154,0-15.634,8.603-17.072,11.239l-0.263,0.481l-10.342-6.942l0.168-0.383
	C27.722,9.762,38.622,3.028,50.915,3.028c13.519,0,27.158,8.034,27.158,25.981c0,13.148-7.417,18.724-15.433,22.792
	c-6.68,3.404-13.578,6.922-13.578,16.803V69.104z M37.174,68.104h10.895c0.235-10.117,7.6-13.871,14.111-17.189
	c7.739-3.928,14.894-9.296,14.894-21.904c0-17.257-13.138-24.981-26.158-24.981c-11.746,0-22.17,6.335-26.682,16.177l8.74,5.867
	c1.845-3.191,7.533-11.283,17.681-11.283c7.326,0,14.744,4.705,14.744,13.698c0,9.683-8.672,14.5-15.003,18.018
	c-0.946,0.526-1.833,1.018-2.619,1.49C40.469,52.445,37.28,58.479,37.174,68.104z"/>
</svg>
