<?xml version="1.0" encoding="utf-8"?>
<!-- Generator: Adobe Illustrator 16.0.0, SVG Export Plug-In . SVG Version: 6.00 Build 0)  -->
<!DOCTYPE svg PUBLIC "-//W3C//DTD SVG 1.1//EN" "http://www.w3.org/Graphics/SVG/1.1/DTD/svg11.dtd">
<svg version="1.1" id="Layer_2" xmlns="http://www.w3.org/2000/svg" xmlns:xlink="http://www.w3.org/1999/xlink" x="0px" y="0px"
	 width="100px" height="100px" viewBox="0 0 100 100" enable-background="new 0 0 100 100" xml:space="preserve">
<g id="Layer_3">
	<path fill="#FFF7DB" d="M70.436,7.031c0.312,0.181,0.654,0.267,0.992,0.267c0.688,0,1.356-0.357,1.727-0.996l-0.157-0.091
		l0.157,0.09c0.18-0.313,0.267-0.656,0.266-0.993c0.001-0.688-0.355-1.356-0.994-1.725c-0.312-0.181-0.656-0.267-0.994-0.267
		c-0.688,0-1.355,0.357-1.726,0.997c-0.181,0.312-0.267,0.655-0.267,0.992C69.439,5.992,69.796,6.662,70.436,7.031z M70.02,4.493
		c0.301-0.523,0.848-0.815,1.412-0.815c0.275,0,0.555,0.071,0.812,0.219c0.521,0.301,0.812,0.848,0.812,1.412
		c0,0.276-0.068,0.555-0.218,0.812l0,0c-0.302,0.522-0.849,0.814-1.412,0.814c-0.276,0-0.555-0.07-0.811-0.218
		c-0.524-0.302-0.815-0.85-0.815-1.413C69.802,5.029,69.871,4.75,70.02,4.493z M72.814,14.594c0,0.337,0.088,0.68,0.268,0.992
		c0.369,0.638,1.039,0.996,1.725,0.996c0.34,0,0.682-0.086,0.993-0.267c0.638-0.369,0.995-1.039,0.993-1.726
		c0.002-0.337-0.086-0.68-0.266-0.993c-0.368-0.637-1.037-0.995-1.726-0.995c-0.338,0-0.681,0.086-0.993,0.267
		C73.173,13.237,72.814,13.907,72.814,14.594z M74.803,12.963c0.562,0,1.11,0.292,1.411,0.815c0.147,0.256,0.218,0.536,0.218,0.812
		c0,0.563-0.291,1.11-0.812,1.413c-0.258,0.147-0.534,0.218-0.812,0.218c-0.562,0-1.108-0.292-1.41-0.815
		c-0.148-0.256-0.219-0.535-0.219-0.811c0-0.563,0.293-1.11,0.813-1.412C74.248,13.034,74.527,12.963,74.803,12.963z M52.48,3.644
		c-0.638,0.369-0.994,1.038-0.994,1.725c0,0.337,0.087,0.68,0.267,0.993l0.157-0.09l-0.157,0.091
		C52.122,7,52.791,7.356,53.479,7.356c0.338,0,0.68-0.086,0.992-0.267c0.637-0.369,0.995-1.038,0.994-1.725
		c0.001-0.336-0.086-0.679-0.267-0.992c-0.368-0.639-1.037-0.997-1.726-0.996C53.137,3.376,52.794,3.463,52.48,3.644z M54.887,4.553
		c0.146,0.257,0.217,0.536,0.217,0.811c0,0.562-0.291,1.11-0.812,1.411c-0.257,0.149-0.536,0.219-0.812,0.219
		c-0.562,0-1.108-0.292-1.41-0.813l0,0C51.92,5.923,51.85,5.644,51.85,5.369c0-0.563,0.291-1.11,0.813-1.412
		c0.257-0.148,0.536-0.219,0.812-0.219C54.036,3.738,54.584,4.03,54.887,4.553z M54.234,14.317c-0.687,0-1.354,0.357-1.723,0.995
		l0.155,0.09l-0.155-0.09c-0.183,0.313-0.269,0.657-0.269,0.995c0,0.687,0.356,1.355,0.995,1.723
		c0.312,0.182,0.656,0.268,0.994,0.268c0.687,0,1.354-0.357,1.724-0.994c0.181-0.314,0.267-0.657,0.267-0.995
		c0-0.688-0.356-1.356-0.994-1.727C54.916,14.403,54.573,14.317,54.234,14.317z M55.861,16.31c0,0.276-0.069,0.556-0.219,0.813
		c-0.302,0.521-0.848,0.813-1.41,0.813c-0.276,0-0.556-0.07-0.812-0.219c-0.524-0.301-0.813-0.847-0.815-1.41
		c0-0.276,0.071-0.556,0.221-0.814l0,0c0.301-0.523,0.848-0.814,1.41-0.815c0.275,0,0.556,0.07,0.812,0.218
		C55.57,15.199,55.861,15.746,55.861,16.31z M63.754,19.926c0.001,1.097,0.891,1.989,1.989,1.989c1.098,0,1.989-0.892,1.989-1.989
		c0-1.099-0.892-1.989-1.989-1.989C64.645,17.937,63.755,18.828,63.754,19.926z M65.743,18.298c0.897,0.002,1.626,0.729,1.627,1.628
		c-0.001,0.897-0.729,1.626-1.627,1.627c-0.897-0.001-1.626-0.73-1.627-1.627C64.117,19.028,64.846,18.3,65.743,18.298z
		 M71.273,36.203c-0.181,0.313-0.268,0.656-0.268,0.993c0,0.687,0.357,1.356,0.994,1.726c0.312,0.181,0.654,0.267,0.993,0.267
		c0.687,0,1.356-0.357,1.725-0.996c0.181-0.312,0.269-0.655,0.267-0.993c0.002-0.687-0.356-1.356-0.993-1.725
		c-0.312-0.181-0.656-0.268-0.992-0.268C72.311,35.208,71.643,35.565,71.273,36.203z M72.999,35.57c0.274,0,0.554,0.07,0.812,0.218
		c0.521,0.301,0.812,0.849,0.812,1.412c0,0.276-0.068,0.555-0.219,0.812c-0.301,0.523-0.848,0.814-1.41,0.814
		c-0.277,0-0.555-0.07-0.812-0.218c-0.521-0.302-0.812-0.849-0.812-1.412c0-0.276,0.068-0.555,0.218-0.812
		C71.889,35.862,72.436,35.57,72.999,35.57z M83.621,31.984c0-1.1-0.893-1.989-1.989-1.989c-1.103,0.002-1.987,0.89-1.989,1.989
		c0,1.096,0.889,1.989,1.989,1.989C82.729,33.973,83.62,33.08,83.621,31.984z M80.004,31.984c0-0.9,0.727-1.628,1.628-1.628
		c0.897,0.002,1.626,0.729,1.627,1.628c-0.001,0.896-0.729,1.626-1.627,1.628C80.73,33.61,80.006,32.88,80.004,31.984z
		 M52.562,39.549c0.338,0,0.682-0.087,0.994-0.269c0.637-0.367,0.994-1.036,0.993-1.723c0.001-0.337-0.086-0.68-0.266-0.993
		c-0.369-0.639-1.038-0.997-1.726-0.996c-0.336,0-0.68,0.086-0.992,0.268c-0.639,0.368-0.996,1.037-0.993,1.725
		c-0.003,0.337,0.086,0.68,0.266,0.993l0.156-0.09l-0.156,0.09C51.207,39.191,51.876,39.549,52.562,39.549z M50.936,37.56
		c0-0.563,0.291-1.11,0.813-1.412c0.257-0.148,0.535-0.218,0.812-0.218c0.562,0,1.109,0.292,1.412,0.815
		c0.147,0.257,0.217,0.537,0.217,0.812c0,0.563-0.291,1.109-0.812,1.41c-0.257,0.149-0.537,0.219-0.812,0.219
		c-0.562,0-1.107-0.291-1.41-0.814l0,0C51.004,38.115,50.936,37.836,50.936,37.56z M63.137,31.562c1.1,0,1.988-0.893,1.989-1.989
		c0-1.1-0.892-1.989-1.989-1.989c-1.095,0-1.986,0.89-1.986,1.989C61.15,30.669,62.042,31.562,63.137,31.562z M63.137,27.945
		c0.898,0.002,1.627,0.728,1.627,1.628c0,0.896-0.729,1.626-1.627,1.627c-0.896-0.001-1.623-0.731-1.623-1.627
		C61.514,28.673,62.24,27.947,63.137,27.945z M73.602,28.036c0.338,0,0.682-0.086,0.992-0.267c0.639-0.369,0.995-1.039,0.994-1.726
		c0.001-0.337-0.086-0.68-0.268-0.993c-0.367-0.638-1.036-0.995-1.725-0.995c-0.338,0-0.681,0.086-0.992,0.268
		c-0.638,0.368-0.994,1.038-0.994,1.725c0,0.337,0.086,0.68,0.268,0.993C72.245,27.678,72.915,28.036,73.602,28.036z M71.973,26.047
		c0-0.563,0.291-1.11,0.812-1.412c0.257-0.148,0.535-0.218,0.812-0.219c0.562,0.001,1.109,0.293,1.411,0.815
		c0.148,0.257,0.218,0.536,0.218,0.812c0,0.563-0.291,1.11-0.812,1.412c-0.257,0.148-0.535,0.218-0.812,0.218
		c-0.562,0-1.109-0.292-1.412-0.814C72.041,26.603,71.973,26.324,71.973,26.047z M61.366,10.374
		c-0.003,0.337,0.086,0.68,0.266,0.993c0.368,0.638,1.036,0.996,1.722,0.996c0.338,0,0.682-0.086,0.992-0.267
		c0.637-0.369,0.995-1.039,0.994-1.726c0.001-0.337-0.086-0.68-0.267-0.993c-0.368-0.638-1.037-0.995-1.726-0.995
		c-0.338,0-0.68,0.087-0.99,0.268C61.723,9.018,61.363,9.687,61.366,10.374z M63.35,8.743c0.562,0,1.109,0.292,1.412,0.814
		c0.146,0.257,0.217,0.536,0.217,0.812c0,0.563-0.291,1.11-0.813,1.412C63.908,11.93,63.63,12,63.354,12
		c-0.562,0-1.107-0.291-1.408-0.814c-0.147-0.256-0.217-0.535-0.217-0.812c0-0.563,0.291-1.11,0.811-1.412
		C62.794,8.813,63.073,8.744,63.35,8.743z M52.501,24.055c-0.338,0-0.681,0.086-0.993,0.268c-0.637,0.368-0.994,1.038-0.992,1.725
		c-0.002,0.337,0.086,0.68,0.267,0.993c0.368,0.638,1.038,0.996,1.725,0.996c0.339,0,0.681-0.086,0.992-0.267
		c0.638-0.369,0.995-1.039,0.994-1.726c0.001-0.337-0.086-0.68-0.267-0.993C53.857,24.413,53.188,24.055,52.501,24.055z
		 M53.316,27.456c-0.256,0.148-0.534,0.218-0.812,0.218c-0.562,0-1.11-0.292-1.412-0.814c-0.147-0.256-0.217-0.535-0.217-0.812
		c0-0.563,0.291-1.11,0.812-1.412c0.258-0.148,0.537-0.218,0.812-0.219c0.562,0.001,1.109,0.293,1.412,0.815
		c0.148,0.257,0.218,0.536,0.218,0.812C54.131,26.607,53.839,27.154,53.316,27.456z M83.152,40.298
		c-0.637,0.368-0.993,1.038-0.993,1.725c0,0.337,0.087,0.68,0.267,0.993c0.369,0.638,1.039,0.995,1.727,0.995
		c0.338,0,0.679-0.086,0.992-0.266c0.637-0.369,0.994-1.039,0.994-1.726c0-0.337-0.087-0.68-0.268-0.993
		c-0.368-0.638-1.037-0.995-1.725-0.995C83.809,40.03,83.466,40.117,83.152,40.298z M85.559,41.207L85.559,41.207
		c0.147,0.257,0.217,0.536,0.217,0.812c0,0.563-0.291,1.11-0.812,1.412c-0.256,0.148-0.533,0.217-0.811,0.218
		c-0.563,0-1.11-0.292-1.412-0.814c-0.148-0.256-0.219-0.535-0.219-0.812c0-0.563,0.293-1.11,0.813-1.412
		c0.257-0.148,0.536-0.218,0.812-0.218C84.709,40.393,85.257,40.685,85.559,41.207z M44.93,33.973c1.099,0,1.989-0.893,1.989-1.989
		c0-1.1-0.891-1.989-1.989-1.989c-1.098,0-1.989,0.89-1.989,1.989C42.941,33.08,43.832,33.973,44.93,33.973z M43.303,31.984
		c0.001-0.899,0.729-1.626,1.627-1.628c0.898,0.002,1.626,0.729,1.628,1.628c-0.002,0.896-0.729,1.626-1.628,1.628
		C44.032,33.61,43.304,32.88,43.303,31.984z M44.045,41.749c-1.099,0-1.989,0.891-1.989,1.989c0,1.096,0.891,1.989,1.989,1.989
		s1.989-0.893,1.989-1.989C46.034,42.64,45.144,41.749,44.045,41.749z M45.673,43.738c-0.002,0.896-0.729,1.626-1.628,1.627
		c-0.898-0.001-1.626-0.731-1.628-1.627c0.002-0.898,0.729-1.626,1.628-1.628C44.943,42.112,45.671,42.84,45.673,43.738z
		 M92.98,66.223c-0.313-0.18-0.656-0.268-0.992-0.266c-0.688-0.002-1.356,0.355-1.727,0.993c-0.18,0.313-0.267,0.655-0.266,0.991
		c-0.001,0.688,0.355,1.356,0.992,1.728c0.312,0.181,0.656,0.269,0.994,0.267c0.687,0.002,1.355-0.356,1.725-0.994
		c0.182-0.313,0.268-0.656,0.268-0.993C93.977,67.26,93.617,66.591,92.98,66.223z M91.982,69.573c-0.276,0-0.555-0.069-0.812-0.218
		c-0.522-0.304-0.813-0.85-0.813-1.414c0-0.274,0.069-0.553,0.219-0.811c0.302-0.521,0.849-0.812,1.412-0.812
		c0.275,0,0.554,0.068,0.811,0.218c0.521,0.301,0.812,0.849,0.812,1.411c0,0.275-0.068,0.555-0.217,0.812
		C93.094,69.281,92.546,69.573,91.982,69.573z M88.756,80.814c0.368,0.638,1.037,0.994,1.725,0.994c0.338,0,0.681-0.086,0.994-0.268
		c0.637-0.368,0.994-1.037,0.992-1.725c0.002-0.338-0.086-0.682-0.266-0.994c-0.369-0.637-1.037-0.994-1.725-0.994
		c-0.338,0-0.681,0.086-0.994,0.268c-0.637,0.369-0.994,1.037-0.994,1.725C88.488,80.158,88.576,80.501,88.756,80.814z
		 M89.665,78.41c0.257-0.148,0.535-0.219,0.812-0.219c0.562,0,1.108,0.291,1.41,0.812c0.148,0.258,0.219,0.535,0.219,0.812
		c0,0.562-0.291,1.109-0.813,1.41c-0.257,0.148-0.536,0.219-0.812,0.219c-0.562,0-1.109-0.291-1.41-0.813
		c-0.148-0.257-0.219-0.534-0.219-0.812C88.852,79.258,89.143,78.712,89.665,78.41z M82.521,64.023c0-0.336-0.086-0.68-0.268-0.991
		c-0.367-0.638-1.037-0.995-1.725-0.994c-0.338-0.001-0.682,0.086-0.992,0.267c-0.639,0.368-0.995,1.037-0.995,1.725
		c0,0.338,0.087,0.681,0.269,0.992c0.367,0.64,1.037,0.996,1.725,0.996c0.338,0,0.681-0.086,0.992-0.267
		C82.164,65.381,82.521,64.712,82.521,64.023z M80.534,65.654c-0.562,0-1.11-0.291-1.412-0.813
		c-0.147-0.257-0.218-0.536-0.218-0.812c0-0.562,0.291-1.11,0.812-1.412c0.258-0.148,0.535-0.219,0.812-0.219
		c0.562,0,1.109,0.293,1.412,0.813c0.147,0.257,0.218,0.536,0.218,0.812c0,0.564-0.292,1.11-0.813,1.414
		C81.089,65.586,80.811,65.654,80.534,65.654z M69.705,69.422L69.705,69.422c-0.18,0.312-0.266,0.655-0.266,0.992
		c0,0.688,0.355,1.355,0.996,1.727c0.312,0.18,0.653,0.268,0.991,0.267c0.687,0.001,1.356-0.356,1.726-0.995
		c0.181-0.312,0.268-0.656,0.267-0.993c0.001-0.688-0.356-1.356-0.994-1.726c-0.312-0.182-0.655-0.268-0.993-0.268
		C70.743,68.426,70.074,68.783,69.705,69.422z M71.432,68.787c0.275,0,0.555,0.07,0.812,0.219c0.521,0.303,0.812,0.848,0.812,1.412
		c0,0.275-0.068,0.557-0.218,0.812c-0.302,0.521-0.849,0.813-1.412,0.813c-0.276,0-0.555-0.069-0.811-0.218
		c-0.524-0.303-0.815-0.85-0.815-1.413c0-0.274,0.069-0.556,0.217-0.812l0,0C70.32,69.079,70.866,68.787,71.432,68.787z
		 M76.793,79.698c0.002-0.337-0.086-0.681-0.266-0.993c-0.368-0.637-1.037-0.994-1.726-0.994c-0.338,0-0.681,0.086-0.993,0.268
		c-0.637,0.369-0.994,1.037-0.994,1.726c0,0.337,0.088,0.679,0.268,0.991c0.369,0.64,1.039,0.996,1.725,0.996
		c0.34,0,0.682-0.086,0.993-0.268C76.438,81.055,76.795,80.386,76.793,79.698z M74.807,81.329c-0.562,0-1.108-0.292-1.41-0.815
		c-0.148-0.256-0.219-0.535-0.219-0.811c0-0.562,0.293-1.11,0.813-1.412c0.257-0.148,0.536-0.219,0.812-0.219
		c0.562,0,1.11,0.292,1.411,0.813c0.147,0.257,0.218,0.536,0.218,0.812c0,0.562-0.291,1.11-0.812,1.413
		C75.361,81.26,75.084,81.329,74.807,81.329z M85.128,86.242c0-1.1-0.892-1.99-1.989-1.99c-1.102,0.003-1.986,0.891-1.99,1.99
		c0,1.096,0.89,1.988,1.99,1.99C84.236,88.23,85.127,87.338,85.128,86.242z M83.139,87.869c-0.9-0.001-1.625-0.73-1.627-1.627
		c0-0.899,0.727-1.627,1.627-1.627c0.898,0.001,1.627,0.728,1.627,1.627C84.766,87.139,84.037,87.868,83.139,87.869z M53.475,68.484
		c-0.338,0-0.681,0.086-0.992,0.269c-0.639,0.368-0.996,1.037-0.994,1.726c-0.002,0.336,0.086,0.681,0.266,0.994
		c0.369,0.637,1.038,0.992,1.725,0.992c0.338,0,0.681-0.086,0.994-0.267c0.637-0.369,0.994-1.037,0.993-1.724
		c0.001-0.339-0.086-0.681-0.267-0.994C54.83,68.844,54.161,68.484,53.475,68.484z M55.104,70.475c0,0.562-0.291,1.108-0.812,1.41
		c-0.257,0.148-0.536,0.219-0.812,0.219c-0.562,0-1.108-0.291-1.41-0.812c-0.148-0.257-0.219-0.537-0.219-0.812
		c0-0.562,0.291-1.109,0.813-1.41c0.257-0.148,0.536-0.221,0.812-0.221c0.562,0,1.11,0.293,1.412,0.816
		C55.033,69.92,55.104,70.197,55.104,70.475z M55.229,79.691c-0.312-0.181-0.655-0.267-0.994-0.267
		c-0.687,0-1.354,0.357-1.723,0.995c-0.183,0.314-0.269,0.657-0.269,0.995c0,0.688,0.356,1.356,0.995,1.724
		c0.312,0.182,0.656,0.269,0.994,0.269c0.687,0,1.354-0.357,1.724-0.994c0.181-0.313,0.267-0.657,0.267-0.995
		C56.225,80.73,55.866,80.062,55.229,79.691z M55.645,82.23c-0.303,0.522-0.849,0.814-1.41,0.814c-0.277,0-0.557-0.07-0.812-0.22
		c-0.523-0.302-0.812-0.847-0.814-1.41c0-0.276,0.07-0.556,0.22-0.813c0.301-0.521,0.848-0.813,1.409-0.813
		c0.277,0,0.557,0.069,0.812,0.218c0.521,0.303,0.812,0.85,0.812,1.412C55.861,81.695,55.792,81.975,55.645,82.23z M59.588,65.266
		c0.312,0.182,0.656,0.268,0.992,0.268c0.688,0,1.355-0.357,1.725-0.996c0.18-0.312,0.266-0.654,0.266-0.992
		c0-0.688-0.355-1.355-0.991-1.725c-0.313-0.182-0.657-0.268-0.995-0.268c-0.688,0-1.355,0.357-1.727,0.994v0.001
		c-0.18,0.312-0.266,0.654-0.266,0.992C58.592,64.229,58.948,64.896,59.588,65.266z M59.171,62.729v-0.002V62.729
		c0.302-0.521,0.849-0.813,1.412-0.813c0.276,0,0.556,0.071,0.813,0.22c0.521,0.301,0.812,0.848,0.812,1.41
		c0,0.275-0.069,0.555-0.217,0.812c-0.302,0.522-0.849,0.814-1.412,0.814c-0.274,0-0.554-0.07-0.812-0.219
		c-0.523-0.303-0.814-0.848-0.814-1.412C58.954,63.264,59.023,62.986,59.171,62.729z M65.743,87.025
		c1.099-0.002,1.989-0.894,1.989-1.99c0-1.1-0.892-1.988-1.989-1.989c-1.099,0.001-1.988,0.892-1.989,1.989
		C63.755,86.133,64.645,87.023,65.743,87.025z M65.743,83.408c0.897,0.001,1.626,0.729,1.627,1.627
		c-0.001,0.896-0.729,1.626-1.627,1.627c-0.897-0.001-1.626-0.729-1.627-1.627C64.117,84.137,64.846,83.409,65.743,83.408z
		 M83.621,97.093c0-1.1-0.893-1.989-1.989-1.989c-1.103,0.002-1.987,0.891-1.989,1.989c0,1.097,0.889,1.989,1.989,1.99
		C82.729,99.082,83.62,98.189,83.621,97.093z M81.632,98.721c-0.901-0.002-1.626-0.73-1.628-1.628c0-0.899,0.727-1.627,1.628-1.627
		c0.897,0.001,1.626,0.728,1.627,1.627C83.258,97.989,82.529,98.719,81.632,98.721z M63.137,96.672
		c1.1-0.001,1.988-0.895,1.989-1.99c0-1.1-0.892-1.988-1.989-1.988c-1.095,0-1.986,0.89-1.986,1.988
		C61.15,95.777,62.042,96.671,63.137,96.672z M63.137,93.055c0.898,0.002,1.627,0.729,1.627,1.627c0,0.896-0.729,1.627-1.627,1.627
		c-0.896,0-1.623-0.729-1.623-1.627C61.514,93.782,62.24,93.057,63.137,93.055z M82.626,51.964
		c-0.312-0.181-0.655-0.267-0.994-0.267c-0.688,0-1.356,0.357-1.723,0.996l0,0c-0.183,0.312-0.269,0.656-0.269,0.994
		c0,0.687,0.356,1.354,0.996,1.722c0.312,0.182,0.654,0.269,0.994,0.269c0.686,0,1.354-0.357,1.723-0.994
		c0.181-0.312,0.268-0.658,0.267-0.994C83.621,53.002,83.264,52.333,82.626,51.964z M83.041,54.502
		c-0.303,0.521-0.848,0.812-1.409,0.814c-0.276,0-0.558-0.07-0.813-0.221c-0.523-0.301-0.814-0.847-0.815-1.408
		c0-0.276,0.07-0.557,0.22-0.813v-0.001c0.301-0.521,0.848-0.814,1.41-0.814c0.276,0,0.557,0.07,0.812,0.219
		c0.522,0.303,0.813,0.849,0.813,1.412C83.259,53.965,83.189,54.245,83.041,54.502z M73.059,49.497
		c0.338,0.001,0.68-0.086,0.991-0.266c0.638-0.37,0.995-1.038,0.994-1.725c0.001-0.337-0.086-0.68-0.267-0.993l0,0
		c-0.368-0.639-1.037-0.997-1.726-0.996c-0.337,0-0.68,0.086-0.991,0.267c-0.639,0.369-0.996,1.037-0.994,1.725
		c-0.002,0.336,0.086,0.68,0.267,0.994C71.701,49.14,72.371,49.498,73.059,49.497z M72.241,46.096
		c0.257-0.148,0.536-0.219,0.812-0.219c0.562,0,1.11,0.292,1.412,0.815c0.148,0.257,0.219,0.536,0.219,0.812
		c0,0.563-0.293,1.109-0.813,1.412c-0.257,0.148-0.535,0.218-0.812,0.218c-0.562,0-1.11-0.292-1.412-0.815
		c-0.148-0.256-0.219-0.537-0.219-0.812C71.428,46.945,71.719,46.398,72.241,46.096z M54.438,46.537
		c-0.312-0.181-0.655-0.267-0.994-0.267c-0.688,0-1.355,0.357-1.725,0.996l0,0c-0.181,0.312-0.267,0.656-0.267,0.993
		c-0.001,0.688,0.356,1.356,0.996,1.723c0.313,0.182,0.655,0.27,0.995,0.27c0.687,0,1.354-0.358,1.723-0.996
		c0.18-0.313,0.268-0.657,0.266-0.994C55.434,47.574,55.075,46.905,54.438,46.537z M54.854,49.074
		c-0.303,0.522-0.849,0.813-1.41,0.814c-0.276,0-0.557-0.07-0.812-0.22c-0.523-0.301-0.816-0.848-0.816-1.41
		c0-0.276,0.069-0.555,0.219-0.812l-0.156-0.09l0.156,0.09c0.302-0.523,0.848-0.815,1.412-0.815c0.275,0,0.556,0.071,0.812,0.219
		c0.521,0.301,0.812,0.848,0.812,1.412C55.07,48.537,55.001,48.817,54.854,49.074z M65.427,52.479
		c0.001-0.336-0.086-0.679-0.267-0.992c-0.368-0.637-1.037-0.996-1.725-0.996c-0.338,0-0.679,0.086-0.992,0.268
		c-0.635,0.368-0.991,1.037-0.99,1.725c-0.001,0.338,0.086,0.682,0.266,0.994c0.367,0.638,1.034,0.994,1.721,0.994
		c0.338,0,0.682-0.087,0.994-0.268C65.07,53.836,65.428,53.168,65.427,52.479z M63.438,54.109c-0.562,0-1.105-0.291-1.405-0.813
		c-0.148-0.257-0.218-0.537-0.218-0.812c0-0.563,0.289-1.11,0.812-1.412c0.255-0.147,0.534-0.219,0.81-0.219
		c0.562,0,1.11,0.291,1.412,0.815c0.148,0.257,0.219,0.535,0.219,0.812c0,0.563-0.291,1.109-0.813,1.41
		C63.995,54.04,63.715,54.109,63.438,54.109z M75.588,91.152c0.001-0.338-0.086-0.68-0.268-0.993
		c-0.367-0.638-1.036-0.995-1.725-0.995c-0.338,0-0.681,0.086-0.992,0.268c-0.638,0.369-0.994,1.037-0.994,1.726
		c0,0.337,0.086,0.68,0.268,0.993c0.368,0.638,1.038,0.996,1.725,0.994c0.338,0.002,0.682-0.086,0.992-0.267
		C75.23,92.509,75.589,91.84,75.588,91.152z M74.413,92.564c-0.257,0.147-0.535,0.218-0.812,0.218c-0.562,0-1.11-0.292-1.412-0.814
		c-0.148-0.257-0.219-0.534-0.219-0.812c0-0.562,0.293-1.11,0.813-1.411c0.257-0.147,0.536-0.22,0.812-0.22
		c0.562,0,1.11,0.293,1.412,0.814c0.148,0.258,0.219,0.535,0.219,0.812C75.227,91.716,74.936,92.264,74.413,92.564z M61.366,75.482
		c-0.003,0.336,0.086,0.68,0.266,0.992c0.368,0.639,1.036,0.996,1.722,0.996c0.338,0,0.682-0.087,0.992-0.268
		c0.637-0.369,0.995-1.038,0.994-1.727c0.001-0.336-0.086-0.68-0.267-0.992c-0.368-0.637-1.037-0.994-1.726-0.994
		c-0.338,0-0.68,0.086-0.99,0.267C61.723,74.127,61.363,74.795,61.366,75.482z M63.35,73.854c0.562,0,1.109,0.291,1.412,0.813
		c0.146,0.257,0.217,0.536,0.217,0.812c0,0.563-0.291,1.11-0.813,1.414c-0.256,0.146-0.534,0.217-0.812,0.217
		c-0.562,0-1.107-0.291-1.408-0.814c-0.147-0.257-0.217-0.535-0.217-0.811c0-0.563,0.291-1.11,0.811-1.412
		C62.794,73.923,63.073,73.854,63.35,73.854z M82.927,75.21c0.339,0.001,0.681-0.086,0.992-0.267
		c0.64-0.368,0.995-1.037,0.995-1.725c0-0.338-0.086-0.682-0.268-0.994c-0.369-0.638-1.037-0.994-1.725-0.994
		c-0.338,0-0.681,0.086-0.992,0.267c-0.639,0.369-0.996,1.038-0.996,1.726c0,0.338,0.088,0.68,0.268,0.992
		C81.57,74.854,82.24,75.211,82.927,75.21z M82.109,71.811c0.258-0.147,0.537-0.218,0.812-0.218c0.562,0,1.109,0.291,1.411,0.813
		c0.147,0.257,0.219,0.537,0.219,0.812c-0.001,0.563-0.29,1.108-0.815,1.411c-0.256,0.147-0.533,0.218-0.811,0.218
		c-0.562,0-1.109-0.291-1.412-0.814c-0.147-0.256-0.218-0.535-0.218-0.811C81.297,72.659,81.589,72.111,82.109,71.811z
		 M70.104,59.206c0,0.337,0.086,0.68,0.267,0.993c0.368,0.638,1.039,0.996,1.726,0.994c0.338,0.002,0.682-0.086,0.992-0.267
		c0.637-0.368,0.995-1.038,0.994-1.726c0.001-0.337-0.086-0.68-0.268-0.993c-0.367-0.638-1.037-0.995-1.725-0.993
		c-0.338-0.002-0.681,0.086-0.992,0.266C70.46,57.85,70.104,58.52,70.104,59.206z M71.277,57.795
		c0.258-0.148,0.535-0.218,0.812-0.218c0.562,0,1.11,0.292,1.411,0.813c0.147,0.256,0.218,0.534,0.218,0.812
		c0,0.563-0.292,1.11-0.812,1.412c-0.258,0.147-0.534,0.218-0.811,0.218c-0.563,0-1.111-0.292-1.412-0.814
		c-0.148-0.257-0.219-0.535-0.219-0.812C70.465,58.645,70.757,58.096,71.277,57.795z M50.213,58.604
		c-0.001,0.338,0.086,0.681,0.266,0.992c0.369,0.639,1.039,0.996,1.725,0.995c0.338,0.001,0.681-0.086,0.993-0.266
		c0.637-0.37,0.994-1.039,0.992-1.728c0.002-0.337-0.086-0.679-0.266-0.992c-0.369-0.637-1.037-0.994-1.726-0.994
		c-0.337,0-0.679,0.087-0.992,0.268C50.57,57.247,50.212,57.916,50.213,58.604z M52.199,56.975c0.562,0,1.109,0.291,1.412,0.813
		c0.147,0.256,0.218,0.535,0.218,0.812c0,0.563-0.292,1.109-0.813,1.412c-0.257,0.148-0.533,0.219-0.812,0.219
		c-0.562,0-1.11-0.293-1.411-0.814c-0.148-0.257-0.219-0.536-0.219-0.812c0-0.562,0.293-1.109,0.814-1.41
		C51.645,57.044,51.924,56.975,52.199,56.975z M89.128,59.506c0.37,0.639,1.038,0.996,1.728,0.994
		c0.338,0.002,0.68-0.086,0.992-0.266c0.637-0.37,0.995-1.039,0.994-1.728c0.001-0.336-0.086-0.679-0.267-0.991
		c-0.368-0.639-1.037-0.996-1.726-0.996c-0.336,0-0.68,0.086-0.992,0.268c-0.64,0.367-0.998,1.037-0.996,1.725
		C88.861,58.85,88.948,59.191,89.128,59.506z M90.039,57.1c0.257-0.146,0.536-0.219,0.812-0.219c0.562,0,1.109,0.292,1.412,0.816
		c0.146,0.257,0.217,0.535,0.217,0.811c0,0.564-0.291,1.11-0.813,1.413c-0.256,0.147-0.535,0.218-0.812,0.218
		c-0.563,0-1.11-0.291-1.414-0.813c-0.147-0.257-0.217-0.536-0.217-0.812C89.225,57.949,89.516,57.4,90.039,57.1z M52.506,93.145
		c0.338,0.002,0.682-0.086,0.992-0.267c0.639-0.369,0.995-1.038,0.994-1.726c0.001-0.338-0.086-0.68-0.268-0.993
		c-0.367-0.638-1.037-0.995-1.725-0.995c-0.338,0-0.682,0.086-0.993,0.268c-0.637,0.369-0.993,1.037-0.993,1.726
		c0,0.337,0.086,0.68,0.268,0.993C51.148,92.787,51.818,93.146,52.506,93.145z M51.689,89.745c0.256-0.147,0.535-0.22,0.812-0.22
		c0.562,0,1.11,0.293,1.412,0.814c0.147,0.258,0.218,0.535,0.218,0.812c0,0.562-0.292,1.109-0.812,1.412
		c-0.258,0.147-0.535,0.218-0.812,0.218c-0.562,0-1.109-0.292-1.412-0.814c-0.148-0.257-0.217-0.534-0.217-0.812
		C50.877,90.594,51.168,90.046,51.689,89.745z M91.665,94.561c1.099,0,1.989-0.894,1.989-1.99c0-1.1-0.891-1.988-1.989-1.988
		s-1.989,0.891-1.989,1.988C89.677,93.667,90.566,94.561,91.665,94.561z M91.665,90.943c0.897,0,1.626,0.728,1.627,1.627
		c-0.001,0.896-0.729,1.625-1.627,1.628c-0.897-0.003-1.626-0.731-1.627-1.628C90.039,91.671,90.768,90.943,91.665,90.943z
		 M46.938,63.938c0-1.1-0.891-1.989-1.989-1.99c-1.099,0.001-1.989,0.892-1.989,1.99c0,1.097,0.891,1.987,1.989,1.988
		C46.048,65.925,46.938,65.033,46.938,63.938z M44.949,65.562c-0.898,0-1.626-0.729-1.628-1.627
		c0.002-0.897,0.729-1.625,1.628-1.627c0.898,0.002,1.626,0.729,1.628,1.627C46.575,64.833,45.848,65.562,44.949,65.562z
		 M46.919,97.093c0-1.1-0.891-1.989-1.989-1.989c-1.098,0-1.989,0.891-1.989,1.989c0,1.097,0.891,1.989,1.989,1.99
		C46.029,99.082,46.919,98.189,46.919,97.093z M44.93,98.721c-0.898-0.002-1.626-0.73-1.627-1.628
		c0.001-0.899,0.729-1.626,1.627-1.627c0.898,0.001,1.626,0.728,1.628,1.627C46.556,97.989,45.829,98.719,44.93,98.721z
		 M43.721,73.34c-0.337,0-0.681,0.086-0.994,0.268c-0.638,0.369-0.995,1.037-0.995,1.726c0,0.337,0.086,0.681,0.267,0.993
		c0.369,0.638,1.038,0.996,1.725,0.994c0.337,0.002,0.68-0.086,0.993-0.266c0.639-0.369,0.997-1.039,0.997-1.728
		c0-0.336-0.086-0.679-0.267-0.992C45.078,73.698,44.409,73.34,43.721,73.34z M45.352,75.327c0,0.563-0.292,1.11-0.816,1.413
		c-0.256,0.148-0.535,0.218-0.811,0.218c-0.563,0-1.11-0.292-1.412-0.813c-0.148-0.258-0.218-0.537-0.218-0.812
		c0-0.562,0.292-1.109,0.814-1.411c0.257-0.147,0.536-0.22,0.812-0.22c0.562,0,1.11,0.292,1.413,0.814
		C45.282,74.773,45.352,75.052,45.352,75.327z M62.752,43.407c0.336,0,0.678-0.086,0.991-0.266c0.637-0.369,0.995-1.039,0.993-1.726
		c0.002-0.337-0.086-0.68-0.266-0.993c-0.369-0.638-1.037-0.995-1.725-0.995c-0.337,0-0.68,0.086-0.99,0.267
		c-0.637,0.369-0.994,1.038-0.994,1.725c0,0.337,0.086,0.68,0.268,0.992C61.396,43.05,62.066,43.407,62.752,43.407z M61.342,42.231
		c-0.146-0.256-0.218-0.535-0.218-0.811c0-0.563,0.292-1.11,0.813-1.412c0.256-0.148,0.533-0.218,0.81-0.218
		c0.562,0,1.108,0.292,1.41,0.814c0.147,0.256,0.218,0.536,0.218,0.812c0,0.563-0.292,1.11-0.812,1.413
		c-0.258,0.147-0.535,0.217-0.811,0.218C62.189,43.045,61.645,42.754,61.342,42.231z M33.883,1.841
		c-0.181,0.313-0.267,0.656-0.267,0.993c0,0.687,0.356,1.356,0.994,1.726c0.312,0.181,0.655,0.267,0.993,0.267
		c0.687,0,1.356-0.357,1.725-0.995c0.181-0.313,0.267-0.655,0.267-0.993c0-0.687-0.356-1.356-0.994-1.725
		c-0.312-0.181-0.655-0.267-0.993-0.267C34.92,0.847,34.251,1.204,33.883,1.841z M37.233,2.838c0,0.276-0.07,0.555-0.218,0.811
		c-0.301,0.523-0.849,0.815-1.412,0.815c-0.276,0-0.555-0.07-0.812-0.218c-0.522-0.302-0.813-0.849-0.814-1.413
		c0-0.276,0.07-0.555,0.218-0.812c0.301-0.522,0.848-0.813,1.412-0.814c0.276,0.001,0.555,0.07,0.812,0.219
		C36.941,1.728,37.232,2.275,37.233,2.838z M34.1,16.7c0.337,0,0.68-0.087,0.993-0.268c0.637-0.369,0.994-1.037,0.994-1.725
		c0-0.337-0.086-0.681-0.267-0.993l-0.157,0.09l0.157-0.091c-0.368-0.637-1.038-0.994-1.724-0.994c-0.338,0-0.681,0.086-0.994,0.268
		c-0.637,0.368-0.994,1.037-0.994,1.724c0,0.337,0.086,0.68,0.267,0.993C32.744,16.343,33.413,16.701,34.1,16.7z M33.285,13.301
		c0.256-0.149,0.536-0.219,0.812-0.219c0.562,0,1.109,0.292,1.41,0.813l0,0c0.148,0.256,0.218,0.536,0.219,0.812
		c-0.001,0.563-0.292,1.11-0.814,1.412c-0.256,0.148-0.536,0.219-0.812,0.219c-0.563,0-1.11-0.292-1.411-0.814
		c-0.148-0.257-0.218-0.536-0.219-0.812C32.471,14.149,32.762,13.602,33.285,13.301z M14.055,7.031
		c0.312,0.181,0.655,0.267,0.993,0.267c0.687,0,1.356-0.357,1.725-0.996l-0.157-0.091l0.157,0.09
		c0.181-0.313,0.267-0.656,0.267-0.993c0-0.688-0.356-1.356-0.994-1.725c-0.314-0.181-0.657-0.267-0.995-0.267
		c-0.688,0-1.357,0.357-1.725,0.997c-0.18,0.312-0.266,0.655-0.266,0.992C13.059,5.992,13.416,6.662,14.055,7.031z M13.638,4.493
		c0.301-0.523,0.849-0.815,1.412-0.815c0.277,0,0.557,0.071,0.814,0.219c0.522,0.301,0.813,0.848,0.814,1.412
		c0,0.276-0.07,0.555-0.218,0.812l0,0c-0.302,0.522-0.849,0.814-1.412,0.814c-0.276,0-0.555-0.07-0.812-0.218
		c-0.524-0.302-0.815-0.85-0.815-1.413C13.421,5.029,13.491,4.75,13.638,4.493z M16.435,14.594c0,0.337,0.086,0.68,0.267,0.992
		c0.369,0.638,1.038,0.996,1.725,0.996c0.337,0,0.68-0.086,0.993-0.267c0.638-0.369,0.994-1.039,0.994-1.726
		c0-0.337-0.086-0.68-0.267-0.993c-0.369-0.637-1.038-0.995-1.725-0.995c-0.337,0-0.68,0.086-0.992,0.267
		C16.792,13.237,16.435,13.907,16.435,14.594z M18.422,12.963c0.563,0,1.11,0.292,1.412,0.815c0.148,0.256,0.218,0.536,0.218,0.812
		c0,0.563-0.292,1.11-0.814,1.413c-0.256,0.147-0.535,0.218-0.811,0.218c-0.563,0-1.11-0.292-1.412-0.815
		c-0.148-0.256-0.218-0.535-0.218-0.811c0-0.563,0.292-1.11,0.814-1.412C17.868,13.034,18.146,12.963,18.422,12.963z M26.758,19.144
		c-1.101,0.002-1.988,0.89-1.989,1.989c0,1.096,0.888,1.989,1.989,1.989c1.098,0,1.989-0.893,1.989-1.989
		C28.748,20.033,27.856,19.144,26.758,19.144z M26.758,22.761c-0.901-0.002-1.626-0.732-1.628-1.628c0-0.9,0.727-1.627,1.628-1.627
		c0.898,0.001,1.626,0.728,1.627,1.627C28.384,22.029,27.657,22.759,26.758,22.761z M5.923-0.576L5.922-0.574v0.001L5.923-0.576z
		 M7.374,19.926c0,1.097,0.891,1.989,1.989,1.989c1.098,0,1.989-0.892,1.989-1.989c0-1.099-0.891-1.989-1.989-1.989
		C8.265,17.937,7.374,18.828,7.374,19.926z M9.363,18.298c0.898,0.002,1.626,0.729,1.627,1.628
		c-0.001,0.897-0.729,1.626-1.627,1.627c-0.898-0.001-1.626-0.73-1.628-1.627C7.737,19.028,8.465,18.3,9.363,18.298z M33.562,37.105
		c0,0.687,0.356,1.355,0.994,1.724c0.312,0.181,0.656,0.267,0.994,0.267c0.687,0,1.356-0.357,1.724-0.994l0,0
		c0.181-0.313,0.267-0.657,0.267-0.995c0-0.688-0.357-1.356-0.995-1.724l0,0c-0.312-0.181-0.656-0.268-0.994-0.268
		c-0.687,0-1.356,0.357-1.724,0.998l0,0C33.648,36.426,33.562,36.769,33.562,37.105z M34.142,36.294L34.142,36.294
		c0.302-0.524,0.848-0.816,1.411-0.816c0.276,0,0.556,0.07,0.812,0.219l0.002,0.002c0.52,0.301,0.811,0.846,0.812,1.409
		c0,0.277-0.07,0.556-0.218,0.814l0,0l0,0c-0.301,0.521-0.848,0.813-1.411,0.813c-0.277,0-0.556-0.07-0.812-0.219
		c-0.522-0.301-0.813-0.848-0.814-1.411C33.924,36.83,33.993,36.55,34.142,36.294z M14.894,36.203
		c-0.181,0.313-0.267,0.656-0.267,0.993c0,0.687,0.357,1.356,0.995,1.726c0.312,0.181,0.655,0.267,0.993,0.267
		c0.687,0,1.356-0.357,1.725-0.996c0.181-0.312,0.267-0.655,0.267-0.993c0-0.687-0.356-1.356-0.994-1.725
		c-0.312-0.181-0.655-0.268-0.993-0.268C15.931,35.208,15.262,35.565,14.894,36.203z M16.618,35.57c0.276,0,0.555,0.07,0.812,0.218
		c0.522,0.301,0.813,0.849,0.814,1.412c0,0.276-0.07,0.555-0.218,0.812c-0.301,0.523-0.849,0.814-1.412,0.814
		c-0.276,0-0.555-0.07-0.812-0.218c-0.522-0.302-0.813-0.849-0.814-1.412c0-0.276,0.07-0.555,0.218-0.812
		C15.508,35.862,16.056,35.57,16.618,35.57z M27.24,31.984c0-1.1-0.891-1.989-1.989-1.989c-1.1,0.002-1.987,0.89-1.989,1.989
		c0,1.096,0.889,1.989,1.989,1.989C26.35,33.973,27.24,33.08,27.24,31.984z M23.624,31.984c0-0.9,0.726-1.628,1.627-1.628
		c0.898,0.002,1.626,0.729,1.628,1.628c-0.002,0.896-0.729,1.626-1.628,1.628C24.351,33.61,23.625,32.88,23.624,31.984z
		 M4.767,29.573c0,1.096,0.891,1.989,1.989,1.989c1.098,0,1.989-0.893,1.989-1.989c0-1.1-0.891-1.989-1.989-1.989
		C5.658,27.584,4.767,28.473,4.767,29.573z M8.384,29.573c-0.002,0.896-0.729,1.626-1.628,1.627
		c-0.898-0.001-1.626-0.731-1.628-1.627c0.002-0.9,0.729-1.626,1.628-1.628C7.655,27.947,8.382,28.673,8.384,29.573z M17.221,28.036
		c0.337,0,0.68-0.086,0.993-0.267c0.637-0.369,0.994-1.039,0.994-1.726c0-0.337-0.086-0.68-0.267-0.993
		c-0.369-0.638-1.038-0.995-1.725-0.995c-0.337,0-0.68,0.086-0.993,0.268c-0.637,0.368-0.994,1.038-0.994,1.725
		c0,0.337,0.086,0.68,0.267,0.993C15.865,27.678,16.534,28.036,17.221,28.036z M15.591,26.047c0.001-0.563,0.292-1.11,0.814-1.412
		c0.256-0.148,0.535-0.218,0.811-0.219c0.563,0.001,1.11,0.293,1.412,0.815c0.148,0.257,0.218,0.536,0.219,0.812
		c0,0.563-0.292,1.11-0.814,1.412c-0.256,0.148-0.535,0.218-0.811,0.218c-0.563,0-1.11-0.292-1.412-0.814
		C15.661,26.603,15.592,26.324,15.591,26.047z M4.981,10.374c0,0.337,0.086,0.68,0.267,0.993c0.369,0.638,1.038,0.996,1.725,0.996
		c0.337,0,0.68-0.086,0.992-0.267c0.638-0.369,0.995-1.039,0.995-1.726c0-0.337-0.086-0.68-0.267-0.993
		C8.325,8.739,7.655,8.381,6.968,8.381c-0.337,0-0.68,0.087-0.993,0.268C5.338,9.018,4.981,9.687,4.981,10.374z M6.968,8.743
		c0.563,0,1.11,0.292,1.412,0.814c0.148,0.257,0.218,0.536,0.218,0.812c0,0.563-0.292,1.11-0.814,1.412
		C7.528,11.93,7.249,12,6.973,12c-0.563,0-1.11-0.291-1.412-0.814c-0.148-0.256-0.218-0.535-0.218-0.812
		c0-0.563,0.292-1.11,0.814-1.412C6.414,8.813,6.692,8.744,6.968,8.743z M25.549,6.388c-0.637,0.369-0.994,1.038-0.994,1.725
		c0,0.337,0.086,0.68,0.267,0.992c0.369,0.638,1.038,0.996,1.725,0.996c0.337,0,0.68-0.086,0.992-0.267
		c0.638-0.369,0.995-1.037,0.995-1.724c0-0.338-0.086-0.682-0.267-0.995c-0.369-0.637-1.037-0.994-1.724-0.994
		C26.206,6.122,25.862,6.208,25.549,6.388L25.549,6.388z M26.542,6.483c0.563,0,1.109,0.292,1.411,0.814
		c0.148,0.257,0.219,0.537,0.219,0.813c0,0.562-0.291,1.108-0.814,1.411c-0.256,0.147-0.535,0.218-0.811,0.218
		c-0.563,0-1.11-0.292-1.412-0.815c-0.148-0.256-0.218-0.535-0.218-0.811c0-0.563,0.292-1.11,0.814-1.412H25.73
		C25.987,6.553,26.267,6.483,26.542,6.483z M26.773,40.298c-0.638,0.368-0.994,1.038-0.994,1.725c0,0.337,0.086,0.68,0.267,0.993
		c0.369,0.638,1.038,0.995,1.725,0.995c0.337,0,0.68-0.086,0.992-0.266l0,0c0.638-0.369,0.995-1.039,0.995-1.726
		c0-0.337-0.086-0.68-0.267-0.993c-0.368-0.638-1.038-0.995-1.725-0.995C27.429,40.03,27.086,40.117,26.773,40.298z M29.178,41.207
		c0.148,0.257,0.218,0.536,0.218,0.812c0,0.563-0.292,1.11-0.814,1.412l0,0c-0.257,0.148-0.536,0.217-0.812,0.218
		c-0.562,0-1.11-0.292-1.412-0.814c-0.148-0.256-0.218-0.535-0.218-0.812c0-0.563,0.292-1.11,0.814-1.412
		c0.257-0.148,0.535-0.218,0.812-0.218C28.329,40.393,28.876,40.685,29.178,41.207z M35.285,25.472c-1.099,0-1.989,0.89-1.989,1.989
		c0,1.096,0.891,1.989,1.989,1.989c1.098,0,1.989-0.893,1.989-1.989C37.274,26.362,36.383,25.472,35.285,25.472z M35.285,29.089
		c-0.898-0.002-1.626-0.732-1.628-1.628c0.002-0.899,0.729-1.626,1.628-1.627c0.898,0.001,1.626,0.728,1.627,1.627
		C36.911,28.357,36.183,29.087,35.285,29.089z M43.725,12.211c0.337,0,0.68-0.086,0.993-0.267c0.639-0.369,0.997-1.039,0.997-1.726
		c0-0.337-0.086-0.68-0.267-0.993c-0.37-0.637-1.039-0.995-1.726-0.995c-0.337,0-0.681,0.086-0.994,0.267
		c-0.638,0.369-0.995,1.038-0.995,1.725c0,0.337,0.086,0.68,0.267,0.993C42.368,11.854,43.038,12.211,43.725,12.211z M42.909,8.812
		c0.257-0.148,0.536-0.219,0.812-0.219c0.562,0,1.11,0.292,1.413,0.815c0.148,0.256,0.218,0.535,0.218,0.811
		c0,0.563-0.292,1.11-0.816,1.413c-0.256,0.147-0.535,0.218-0.811,0.218c-0.563,0-1.11-0.292-1.412-0.815
		c-0.148-0.256-0.218-0.535-0.218-0.811C42.095,9.66,42.387,9.113,42.909,8.812z M42.5,23.422c1.101,0,1.989-0.893,1.989-1.989
		c-0.001-1.098-0.888-1.989-1.989-1.989c-1.098,0-1.989,0.891-1.989,1.989C40.511,22.53,41.402,23.422,42.5,23.422z M42.5,19.805
		c0.901,0.002,1.628,0.729,1.628,1.628c-0.002,0.898-0.727,1.626-1.628,1.628c-0.898-0.002-1.626-0.73-1.627-1.628
		C40.874,20.535,41.602,19.807,42.5,19.805z M36.6,66.223c-0.312-0.18-0.655-0.268-0.993-0.266
		c-0.687-0.002-1.356,0.355-1.725,0.993c-0.181,0.313-0.267,0.655-0.267,0.991c0,0.688,0.356,1.356,0.994,1.728
		c0.312,0.181,0.655,0.269,0.993,0.267c0.687,0.002,1.356-0.356,1.725-0.994c0.181-0.313,0.267-0.656,0.267-0.993
		C37.594,67.26,37.238,66.591,36.6,66.223z M35.603,69.573c-0.276,0-0.555-0.069-0.812-0.218c-0.522-0.304-0.813-0.85-0.814-1.414
		c0-0.274,0.07-0.553,0.218-0.811c0.301-0.521,0.848-0.812,1.412-0.812c0.276,0,0.555,0.068,0.812,0.218
		c0.522,0.301,0.813,0.849,0.814,1.411c0,0.275-0.07,0.555-0.218,0.812C36.713,69.281,36.166,69.573,35.603,69.573z M32.375,80.814
		c0.368,0.638,1.038,0.994,1.725,0.994c0.337,0,0.68-0.086,0.993-0.268c0.637-0.368,0.994-1.037,0.994-1.725
		c0-0.338-0.086-0.682-0.267-0.994c-0.368-0.637-1.038-0.994-1.724-0.994c-0.338,0-0.681,0.086-0.994,0.268
		c-0.637,0.369-0.994,1.037-0.994,1.725C32.109,80.158,32.195,80.501,32.375,80.814z M33.285,78.41
		c0.256-0.148,0.536-0.219,0.812-0.219c0.562,0,1.109,0.291,1.41,0.812c0.148,0.258,0.218,0.535,0.219,0.812
		c-0.001,0.562-0.292,1.109-0.814,1.41c-0.256,0.148-0.536,0.219-0.812,0.219c-0.563,0-1.11-0.291-1.411-0.813
		c-0.148-0.257-0.218-0.534-0.219-0.812C32.471,79.258,32.762,78.712,33.285,78.41z M26.141,64.023c0-0.336-0.086-0.68-0.267-0.991
		c-0.369-0.638-1.038-0.995-1.725-0.994c-0.337-0.001-0.68,0.086-0.993,0.267c-0.637,0.368-0.994,1.037-0.994,1.725
		c0,0.338,0.086,0.681,0.267,0.992c0.369,0.64,1.038,0.996,1.725,0.996c0.337,0,0.68-0.086,0.993-0.267
		C25.784,65.381,26.141,64.712,26.141,64.023z M24.154,65.654c-0.563,0-1.11-0.291-1.412-0.813
		c-0.148-0.257-0.218-0.536-0.219-0.812c0.001-0.562,0.292-1.11,0.814-1.412c0.256-0.148,0.535-0.219,0.811-0.219
		c0.563,0,1.11,0.293,1.412,0.813c0.148,0.257,0.218,0.536,0.219,0.812c-0.001,0.564-0.292,1.11-0.814,1.414
		C24.709,65.586,24.43,65.654,24.154,65.654z M13.325,69.422L13.325,69.422c-0.18,0.312-0.266,0.655-0.266,0.992
		c0,0.688,0.356,1.355,0.996,1.727c0.312,0.18,0.655,0.268,0.993,0.267c0.687,0.001,1.356-0.356,1.725-0.995
		c0.181-0.312,0.267-0.656,0.267-0.993c0-0.688-0.356-1.356-0.994-1.726c-0.314-0.182-0.657-0.268-0.995-0.268
		C14.362,68.426,13.693,68.783,13.325,69.422z M15.05,68.787c0.277,0,0.557,0.07,0.814,0.219c0.522,0.303,0.813,0.848,0.814,1.412
		c0,0.275-0.07,0.557-0.218,0.812c-0.302,0.521-0.849,0.813-1.412,0.813c-0.276,0-0.555-0.069-0.812-0.218
		c-0.524-0.303-0.815-0.85-0.815-1.413c0-0.274,0.07-0.556,0.217-0.812l0.001-0.002l-0.001,0.002
		C13.939,69.079,14.487,68.787,15.05,68.787z M20.414,79.698c0-0.337-0.086-0.681-0.267-0.993c-0.369-0.637-1.038-0.994-1.725-0.994
		c-0.337,0-0.68,0.086-0.992,0.268c-0.638,0.369-0.995,1.037-0.995,1.726c0,0.337,0.086,0.679,0.267,0.991
		c0.369,0.64,1.038,0.996,1.725,0.996c0.337,0,0.68-0.086,0.993-0.268C20.057,81.055,20.414,80.386,20.414,79.698z M18.427,81.329
		c-0.563,0-1.11-0.292-1.412-0.815c-0.148-0.256-0.218-0.535-0.218-0.811c0-0.562,0.292-1.11,0.814-1.412
		c0.257-0.148,0.535-0.219,0.811-0.219c0.563,0,1.11,0.292,1.412,0.813c0.148,0.257,0.218,0.536,0.218,0.812
		c0,0.562-0.292,1.11-0.814,1.413C18.982,81.26,18.703,81.329,18.427,81.329z M28.748,86.242c0-1.1-0.891-1.99-1.989-1.99
		c-1.101,0.003-1.988,0.891-1.989,1.99c0,1.096,0.888,1.988,1.989,1.99C27.856,88.23,28.748,87.338,28.748,86.242z M26.758,87.869
		c-0.901-0.001-1.626-0.73-1.628-1.627c0-0.899,0.727-1.627,1.628-1.627c0.898,0.001,1.626,0.728,1.627,1.627
		C28.384,87.139,27.657,87.868,26.758,87.869z M4.197,65.532c0.687,0,1.356-0.357,1.724-0.996c0.181-0.312,0.267-0.654,0.267-0.992
		c0-0.687-0.356-1.354-0.994-1.724c-0.314-0.182-0.657-0.269-0.996-0.269c-0.687,0-1.356,0.357-1.724,0.994v0.001
		c-0.18,0.312-0.266,0.654-0.266,0.992c0,0.688,0.357,1.355,0.996,1.727l0,0C3.517,65.445,3.859,65.532,4.197,65.532z M2.57,63.54
		c0-0.276,0.07-0.554,0.217-0.812v-0.002v0.002c0.302-0.522,0.848-0.814,1.411-0.814c0.277,0,0.557,0.07,0.814,0.22
		c0.522,0.302,0.813,0.849,0.814,1.41c0,0.276-0.07,0.556-0.218,0.812c-0.301,0.523-0.849,0.815-1.411,0.815
		c-0.276,0-0.555-0.069-0.812-0.219l0,0C2.861,64.65,2.571,64.104,2.57,63.54z M9.363,87.025c1.098-0.002,1.989-0.894,1.989-1.99
		c0-1.1-0.891-1.988-1.989-1.989c-1.099,0.001-1.989,0.892-1.989,1.989S8.265,87.023,9.363,87.025z M9.363,83.408
		c0.898,0.001,1.626,0.729,1.627,1.627c-0.001,0.896-0.729,1.626-1.627,1.627c-0.898-0.001-1.626-0.729-1.628-1.627
		C7.737,84.137,8.465,83.409,9.363,83.408z M27.24,97.093c0-1.1-0.891-1.989-1.989-1.989c-1.1,0.002-1.987,0.891-1.989,1.989
		c0,1.097,0.889,1.989,1.989,1.99C26.35,99.082,27.24,98.189,27.24,97.093z M25.251,98.721c-0.9-0.002-1.626-0.73-1.627-1.628
		c0-0.899,0.726-1.627,1.627-1.627c0.898,0.001,1.626,0.728,1.628,1.627C26.877,97.989,26.149,98.719,25.251,98.721z M6.756,96.672
		c1.099-0.001,1.989-0.895,1.989-1.99c0-1.1-0.891-1.988-1.989-1.988c-1.098,0-1.989,0.89-1.989,1.988
		C4.767,95.777,5.658,96.671,6.756,96.672z M6.756,93.055c0.898,0.002,1.626,0.729,1.628,1.627
		c-0.002,0.896-0.729,1.627-1.628,1.627c-0.898,0-1.626-0.729-1.628-1.627C5.13,93.782,5.858,93.057,6.756,93.055z M36.636,48.258
		c0-0.337-0.086-0.68-0.267-0.993l0,0c-0.368-0.639-1.037-0.997-1.724-0.996c-0.338,0-0.681,0.086-0.993,0.267
		c-0.638,0.369-0.994,1.038-0.994,1.725c0,0.337,0.086,0.681,0.267,0.994c0.368,0.637,1.037,0.996,1.723,0.996
		c0.338,0,0.681-0.087,0.994-0.27l0,0C36.279,49.614,36.636,48.946,36.636,48.258z M35.461,49.668L35.461,49.668
		c-0.258,0.15-0.537,0.22-0.813,0.22c-0.562-0.001-1.108-0.292-1.41-0.814c-0.148-0.257-0.218-0.537-0.218-0.812
		c0-0.564,0.292-1.11,0.814-1.412c0.257-0.148,0.536-0.219,0.812-0.219c0.563,0,1.11,0.292,1.411,0.815l0.157-0.09l-0.157,0.09
		c0.148,0.257,0.218,0.536,0.218,0.812C36.274,48.822,35.982,49.369,35.461,49.668z M23.528,52.693L23.528,52.693L23.528,52.693
		L23.528,52.693z M26.246,51.964c-0.314-0.181-0.657-0.267-0.995-0.267c-0.687,0-1.356,0.357-1.723,0.996
		c-0.181,0.312-0.268,0.656-0.268,0.994c0,0.687,0.358,1.354,0.997,1.722l0,0c0.313,0.182,0.656,0.269,0.994,0.269
		c0.687,0,1.355-0.357,1.723-0.994c0.181-0.312,0.267-0.658,0.267-0.994C27.24,53.002,26.884,52.333,26.246,51.964z M26.661,54.502
		c-0.302,0.521-0.848,0.812-1.41,0.814c-0.277,0-0.556-0.07-0.813-0.221l0,0c-0.523-0.301-0.815-0.847-0.815-1.408
		c0-0.276,0.07-0.557,0.22-0.813v-0.001c0.3-0.521,0.846-0.814,1.409-0.814c0.277,0,0.557,0.07,0.813,0.219
		c0.522,0.303,0.814,0.849,0.814,1.412C26.878,53.965,26.809,54.245,26.661,54.502z M14.686,47.508c0,0.336,0.086,0.68,0.267,0.994
		c0.369,0.638,1.038,0.996,1.725,0.995c0.337,0.001,0.68-0.086,0.993-0.266c0.637-0.37,0.994-1.038,0.994-1.725
		c0-0.337-0.086-0.68-0.267-0.993l0,0c-0.369-0.639-1.038-0.997-1.725-0.996c-0.338,0-0.68,0.086-0.993,0.267
		C15.042,46.152,14.686,46.82,14.686,47.508z M15.861,46.096c0.256-0.148,0.536-0.219,0.812-0.219c0.563,0,1.11,0.292,1.411,0.815
		l0.157-0.09l-0.157,0.091c0.148,0.257,0.218,0.536,0.219,0.812c-0.001,0.563-0.292,1.109-0.814,1.412
		c-0.256,0.148-0.535,0.218-0.811,0.218c-0.563,0-1.11-0.292-1.412-0.815c-0.148-0.256-0.218-0.537-0.219-0.812
		C15.048,46.945,15.339,46.398,15.861,46.096z M6.063,50.759c-0.638,0.368-0.995,1.037-0.995,1.726c0,0.336,0.086,0.681,0.267,0.994
		c0.368,0.637,1.037,0.994,1.723,0.994c0.338,0,0.681-0.088,0.995-0.269l0,0c0.638-0.368,0.995-1.036,0.995-1.726
		c0-0.336-0.086-0.679-0.267-0.992C8.413,50.85,7.744,50.49,7.057,50.49C6.719,50.491,6.375,50.577,6.063,50.759z M8.467,51.669
		c0.148,0.257,0.218,0.535,0.218,0.812c0,0.563-0.292,1.109-0.813,1.41H7.871c-0.257,0.149-0.536,0.221-0.813,0.221
		c-0.562-0.002-1.108-0.293-1.41-0.814C5.5,53.039,5.431,52.759,5.43,52.482c0-0.562,0.292-1.109,0.814-1.412
		c0.257-0.146,0.536-0.219,0.812-0.219C7.619,50.854,8.166,51.145,8.467,51.669z M19.208,91.152c0-0.338-0.086-0.68-0.267-0.993
		c-0.369-0.638-1.038-0.995-1.725-0.995c-0.337,0-0.68,0.086-0.993,0.268c-0.637,0.369-0.994,1.037-0.994,1.726
		c0,0.337,0.086,0.68,0.267,0.993c0.369,0.638,1.038,0.996,1.725,0.994c0.337,0.002,0.68-0.086,0.993-0.267
		C18.851,92.509,19.208,91.84,19.208,91.152z M18.032,92.564c-0.256,0.147-0.535,0.218-0.811,0.218c-0.563,0-1.11-0.292-1.412-0.814
		c-0.148-0.257-0.218-0.534-0.219-0.812c0.001-0.562,0.292-1.11,0.814-1.411c0.256-0.147,0.535-0.22,0.811-0.22
		c0.563,0,1.11,0.293,1.412,0.814c0.148,0.258,0.218,0.535,0.219,0.812C18.846,91.716,18.555,92.264,18.032,92.564z M8.96,75.479
		c0-0.336-0.086-0.68-0.267-0.992c-0.369-0.637-1.038-0.994-1.725-0.994c-0.337,0-0.68,0.086-0.993,0.267
		c-0.638,0.369-0.994,1.037-0.994,1.726c0,0.336,0.086,0.68,0.267,0.992c0.369,0.639,1.038,0.996,1.725,0.996
		c0.337,0,0.68-0.087,0.992-0.268C8.603,76.835,8.96,76.166,8.96,75.479z M6.973,77.109c-0.563,0-1.11-0.293-1.412-0.815
		c-0.148-0.257-0.218-0.535-0.218-0.812c0-0.562,0.292-1.109,0.814-1.412c0.256-0.147,0.535-0.219,0.811-0.219
		c0.563,0,1.11,0.293,1.412,0.814c0.148,0.257,0.218,0.536,0.218,0.812c0,0.562-0.292,1.109-0.814,1.412
		C7.528,77.039,7.249,77.109,6.973,77.109z M26.546,75.21c0.337,0.001,0.68-0.086,0.992-0.267c0.638-0.368,0.995-1.037,0.995-1.725
		c0-0.338-0.086-0.682-0.267-0.994c-0.369-0.638-1.037-0.994-1.724-0.994c-0.337,0-0.68,0.086-0.993,0.267l0,0
		c-0.637,0.369-0.994,1.038-0.994,1.726c0,0.338,0.086,0.68,0.267,0.992C25.19,74.854,25.859,75.211,26.546,75.21z M25.73,71.811
		L25.73,71.811c0.258-0.147,0.537-0.218,0.812-0.218c0.563,0,1.109,0.291,1.411,0.813c0.148,0.257,0.219,0.537,0.219,0.812
		c0,0.563-0.291,1.108-0.814,1.411c-0.256,0.147-0.535,0.218-0.811,0.218c-0.563,0-1.11-0.291-1.412-0.814
		c-0.148-0.256-0.218-0.535-0.218-0.811C24.917,72.659,25.208,72.111,25.73,71.811z M13.723,59.206c0,0.337,0.086,0.68,0.267,0.993
		c0.368,0.638,1.038,0.996,1.725,0.994c0.337,0.002,0.68-0.086,0.993-0.267c0.638-0.368,0.994-1.038,0.994-1.726
		c0-0.337-0.086-0.68-0.267-0.993c-0.368-0.638-1.038-0.995-1.725-0.993c-0.337-0.002-0.68,0.086-0.993,0.266
		C14.079,57.85,13.723,58.52,13.723,59.206z M14.898,57.795c0.256-0.148,0.535-0.218,0.812-0.218c0.562,0,1.11,0.292,1.412,0.813
		c0.148,0.256,0.218,0.534,0.218,0.812c0,0.563-0.292,1.11-0.814,1.412c-0.256,0.147-0.535,0.218-0.812,0.218
		c-0.562,0-1.11-0.292-1.412-0.814c-0.148-0.257-0.218-0.535-0.218-0.812C14.084,58.645,14.376,58.096,14.898,57.795z
		 M32.748,59.506c0.37,0.639,1.039,0.996,1.726,0.994c0.337,0.002,0.681-0.086,0.993-0.266l0,0c0.638-0.37,0.995-1.039,0.995-1.728
		c0-0.336-0.086-0.679-0.267-0.991c-0.368-0.639-1.038-0.996-1.725-0.996c-0.338,0-0.681,0.086-0.993,0.268l0,0
		c-0.639,0.367-0.997,1.037-0.997,1.725C32.481,58.85,32.567,59.191,32.748,59.506z M33.658,57.1L33.658,57.1
		c0.257-0.146,0.537-0.219,0.812-0.219c0.563,0,1.11,0.292,1.411,0.816c0.148,0.257,0.218,0.535,0.218,0.811
		c0,0.564-0.292,1.11-0.814,1.413l0,0c-0.257,0.147-0.537,0.218-0.813,0.218c-0.562,0-1.109-0.291-1.413-0.813
		c-0.148-0.257-0.218-0.536-0.218-0.812C32.843,57.949,33.135,57.4,33.658,57.1z M35.285,94.561c1.098,0,1.989-0.894,1.989-1.99
		c0-1.1-0.891-1.988-1.989-1.988c-1.099,0-1.989,0.891-1.989,1.988C33.296,93.667,34.187,94.561,35.285,94.561z M35.285,90.943
		c0.898,0,1.626,0.728,1.627,1.627c-0.001,0.896-0.729,1.625-1.627,1.628c-0.898-0.003-1.626-0.731-1.628-1.628
		C33.659,91.671,34.387,90.943,35.285,90.943z M44.912,54.473c1.098-0.002,1.989-0.893,1.989-1.99c0-1.099-0.891-1.989-1.989-1.99
		c-1.099,0.001-1.989,0.892-1.989,1.99C42.922,53.58,43.813,54.471,44.912,54.473z M44.912,50.855c0.898,0,1.626,0.729,1.627,1.627
		c-0.001,0.896-0.729,1.625-1.627,1.627c-0.898-0.002-1.626-0.729-1.628-1.627C43.286,51.584,44.013,50.855,44.912,50.855z
		 M44.489,86.542c-0.001-1.099-0.888-1.989-1.989-1.989c-1.098,0.002-1.989,0.893-1.989,1.989s0.891,1.989,1.989,1.99
		C43.601,88.531,44.489,87.641,44.489,86.542z M42.5,88.17c-0.898-0.002-1.626-0.73-1.627-1.628
		c0.001-0.897,0.729-1.626,1.627-1.627c0.901,0.001,1.628,0.729,1.628,1.627C44.126,87.439,43.401,88.168,42.5,88.17z M6.37,43.407
		c0.337,0,0.68-0.086,0.992-0.266l0,0C8,42.772,8.357,42.103,8.357,41.416c0-0.337-0.086-0.68-0.267-0.993
		c-0.369-0.638-1.038-0.995-1.725-0.995c-0.337,0-0.68,0.086-0.992,0.267c-0.638,0.369-0.995,1.038-0.995,1.725
		c0,0.337,0.086,0.68,0.267,0.992C5.014,43.05,5.683,43.407,6.37,43.407z M4.958,42.231C4.81,41.975,4.741,41.696,4.74,41.42
		c0.001-0.563,0.292-1.11,0.814-1.412c0.257-0.148,0.535-0.218,0.811-0.218c0.563,0,1.11,0.292,1.412,0.814
		c0.148,0.256,0.218,0.536,0.218,0.812c0,0.563-0.292,1.11-0.814,1.413h0.001c-0.257,0.147-0.536,0.217-0.812,0.218
		C5.807,43.045,5.26,42.754,4.958,42.231z"/>
</g>
<polygon fill="#EBE8EB" points="91.529,69.137 65.57,1.929 15.266,11.553 5.68,24.271 27.564,98.04 81.943,81.855 "/>
<polygon fill="#FFF7DB" points="92.247,67.988 66.288,0.777 15.986,10.401 6.4,23.119 28.284,96.893 82.662,80.707 "/>
<polygon fill="#D7D6C4" points="28.284,96.893 37.87,84.174 92.247,67.988 82.662,80.707 "/>
<polygon fill="#E2E0CB" points="15.794,11.105 37.87,84.174 27.564,98.04 5.68,24.271 "/>
</svg>
